<svg id="Layer_1" data-name="Layer 1" xmlns="http://www.w3.org/2000/svg" viewBox="0 0 481.89 481.86"><defs><style>.cls-1{fill:#ec7f6d;}</style></defs><title>Artboard 8 copy 9</title><g id="Group_35" data-name="Group 35"><path id="Path_28" data-name="Path 28" class="cls-1" d="M111.92,258.42V148.12a34.9,34.9,0,0,1,33-36.12c1.74-.16,2.14-.67,2.29-2.35A34.9,34.9,0,0,1,183,76.74H295.85A33.83,33.83,0,0,1,324.7,91.35c13.07,18.06,25.95,36.36,38.83,54.6A34.76,34.76,0,0,1,370,166.59V334.05a34.83,34.83,0,0,1-32.87,35.84c-2,.16-2.25.91-2.38,2.58a35,35,0,0,1-35,32.62q-76.41.07-152.8,0A34.9,34.9,0,0,1,112,370.25v-.08Q111.84,314.34,111.92,258.42Zm58.61-35.05V332.21c0,9.85,4.45,14.29,14.32,14.29H332.17c9.9,0,14.32-4.41,14.32-14.29V253.05q0-39.57.07-79.16c0-2.76-.73-3.5-3.45-3.41-6.83.2-13.67.1-20.52,0a35,35,0,0,1-34.73-34.83c-.06-10.63-.14-21.26.07-31.88,0-3.12-.88-3.77-3.87-3.77-33.11.12-66.21.07-99.34.07-9.85,0-14.19,4.41-14.19,14.37V223.37ZM135.34,258.2V367.41c0,9.87,4.44,14.33,14.3,14.33h133c5.49,0,11,.08,16.48,0a11.6,11.6,0,0,0,11.22-7.4c1.67-3.87,1.3-4.32-2.79-4.32H183.74a38.18,38.18,0,0,1-6.92-.42,34.9,34.9,0,0,1-29.67-35.81V140.29a22.21,22.21,0,0,1,0-2.58c.22-2.16-.7-2.37-2.58-1.9a12,12,0,0,0-9.19,12.9q0,54.69,0,109.47Zm200.1-111.15L311.93,114a189.84,189.84,0,0,0-.6,21.6A11.42,11.42,0,0,0,321.65,147c4.36.41,8.73.07,13.8.07Z"/><path id="Path_29" data-name="Path 29" class="cls-1" d="M275.09,276.21a11.22,11.22,0,0,1-7.86-3.87c-4.2-4.26-8.5-8.43-12.59-12.79-1.6-1.7-2.5-1.56-4,0-4,4.27-8.18,8.4-12.35,12.51a11.85,11.85,0,0,1-16.71,1.37c-.28-.25-.56-.5-.82-.77A11.82,11.82,0,0,1,221,256c.19-.19.4-.38.6-.55,3.87-3.87,7.74-7.87,11.76-11.61,2.27-2.07,2.72-3.36.12-5.63-4.21-3.7-8.07-7.74-12-11.8a11.84,11.84,0,0,1-1.06-16.7c.18-.2.36-.39.55-.57a11.82,11.82,0,0,1,16.72,0c.2.2.38.4.56.6,4.26,4.21,8.5,8.43,12.62,12.77,1.44,1.53,2.33,1.49,3.76,0,4.12-4.33,8.36-8.56,12.62-12.77a11.83,11.83,0,0,1,16.69-1.17l.6.55a11.84,11.84,0,0,1,0,16.75c-.19.19-.38.37-.58.54-4.1,4.18-8.24,8.33-12.5,12.36-1.69,1.59-1.91,2.58-.08,4.29q6.94,6.47,13.51,13.43a11,11,0,0,1,2,12.9A11.62,11.62,0,0,1,275.09,276.21Z"/></g></svg>