<svg id="Layer_1" data-name="Layer 1" xmlns="http://www.w3.org/2000/svg" viewBox="0 0 481.89 481.86">
<defs>
<style>.cls-1{fill:#fff;stroke:#d2d2d1;stroke-miterlimit:10;}.cls-2{fill:#233d7c;}</style>
</defs>
<title>Artboard 8 copy 3</title>
<ellipse class="cls-1" cx="240.94" cy="240.93" rx="240.94" ry="240.93"/>
<g id="Group_10" data-name="Group 10">
<path id="Path_19" data-name="Path 19" class="cls-2" d="M243.54,379.36l-.35-.41a1.34,1.34,0,0,0-.52-.1l-.55-.08a31,31,0,0,1-20.27-14.19,30.59,30.59,0,0,1-3.49-24.17,30.15,30.15,0,0,1,22.3-22.14c1.33-.36,1.52-.62,1.52-1.93q-.12-22.89,0-45.77c0-1.36-.1-1.5-1.24-1.68a36.47,36.47,0,0,1-15.89-6.63,1.83,1.83,0,0,0-.9-.45c-.13,0-.39.1-.9.61q-30.43,30.56-61,61c-.76.75-.8,1.08-.33,2.13a29.77,29.77,0,0,1,2.5,17.07,31.32,31.32,0,0,1-25.94,26.5,33.4,33.4,0,0,1-4.69.33,31.19,31.19,0,0,1-28.73-18.87,46.65,46.65,0,0,1-1.75-5.07c-.24-.76-.47-1.52-.71-2.28l-.06-8.94.44-1.85c.28-1.15.57-2.29.91-3.38a31,31,0,0,1,29.7-21.81,30.39,30.39,0,0,1,18.6,6.33,2.84,2.84,0,0,0,1.36.71c.3,0,.73-.3,1.37-.95q29.46-29.65,59.1-59.11c1.15-1.14,1.31-1.48.39-2.9a39.29,39.29,0,0,1,.06-45.66c.81-1.26.79-1.51-.18-2.48q-17.55-17.33-34.89-34.84c-.66-.68-.95-.73-1.14-.73a3.09,3.09,0,0,0-1.15.32,22,22,0,0,1-8.93,2,20.42,20.42,0,0,1-13.28-5.19A19.81,19.81,0,0,1,148,144.38a20,20,0,0,1,16.25-16.24,24.23,24.23,0,0,1,4.88-.53A19.88,19.88,0,0,1,185.29,136a20.12,20.12,0,0,1,2.46,21.34c-.5,1.14-.46,1.45.4,2.28q17.58,17.46,35,35.05c.42.43.74.65,1,.65a2.5,2.5,0,0,0,1.14-.5,39.48,39.48,0,0,1,46.11-.1,3.23,3.23,0,0,0,1.25.57c.24,0,.6-.23,1.05-.69q22.89-23,45.83-45.86c.77-.76.82-1.06.38-2.13A29.92,29.92,0,0,1,325.15,113a29.39,29.39,0,0,1,22.18-10.5,33.71,33.71,0,0,1,9.92,1.56,30.07,30.07,0,0,1,21.86,26.14,31.18,31.18,0,0,1-30.83,34.68,30.47,30.47,0,0,1-18.54-6.29,3.28,3.28,0,0,0-1.48-.79c-.3,0-.76.29-1.33.88-12.81,13-26.53,26.7-44.5,44.54-1,.95-1,1.15-.25,2.29a39.38,39.38,0,0,1,0,46.11c-.71,1.15-.69,1.31.3,2.29q17.41,17.25,34.67,34.67c.72.73,1.14.88,1.48.88a3.31,3.31,0,0,0,1.3-.38,20,20,0,0,1,8.32-1.78,21.08,21.08,0,0,1,19.62,13.24,21.6,21.6,0,0,1-.54,16.75,20.39,20.39,0,0,1-11.76,10.9,21.72,21.72,0,0,1-7.32,1.27,20.89,20.89,0,0,1-20-14.54,19.93,19.93,0,0,1,.87-15.16c.5-1.07.47-1.36-.3-2.12q-17.69-17.55-35.24-35.24c-.51-.52-.77-.62-.9-.62a2,2,0,0,0-.9.46,36.52,36.52,0,0,1-15.89,6.62c-1.15.19-1.27.35-1.27,1.68q.06,22.88,0,45.76c0,1.31.19,1.56,1.53,1.93a30.25,30.25,0,0,1,22.77,23.7,29.76,29.76,0,0,1-4.16,23,31.37,31.37,0,0,1-20,13.82l-.56.08a2.67,2.67,0,0,0-.48.08l-.35.43h-9.67Zm4.77-49.84a18.9,18.9,0,0,0-18.64,18.74,18.68,18.68,0,0,0,32,13.08,18.43,18.43,0,0,0,5.4-13.22,18.83,18.83,0,0,0-18.65-18.59l-.1-1.14Zm-114.76-9.93a18.36,18.36,0,0,0-13.11,5.5,18.69,18.69,0,0,0,13,31.89,19,19,0,0,0,18.9-18.59A18.38,18.38,0,0,0,147,325.27a18.81,18.81,0,0,0-13.33-5.72l-.11-1.14Zm194.59-20a8.88,8.88,0,0,0-8.71,8.71,8.57,8.57,0,0,0,2.5,6.15,8.77,8.77,0,0,0,6.27,2.61,8.59,8.59,0,0,0,8.62-8.57v-.17a8.74,8.74,0,0,0-8.66-8.73h0Zm-79.63-99.74A28.77,28.77,0,0,0,228,208.36a28.4,28.4,0,0,0-8.41,20.21,28.8,28.8,0,0,0,28.61,28.6h0a28.68,28.68,0,0,0,.46-57.35l-.21-1.14Zm-80-59.87a8.66,8.66,0,0,0-8.59,8.73v.05a8.56,8.56,0,0,0,8.45,8.66h.14a8.53,8.53,0,0,0,8.72-8.31v-.25a8.79,8.79,0,0,0-2.54-6.34,8.5,8.5,0,0,0-6.07-2.55v-1.15Zm179.64-24.84a18.63,18.63,0,0,0-13.3,5.58,18.39,18.39,0,0,0-5.43,13.13,19,19,0,0,0,18.69,18.68,18.82,18.82,0,0,0,18.71-18.66,18.61,18.61,0,0,0-18.64-18.73h0Z"/>
</g>
</svg>