<svg id="Layer_1" data-name="Layer 1" xmlns="http://www.w3.org/2000/svg" viewBox="0 0 481.89 481.86"><defs><style>.cls-1{fill:#fff;stroke:#d2d2d1;stroke-miterlimit:10;}.cls-2{fill:#233d7c;}</style></defs><title>Artboard 8</title><ellipse class="cls-1" cx="240.94" cy="240.93" rx="240.94" ry="240.93"/><g id="Group_4" data-name="Group 4"><path id="Path_1" data-name="Path 1" class="cls-2" d="M126.67,366.51a5.74,5.74,0,0,1-4.3-2.06,5.81,5.81,0,0,1,.14-8.22,6.34,6.34,0,0,1,.76-.61c5.12-5.14,10.29-10.3,15.51-15.25.93-.87,1.06-1.23,1.05-1.34s0-.39-.9-1.15c-4.06-3.7-7.89-7.55-11.44-11.44-.85-.92-1.26-1.06-1.43-1.06a4.49,4.49,0,0,0-1.63,1.14c-3.8,3.9-7.71,7.68-11.63,11.44l-3.44,3.31A7.83,7.83,0,0,1,104,343.8a5.55,5.55,0,0,1-4.11-1.89c-2.49-2.69-2.12-6,1-9.15q9.84-9.78,19.76-19.45a7.9,7.9,0,0,1,5.44-2.7,8.28,8.28,0,0,1,5.64,2.8l.49.48c2.22,2.2,3.65,3.62,4.38,3.62s2.21-1.48,4.24-3.52c.73-.74,1.6-1.46,2.48-2.19,1.82-1.53,3.7-3.09,3.89-4.58.11-.86-1.72-2.63-3.05-3.94a28.36,28.36,0,0,1-2.51-2.63,112.44,112.44,0,0,1-25.48-77.06,114.12,114.12,0,0,1,93.43-106.41,113.51,113.51,0,0,1,132.09,92c.17,1,.3,2,.41,3.06a6.07,6.07,0,0,1-4.82,7.11l-.1,0a6.23,6.23,0,0,1-1.06.09,6.15,6.15,0,0,1-6-5.16c-.31-1.42-.57-2.84-.84-4.27-.36-2-.73-3.89-1.21-5.8a101.94,101.94,0,0,0-85.26-75.91,100.84,100.84,0,0,0-113,82.12,102,102,0,0,0,78.6,117.85,96.76,96.76,0,0,0,21.18,2.29,102.71,102.71,0,0,0,99.69-82,7.06,7.06,0,0,1,4.23-6.28,6.77,6.77,0,0,1,2.18-.39,5.75,5.75,0,0,1,4.41,2.06,6.7,6.7,0,0,1,1.32,5.46,109.21,109.21,0,0,1-16.15,40.84,112.82,112.82,0,0,1-79.81,51.26,55.77,55.77,0,0,1-6.45.7c-1.27,0-2.53.05-3.8.05h-5.59a111.07,111.07,0,0,1-72.16-25.81c-.78-.64-1.14-.77-1.26-.77s-.34,0-1,.74c-2.86,3.1-6,6.21-9.51,9.52a2.09,2.09,0,0,0-.6.73h0a3.63,3.63,0,0,0,.65.71c2.06,1.85,4,3.88,5.87,5.83a7,7,0,0,1,1.23,9.86,6.91,6.91,0,0,1-1.1,1.13q-9.92,9.94-20,19.76A7.62,7.62,0,0,1,126.67,366.51Z"/><path id="Path_2" data-name="Path 2" class="cls-2" d="M231.84,322.54A93.56,93.56,0,1,1,316,192.65c.84,2,3.38,8-1.94,10.41a6.26,6.26,0,0,1-2.58.61c-3.49,0-5.43-3.63-6.59-6.35a81.81,81.81,0,0,0-75.52-49.79c-1.85,0-3.7.06-5.57.19a81.47,81.47,0,0,0-7.93,161.55,84.57,84.57,0,0,0,14,1.14,81.23,81.23,0,0,0,79.58-64.69c1.06-4.92,3.19-7.42,6.29-7.42a7.22,7.22,0,0,1,1.39.16c5.36,1.21,4.92,6.3,4.1,10a94.07,94.07,0,0,1-77.53,73.09,85.88,85.88,0,0,1-11.32,1Z"/><path id="Path_3" data-name="Path 3" class="cls-2" d="M287.78,275a9.63,9.63,0,0,1-9.15-7.27c-6.38-18.22-26.69-76.45-26.69-76.45l-.05-.16c-.1.25-.18.5-.29.76-4.75,11-26.6,61.85-26.6,61.85a10.14,10.14,0,0,1-9.16,7.08,10,10,0,0,1-3.58-.67,10.14,10.14,0,0,1-5.72-5.8q-6.79-14.88-13.67-29.66c-.12-.26-.23-.53-.33-.8s-.25-.61-.38-.88l-.77,1.22c-1.31,2.1-2.61,4.16-3.88,6.25a15,15,0,0,1-13.6,7.83H162.35c-4.35,0-7-2.22-7.06-5.85a5.57,5.57,0,0,1,1.5-4.11,7.76,7.76,0,0,1,5.72-2s4.44-.07,5.45-.07c1.22,0,2.45,0,3.67.12h.78a5.67,5.67,0,0,0,5.55-3.43c1.14-2.18,2.46-4.26,3.74-6.29.74-1.14,1.48-2.28,2.17-3.43a9.51,9.51,0,0,1,8.48-5.17H193a9.33,9.33,0,0,1,8.17,6.09l14.3,31s.23-.66.33-.91q13.64-31.68,27.21-63.41a9.48,9.48,0,0,1,8.38-6.75h.77c4.57,0,7.48,2.43,9.37,7.87l26.15,75.22c.11.31.34,1.15.36,1.15l14.53-36.62c1.38-3.43,2.77-6.94,4.12-10.43a8.86,8.86,0,0,1,8.41-6.29h0a9.06,9.06,0,0,1,8.68,5.91c.63,1.39,1.29,2.76,1.95,4.12,1,2.15,2.07,4.3,3,6.5a5,5,0,0,0,5.43,3.43q15.76-.08,31.43-.06h30.53a7.21,7.21,0,0,1,5.83,1.88,5.85,5.85,0,0,1,1.15,6.35,5.73,5.73,0,0,1-5.64,3.73H353.32q-9.84,0-19.67.07h0a15.52,15.52,0,0,1-15.61-10c-.73-1.68-1.53-3.33-2.4-5.14h0l-14.2,35.69c-1.4,3.56-2.8,7.1-4.24,10.65a9.31,9.31,0,0,1-9.1,6.93Z"/></g></svg>