<svg id="Layer_1" data-name="Layer 1" xmlns="http://www.w3.org/2000/svg" viewBox="0 0 481.89 481.86"><defs><style>.cls-1{fill:#3e8bae;}</style></defs><title>Artboard 8 copy 6</title><g id="Group_32" data-name="Group 32"><path id="Path_20" data-name="Path 20" class="cls-1" d="M240.73,409H103.45A28.84,28.84,0,0,1,72.82,382.1a31.4,31.4,0,0,1,0-3.63V241.19a17.4,17.4,0,0,1,34.34-4.26,22.73,22.73,0,0,1,.4,5.76V370.18c0,3.25.73,4.16,4.09,4.16q129.32-.13,258.62,0c3.34,0,4.11-.89,4.11-4.16q-.17-64.47,0-129a17.37,17.37,0,0,1,34.28-4.36,19.66,19.66,0,0,1,.46,4.71V379.94a28.69,28.69,0,0,1-28.25,29.11H380Q310.29,409.07,240.73,409Z"/><path id="Path_21" data-name="Path 21" class="cls-1" d="M223.52,132.57c-1.57,1.57-2.56,2.4-3.47,3.33-10.69,10.66-21.32,21.38-32,32a17.44,17.44,0,1,1-25-24.32c4-4.16,8.17-8.22,12.27-12.32l51.77-51.77a17.66,17.66,0,0,1,24.8-2.91,18,18,0,0,1,2.8,2.78q31.79,31.74,63.53,63.53a16.94,16.94,0,0,1,4.7,18.83,16.65,16.65,0,0,1-14.82,11.53,17.36,17.36,0,0,1-14.62-5.73q-15.87-15.91-31.77-31.75a6.94,6.94,0,0,0-3.35-2.55v4.38q0,92.19,0,184.38a17.09,17.09,0,0,1-13,17A17.35,17.35,0,0,1,226,331.16a19.64,19.64,0,0,1-2.44-10.4V137.83Z"/></g></svg>