<svg id="Layer_1" data-name="Layer 1" xmlns="http://www.w3.org/2000/svg" viewBox="0 0 481.89 481.86"><defs><style>.cls-1{fill:#fff;stroke:#d2d2d1;stroke-miterlimit:10;}.cls-2{fill:#233d7c;}</style></defs><title>Artboard 8 copy 2</title><ellipse class="cls-1" cx="240.94" cy="240.93" rx="240.94" ry="240.93"/><g id="Group_9" data-name="Group 9"><path id="Path_17" data-name="Path 17" class="cls-2" d="M239,387.36a8.66,8.66,0,0,1-5.35-9.44c.19-5,.15-10,.12-14.88v-9a4,4,0,0,0-3.41-4.54,4.34,4.34,0,0,0-.72,0,104.62,104.62,0,0,1-20-3.94,109.41,109.41,0,0,1-77.41-93.47,4,4,0,0,0-3.84-4.13,4.28,4.28,0,0,0-.62,0H113c-3,0-6.08,0-9.16.15h-.7a8.43,8.43,0,0,1-8.74-5.35V239a8.43,8.43,0,0,1,8.73-5.35h.71c2.94.11,5.89.15,8.85.15h14.44a4.42,4.42,0,0,0,5.1-3.6,4.47,4.47,0,0,0,.07-.82,109.29,109.29,0,0,1,86.78-95.48,65.49,65.49,0,0,1,10-1.54,4.48,4.48,0,0,0,4.77-4.18,4.27,4.27,0,0,0-.08-1.18c-.07-7.56,0-15.11,0-22.67v-2a7.17,7.17,0,0,1,6.37-7.88c.25,0,.5,0,.75,0a7.14,7.14,0,0,1,7.21,7.07,6.79,6.79,0,0,1,0,.78v25.23a4.16,4.16,0,0,0,3.48,4.74,4.47,4.47,0,0,0,.73,0,109.26,109.26,0,0,1,95.66,86.64,88.25,88.25,0,0,1,1.63,10.61,4.11,4.11,0,0,0,3.93,4.29,4.83,4.83,0,0,0,.76,0h26.2a7.11,7.11,0,0,1,1.67,14,11.92,11.92,0,0,1-2.86.22H354.56a4.29,4.29,0,0,0-4.94,3.52,4.87,4.87,0,0,0-.06.76,109.33,109.33,0,0,1-86.73,95.6,76.5,76.5,0,0,1-10.3,1.58,4.4,4.4,0,0,0-4.59,4.21,4.67,4.67,0,0,0,.07,1v8.86c0,4.73-.07,9.6.11,14.42a8.64,8.64,0,0,1-5.34,9.44Zm1.68-241.43A94,94,0,0,0,146,239.2c0,.42,0,.84,0,1.27a94.4,94.4,0,0,0,94.5,95.22h.55a94.88,94.88,0,0,0,.66-189.76h-1Z"/><path id="Path_18" data-name="Path 18" class="cls-2" d="M240.82,294.46a48,48,0,1,1,.08,0Zm.06-92.87a39.8,39.8,0,0,0-39.25,39.29,39.15,39.15,0,0,0,67,27.64,38.86,38.86,0,0,0,11.55-27.69,39.33,39.33,0,0,0-39.25-39.26Z"/></g></svg>