<svg id="Layer_1" data-name="Layer 1" xmlns="http://www.w3.org/2000/svg" xmlns:xlink="http://www.w3.org/1999/xlink" viewBox="0 0 841.89 595.28"><defs><style>.cls-1{fill:none;}.cls-2{fill:#fff;}.cls-3{fill:#00aeef;}.cls-4{clip-path:url(#clip-path);}.cls-5{fill:#2b3990;}.cls-6{fill:#2a3990;}.cls-7{fill:#2a3a90;}.cls-8{fill:#293a91;}.cls-9{fill:#283b91;}.cls-10{fill:#283c91;}.cls-11{fill:#273c92;}.cls-12{fill:#273d92;}.cls-13{fill:#263d92;}.cls-14{fill:#263e93;}.cls-15{fill:#253e93;}.cls-16{fill:#243f93;}.cls-17{fill:#244094;}.cls-18{fill:#234094;}.cls-19{fill:#234194;}.cls-20{fill:#224194;}.cls-21{fill:#214295;}.cls-22{fill:#204295;}.cls-23{fill:#204395;}.cls-24{fill:#1f4396;}.cls-25{fill:#1e4496;}.cls-26{fill:#1e4596;}.cls-27{fill:#1d4597;}.cls-28{fill:#1c4697;}.cls-29{fill:#1b4697;}.cls-30{fill:#1a4798;}.cls-31{fill:#194798;}.cls-32{fill:#184898;}.cls-33{fill:#174899;}.cls-34{fill:#164999;}.cls-35{fill:#154a99;}.cls-36{fill:#144a9a;}.cls-37{fill:#134b9a;}.cls-38{fill:#124b9a;}.cls-39{fill:#104c9b;}.cls-40{fill:#0f4c9b;}.cls-41{fill:#0d4d9b;}.cls-42{fill:#0b4d9c;}.cls-43{fill:#094e9c;}.cls-44{fill:#074e9c;}.cls-45{fill:#054f9d;}.cls-46{fill:#034f9d;}.cls-47{fill:#01509d;}.cls-48{fill:#00509e;}.cls-49{fill:#00519e;}.cls-50{fill:#00529f;}.cls-51{fill:#00539f;}.cls-52{fill:#0053a0;}.cls-53{fill:#0054a0;}.cls-54{fill:#0055a1;}.cls-55{fill:#0056a2;}.cls-56{fill:#0057a2;}.cls-57{fill:#0057a3;}.cls-58{fill:#0058a3;}.cls-59{fill:#0059a4;}.cls-60{fill:#005aa4;}.cls-61{fill:#005aa5;}.cls-62{fill:#005ba5;}.cls-63{fill:#005ca6;}.cls-64{fill:#005da6;}.cls-65{fill:#005da7;}.cls-66{fill:#005ea7;}.cls-67{fill:#005fa8;}.cls-68{fill:#0060a9;}.cls-69{fill:#0061aa;}.cls-70{fill:#0062aa;}.cls-71{fill:#0062ab;}.cls-72{fill:#0063ab;}.cls-73{fill:#0064ac;}.cls-74{fill:#0065ac;}.cls-75{fill:#0065ad;}.cls-76{fill:#0066ad;}.cls-77{fill:#0066ae;}.cls-78{fill:#0067ae;}.cls-79{fill:#0068af;}.cls-80{fill:#0069b0;}.cls-81{fill:#006ab1;}.cls-82{fill:#006bb1;}.cls-83{fill:#006bb2;}.cls-84{fill:#006cb2;}.cls-85{fill:#006db3;}.cls-86{fill:#006db4;}.cls-87{fill:#006eb4;}.cls-88{fill:#006fb5;}.cls-89{fill:#0070b5;}.cls-90{fill:#0070b6;}.cls-91{fill:#0071b6;}.cls-92{fill:#0071b7;}.cls-93{fill:#0072b7;}.cls-94{fill:#0072b8;}.cls-95{fill:#0073b8;}.cls-96{fill:#0074b9;}.cls-97{fill:#0075ba;}.cls-98{fill:#0076ba;}.cls-99{fill:#0076bb;}.cls-100{fill:#07b;}.cls-101{fill:#0077bc;}.cls-102{fill:#0078bc;}.cls-103{fill:#0078bd;}.cls-104{fill:#0079bd;}.cls-105{fill:#007abe;}.cls-106{fill:#007bbf;}.cls-107{fill:#007cc0;}.cls-108{fill:#007dc1;}.cls-109{fill:#007ec2;}.cls-110{fill:#007fc2;}.cls-111{fill:#007fc3;}.cls-112{fill:#0080c3;}.cls-113{fill:#0080c4;}.cls-114{fill:#0081c4;}.cls-115{fill:#0082c5;}.cls-116{fill:#0083c6;}.cls-117{fill:#0083c7;}.cls-118{fill:#0084c7;}.cls-119{fill:#0085c8;}.cls-120{fill:#0086c9;}.cls-121{fill:#0087ca;}.cls-122{fill:#0088ca;}.cls-123{fill:#0088cb;}.cls-124{fill:#0089cb;}.cls-125{fill:#0089cc;}.cls-126{fill:#008acc;}.cls-127{fill:#008acd;}.cls-128{fill:#008bcd;}.cls-129{fill:#008cce;}.cls-130{fill:#008ccf;}.cls-131{fill:#008dcf;}.cls-132{fill:#008dd0;}.cls-133{fill:#008ed0;}.cls-134{fill:#008ed1;}.cls-135{fill:#008fd1;}.cls-136{fill:#0090d2;}.cls-137{fill:#0091d3;}.cls-138{fill:#0092d4;}.cls-139{fill:#0093d5;}.cls-140{fill:#0094d6;}.cls-141{fill:#0095d7;}.cls-142{fill:#0096d8;}.cls-143{fill:#0097d8;}.cls-144{fill:#0097d9;}.cls-145{fill:#0098d9;}.cls-146{fill:#0098da;}.cls-147{fill:#0099db;}.cls-148{fill:#009adb;}.cls-149{fill:#009adc;}.cls-150{fill:#009bdc;}.cls-151{fill:#009bdd;}.cls-152{fill:#009cdd;}.cls-153{fill:#009cde;}.cls-154{fill:#009dde;}.cls-155{fill:#009ddf;}.cls-156{fill:#009ee0;}.cls-157{fill:#009fe0;}.cls-158{fill:#009fe1;}.cls-159{fill:#00a0e1;}.cls-160{fill:#00a0e2;}.cls-161{fill:#00a1e2;}.cls-162{fill:#00a1e3;}.cls-163{fill:#00a2e3;}.cls-164{fill:#00a2e4;}.cls-165{fill:#00a3e4;}.cls-166{fill:#00a3e5;}.cls-167{fill:#00a4e5;}.cls-168{fill:#00a4e6;}.cls-169{fill:#00a5e6;}.cls-170{fill:#00a5e7;}.cls-171{fill:#00a6e7;}.cls-172{fill:#00a6e8;}.cls-173{fill:#00a7e8;}.cls-174{fill:#00a7e9;}.cls-175{fill:#00a8e9;}.cls-176{fill:#00a8ea;}.cls-177{fill:#00a9eb;}.cls-178{fill:#00aaec;}.cls-179{fill:#00abec;}.cls-180{fill:#00abed;}.cls-181{fill:#00acee;}.cls-182{fill:#00adee;}.cls-183{clip-path:url(#clip-path-2);}.cls-184{clip-path:url(#clip-path-3);}</style><clipPath id="clip-path"><path class="cls-1" d="M125.32,301.54c-2.3-2.39-4.69-4.72-7.23-7.08,2-16.47-41.59-11.67-64.23-36-26.95-29-34-86.12-34-86.12,41,4.2,75.88,20.1,103.71,49.59Z"/></clipPath><clipPath id="clip-path-2"><path class="cls-1" d="M164.06,298.44l-21.42,26.15,1.19-80.24c1.35,0,2.61-1.26,4.14-3.49s3.22-4.57,4.94-6.78Z"/></clipPath><clipPath id="clip-path-3"><path class="cls-1" d="M247.85,275c.71,11.86,1,23.54-.67,35.43-.68,4.84-1.5,9.62-2.51,14.37l-40.92,20.41c-10.57-6-20-13.54-27.25-24.39a57.57,57.57,0,0,1-8-19.22c-.31-1.44-.13-3.61-2.12-4,0,0,23.2-7.74,39.8-13.8,27.55-10.07,42.58-25.4,42.58-25.4C244.11,263.94,247.55,269.64,247.85,275Z"/></clipPath></defs><title>Expanded_1</title><path class="cls-2" d="M44.11,444.49l9.23-47.17,15.06,34.1L84,397.32l8.3,47.17H85.5L81.27,418l-13,28.5L55.67,418,51,444.49Z"/><path class="cls-2" d="M127.36,433.83H108.58l-4.89,10.66H96.56l21.7-46.63,20.94,46.63H132Zm-2.7-6.22-6.51-14.92-6.82,14.92Z"/><path class="cls-2" d="M153.86,421.56l-12.07-20.94h7.53l8.38,14.86,8.81-14.86h7.58l-12.64,20.94,13.27,22.93H167.3l-9.71-16.79-10,16.79h-7.5Z"/><path class="cls-2" d="M179.09,444.49l9.24-47.17,15,34.1,15.6-34.1,8.3,47.17h-6.79L216.26,418l-13,28.5L190.66,418l-4.72,26.51Z"/><path class="cls-2" d="M234.38,422.35a21.53,21.53,0,0,1,6.79-15.91,22.36,22.36,0,0,1,16.25-6.64,22.93,22.93,0,0,1,22.82,22.81,21.58,21.58,0,0,1-6.76,16.05,23.18,23.18,0,0,1-31.65.74Q234.38,432.89,234.38,422.35Zm6.68.09a15.84,15.84,0,0,0,4.89,12,15.63,15.63,0,0,0,11.22,4.69,15.81,15.81,0,0,0,11.65-4.77,17,17,0,0,0,.05-23.53,16.36,16.36,0,0,0-23.09,0A15.82,15.82,0,0,0,241.06,422.44Z"/><path class="cls-2" d="M321,403v7.84c-3.83-3.2-7.78-4.8-11.88-4.8a15.13,15.13,0,0,0-11.39,4.86,16.37,16.37,0,0,0-4.66,11.82,16,16,0,0,0,4.66,11.64,15.37,15.37,0,0,0,11.42,4.75,14,14,0,0,0,5.94-1.14,17.66,17.66,0,0,0,2.83-1.53,35.21,35.21,0,0,0,3.08-2.33v8a23.93,23.93,0,0,1-11.93,3.21A22,22,0,0,1,293,438.72a21.74,21.74,0,0,1-6.62-16,22.49,22.49,0,0,1,5.54-14.94,22,22,0,0,1,17.64-8A22.38,22.38,0,0,1,321,403Z"/><path class="cls-2" d="M345.76,444.49,355,397.32l15.06,34.1,15.6-34.1,8.29,47.17h-6.79L382.92,418l-13,28.5L357.32,418l-4.72,26.51Z"/><path class="cls-2" d="M401,422.35a21.5,21.5,0,0,1,6.8-15.91,22.33,22.33,0,0,1,16.25-6.64,22.93,22.93,0,0,1,22.81,22.81,21.54,21.54,0,0,1-6.76,16.05,23.18,23.18,0,0,1-31.65.74Q401,432.89,401,422.35Zm6.68.09a15.84,15.84,0,0,0,4.89,12,16.19,16.19,0,0,0,22.87-.08,17,17,0,0,0,.06-23.53,16.37,16.37,0,0,0-23.1,0A15.82,15.82,0,0,0,407.72,422.44Z"/><path class="cls-2" d="M465.77,406.84v37.65h-6.62V406.84H449.06v-6.22h26.76v6.22Z"/><path class="cls-2" d="M478.15,422.35a21.53,21.53,0,0,1,6.79-15.91,22.37,22.37,0,0,1,16.26-6.64A22.93,22.93,0,0,1,524,422.61a21.54,21.54,0,0,1-6.76,16.05,23.18,23.18,0,0,1-31.65.74Q478.16,432.89,478.15,422.35Zm6.68.09a15.84,15.84,0,0,0,4.89,12,16.19,16.19,0,0,0,22.87-.08,17,17,0,0,0,.06-23.53,16.37,16.37,0,0,0-23.1,0A15.82,15.82,0,0,0,484.83,422.44Z"/><path class="cls-2" d="M547.19,425.79l13.59,18.7h-8.1l-12.53-18H539v18h-6.62V400.62h7.75q8.7,0,12.56,3.27a12,12,0,0,1,4.26,9.6,12.44,12.44,0,0,1-2.67,8A11.85,11.85,0,0,1,547.19,425.79Zm-8.23-5h2.1q9.41,0,9.4-7.18,0-6.74-9.15-6.74H539Z"/><path class="cls-2" d="M587.48,400.62l11.42,29.32,11.94-31.45,11.42,31.45,12.13-29.32h7.19L622,447.27,610.7,416.19,598.93,447.3l-18.64-46.68Z"/><path class="cls-2" d="M642.86,422.35a21.49,21.49,0,0,1,6.79-15.91,22.33,22.33,0,0,1,16.25-6.64,22.93,22.93,0,0,1,22.81,22.81A21.54,21.54,0,0,1,682,438.66a23.18,23.18,0,0,1-31.65.74Q642.86,432.89,642.86,422.35Zm6.67.09a15.84,15.84,0,0,0,4.89,12,16.19,16.19,0,0,0,22.87-.08,17,17,0,0,0,.06-23.53,16.37,16.37,0,0,0-23.1,0A15.86,15.86,0,0,0,649.53,422.44Z"/><path class="cls-2" d="M711.9,425.79l13.58,18.7h-8.1l-12.53-18h-1.19v18H697V400.62h7.75q8.7,0,12.56,3.27a12,12,0,0,1,4.26,9.6,12.44,12.44,0,0,1-2.67,8A11.86,11.86,0,0,1,711.9,425.79Zm-8.24-5h2.1q9.4,0,9.4-7.18,0-6.74-9.14-6.74h-2.36Z"/><path class="cls-2" d="M738.69,418.12l17.07-17.5h8.84l-19.83,19.86,19.94,24h-8.86L740.05,425l-1.36,1.36v18.16h-6.62V400.62h6.62Z"/><path class="cls-2" d="M793.81,407.15l-5.37,3.19a9.22,9.22,0,0,0-2.87-3.41,6.68,6.68,0,0,0-3.67-.91,6.77,6.77,0,0,0-4.57,1.56,4.84,4.84,0,0,0-1.82,3.86c0,2.15,1.59,3.87,4.77,5.18l4.38,1.79a18.54,18.54,0,0,1,7.81,5.27,11.84,11.84,0,0,1,2.47,7.62,13.42,13.42,0,0,1-4,10,13.85,13.85,0,0,1-10.09,4,13.47,13.47,0,0,1-9.43-3.38,15.52,15.52,0,0,1-4.57-9.52l6.7-1.47c.3,2.57.84,4.35,1.59,5.34a7.56,7.56,0,0,0,11.11.76,7.14,7.14,0,0,0,2-5.25,7.27,7.27,0,0,0-.36-2.34,5.78,5.78,0,0,0-1.11-2,9,9,0,0,0-1.94-1.67,18.64,18.64,0,0,0-2.84-1.49l-4.24-1.76q-9-3.81-9-11.14a10.57,10.57,0,0,1,3.78-8.27,13.62,13.62,0,0,1,9.4-3.35Q789.55,399.77,793.81,407.15Z"/><path class="cls-3" d="M248.74,258.42c-4.63,5.52-1.19,11.22-.89,16.61.71,11.86,1,23.54-.67,35.43-.68,4.84-1.5,9.62-2.51,14.37a190.69,190.69,0,0,1-7.18,25.5c-2.26,6.34-5.61,7.6-11.52,5.24a182.39,182.39,0,0,1-22.22-10.33c-10.57-6-20-13.54-27.25-24.39a57.57,57.57,0,0,1-8-19.22c-.31-1.44-.13-3.61-2.12-4a2.43,2.43,0,0,0-2.3.82,18.55,18.55,0,0,0-1.53,1.81c-6.5,7.91-13,15.85-19.89,24.34a118,118,0,0,0-17.32-23c-2.3-2.39-4.69-4.72-7.23-7.08-1.56,10.88-3.31,20.38-9,28.69C96.36,342,78.06,351.92,56.4,356.86c-4.63,1-5.76-1.84-7-4.87-5.49-13.46-7.76-27.68-9.26-42S39.2,281,39.17,266.6a15,15,0,0,0-3-9C19.8,233.26,12.69,206.29,14.07,177c.22-4.42,2.3-5,5.83-4.66,41,4.2,75.88,20.1,103.71,49.59,2.48,2.57,4.87,5.27,7.2,8.06,3.13,3.74,6.5,7.35,9.25,11.34,1.48,2.08,2.64,3,3.77,3.06,1.35,0,2.61-1.26,4.14-3.49s3.22-4.57,4.94-6.78c17.47-23.26,39.44-41.09,67.15-51.82,14.86-5.73,30.61-7.6,46.24-10,3.47-.52,5,.73,5.09,4.53C271.88,206.29,268.57,234.67,248.74,258.42Z"/><g class="cls-4"><polygon class="cls-5" points="19.9 284.2 26.25 301.54 19.9 301.54 19.9 284.2"/><polygon class="cls-5" points="19.9 283.16 26.64 301.54 26.25 301.54 19.9 284.2 19.9 283.16"/><polygon class="cls-6" points="19.9 282.12 27.02 301.54 26.64 301.54 19.9 283.16 19.9 282.12"/><polygon class="cls-7" points="19.9 281.08 27.4 301.54 27.02 301.54 19.9 282.12 19.9 281.08"/><polygon class="cls-8" points="19.9 280.05 27.78 301.54 27.4 301.54 19.9 281.08 19.9 280.05"/><polygon class="cls-9" points="19.9 279.01 28.16 301.54 27.78 301.54 19.9 280.05 19.9 279.01"/><polygon class="cls-10" points="19.9 277.97 28.54 301.54 28.16 301.54 19.9 279.01 19.9 277.97"/><polygon class="cls-11" points="19.9 276.93 28.92 301.54 28.54 301.54 19.9 277.97 19.9 276.93"/><polygon class="cls-12" points="19.9 275.9 29.3 301.54 28.92 301.54 19.9 276.93 19.9 275.9"/><polygon class="cls-13" points="19.9 274.86 29.68 301.54 29.3 301.54 19.9 275.9 19.9 274.86"/><polygon class="cls-14" points="19.9 273.82 30.06 301.54 29.68 301.54 19.9 274.86 19.9 273.82"/><polygon class="cls-15" points="19.9 272.78 30.44 301.54 30.06 301.54 19.9 273.82 19.9 272.78"/><polygon class="cls-16" points="19.9 271.75 30.82 301.54 30.44 301.54 19.9 272.78 19.9 271.75"/><polygon class="cls-17" points="19.9 270.71 31.2 301.54 30.82 301.54 19.9 271.75 19.9 270.71"/><polygon class="cls-18" points="19.9 269.67 31.58 301.54 31.2 301.54 19.9 270.71 19.9 269.67"/><polygon class="cls-19" points="19.9 268.63 31.96 301.54 31.58 301.54 19.9 269.67 19.9 268.63"/><polygon class="cls-20" points="19.9 267.59 32.34 301.54 31.96 301.54 19.9 268.63 19.9 267.59"/><polygon class="cls-21" points="19.9 266.56 32.72 301.54 32.34 301.54 19.9 267.59 19.9 266.56"/><polygon class="cls-22" points="19.9 265.52 33.1 301.54 32.72 301.54 19.9 266.56 19.9 265.52"/><polygon class="cls-23" points="19.9 264.48 33.48 301.54 33.1 301.54 19.9 265.52 19.9 264.48"/><polygon class="cls-24" points="19.9 263.44 33.87 301.54 33.48 301.54 19.9 264.48 19.9 263.44"/><polygon class="cls-25" points="19.9 262.4 34.24 301.54 33.87 301.54 19.9 263.44 19.9 262.4"/><polygon class="cls-26" points="19.9 261.37 34.63 301.54 34.24 301.54 19.9 262.4 19.9 261.37"/><polygon class="cls-27" points="19.9 260.33 35.01 301.54 34.63 301.54 19.9 261.37 19.9 260.33"/><polygon class="cls-28" points="19.9 259.29 35.39 301.54 35.01 301.54 19.9 260.33 19.9 259.29"/><polygon class="cls-29" points="19.9 258.25 35.77 301.54 35.39 301.54 19.9 259.29 19.9 258.25"/><polygon class="cls-30" points="19.9 257.22 36.15 301.54 35.77 301.54 19.9 258.25 19.9 257.22"/><polygon class="cls-31" points="19.9 256.18 36.53 301.54 36.15 301.54 19.9 257.22 19.9 256.18"/><polygon class="cls-32" points="19.9 255.14 36.91 301.54 36.53 301.54 19.9 256.18 19.9 255.14"/><polygon class="cls-33" points="19.9 254.1 37.29 301.54 36.91 301.54 19.9 255.14 19.9 254.1"/><polygon class="cls-34" points="19.9 253.07 37.67 301.54 37.29 301.54 19.9 254.1 19.9 253.07"/><polygon class="cls-35" points="19.9 252.03 38.05 301.54 37.67 301.54 19.9 253.07 19.9 252.03"/><polygon class="cls-36" points="19.9 250.99 38.43 301.54 38.05 301.54 19.9 252.03 19.9 250.99"/><polygon class="cls-37" points="19.9 249.95 38.81 301.54 38.43 301.54 19.9 250.99 19.9 249.95"/><polygon class="cls-38" points="19.9 248.91 39.19 301.54 38.81 301.54 19.9 249.95 19.9 248.91"/><polygon class="cls-39" points="19.9 247.88 39.57 301.54 39.19 301.54 19.9 248.91 19.9 247.88"/><polygon class="cls-40" points="19.9 246.84 39.95 301.54 39.57 301.54 19.9 247.88 19.9 246.84"/><polygon class="cls-41" points="19.9 245.8 40.33 301.54 39.95 301.54 19.9 246.84 19.9 245.8"/><polygon class="cls-42" points="19.9 244.76 40.71 301.54 40.33 301.54 19.9 245.8 19.9 244.76"/><polygon class="cls-43" points="19.9 243.73 41.09 301.54 40.71 301.54 19.9 244.76 19.9 243.73"/><polygon class="cls-44" points="19.9 242.69 41.47 301.54 41.09 301.54 19.9 243.73 19.9 242.69"/><polygon class="cls-45" points="19.9 241.65 41.85 301.54 41.47 301.54 19.9 242.69 19.9 241.65"/><polygon class="cls-46" points="19.9 240.61 42.23 301.54 41.85 301.54 19.9 241.65 19.9 240.61"/><polygon class="cls-47" points="19.9 239.58 42.62 301.54 42.23 301.54 19.9 240.61 19.9 239.58"/><polygon class="cls-48" points="19.9 238.54 43 301.54 42.62 301.54 19.9 239.58 19.9 238.54"/><polygon class="cls-49" points="19.9 237.5 43.38 301.54 43 301.54 19.9 238.54 19.9 237.5"/><polygon class="cls-49" points="19.9 236.46 43.76 301.54 43.38 301.54 19.9 237.5 19.9 236.46"/><polygon class="cls-50" points="19.9 235.43 44.14 301.54 43.76 301.54 19.9 236.46 19.9 235.43"/><polygon class="cls-50" points="19.9 234.39 44.52 301.54 44.14 301.54 19.9 235.43 19.9 234.39"/><polygon class="cls-51" points="19.9 233.35 44.9 301.54 44.52 301.54 19.9 234.39 19.9 233.35"/><polygon class="cls-52" points="19.9 232.31 45.28 301.54 44.9 301.54 19.9 233.35 19.9 232.31"/><polygon class="cls-53" points="19.9 231.27 45.66 301.54 45.28 301.54 19.9 232.31 19.9 231.27"/><polygon class="cls-53" points="19.9 230.24 46.04 301.54 45.66 301.54 19.9 231.27 19.9 230.24"/><polygon class="cls-54" points="19.9 229.2 46.42 301.54 46.04 301.54 19.9 230.24 19.9 229.2"/><polygon class="cls-54" points="19.9 228.16 46.8 301.54 46.42 301.54 19.9 229.2 19.9 228.16"/><polygon class="cls-55" points="19.9 227.12 47.18 301.54 46.8 301.54 19.9 228.16 19.9 227.12"/><polygon class="cls-55" points="19.9 226.09 47.56 301.54 47.18 301.54 19.9 227.12 19.9 226.09"/><polygon class="cls-56" points="19.9 225.05 47.94 301.54 47.56 301.54 19.9 226.09 19.9 225.05"/><polygon class="cls-57" points="19.9 224.01 48.32 301.54 47.94 301.54 19.9 225.05 19.9 224.01"/><polygon class="cls-58" points="19.9 222.97 48.7 301.54 48.32 301.54 19.9 224.01 19.9 222.97"/><polygon class="cls-58" points="19.9 221.94 49.08 301.54 48.7 301.54 19.9 222.97 19.9 221.94"/><polygon class="cls-59" points="19.9 220.9 49.47 301.54 49.08 301.54 19.9 221.94 19.9 220.9"/><polygon class="cls-59" points="19.9 219.86 49.84 301.54 49.47 301.54 19.9 220.9 19.9 219.86"/><polygon class="cls-60" points="19.9 218.82 50.23 301.54 49.84 301.54 19.9 219.86 19.9 218.82"/><polygon class="cls-61" points="19.9 217.78 50.61 301.54 50.23 301.54 19.9 218.82 19.9 217.78"/><polygon class="cls-62" points="19.9 216.75 50.99 301.54 50.61 301.54 19.9 217.78 19.9 216.75"/><polygon class="cls-62" points="19.9 215.71 51.37 301.54 50.99 301.54 19.9 216.75 19.9 215.71"/><polygon class="cls-63" points="19.9 214.67 51.75 301.54 51.37 301.54 19.9 215.71 19.9 214.67"/><polygon class="cls-63" points="19.9 213.63 52.13 301.54 51.75 301.54 19.9 214.67 19.9 213.63"/><polygon class="cls-64" points="19.9 212.59 52.51 301.54 52.13 301.54 19.9 213.63 19.9 212.59"/><polygon class="cls-65" points="19.9 211.56 52.89 301.54 52.51 301.54 19.9 212.59 19.9 211.56"/><polygon class="cls-66" points="19.9 210.52 53.27 301.54 52.89 301.54 19.9 211.56 19.9 210.52"/><polygon class="cls-66" points="19.9 209.48 53.65 301.54 53.27 301.54 19.9 210.52 19.9 209.48"/><polygon class="cls-67" points="19.9 208.44 54.03 301.54 53.65 301.54 19.9 209.48 19.9 208.44"/><polygon class="cls-67" points="19.9 207.41 54.41 301.54 54.03 301.54 19.9 208.44 19.9 207.41"/><polygon class="cls-68" points="19.9 206.37 54.79 301.54 54.41 301.54 19.9 207.41 19.9 206.37"/><polygon class="cls-68" points="19.9 205.33 55.17 301.54 54.79 301.54 19.9 206.37 19.9 205.33"/><polygon class="cls-68" points="19.9 204.29 55.55 301.54 55.17 301.54 19.9 205.33 19.9 204.29"/><polygon class="cls-69" points="19.9 203.26 55.93 301.54 55.55 301.54 19.9 204.29 19.9 203.26"/><polygon class="cls-69" points="19.9 202.22 56.31 301.54 55.93 301.54 19.9 203.26 19.9 202.22"/><polygon class="cls-70" points="19.9 201.18 56.69 301.54 56.31 301.54 19.9 202.22 19.9 201.18"/><polygon class="cls-71" points="19.9 200.14 57.08 301.54 56.69 301.54 19.9 201.18 19.9 200.14"/><polygon class="cls-72" points="19.9 199.1 57.45 301.54 57.08 301.54 19.9 200.14 19.9 199.1"/><polygon class="cls-72" points="19.9 198.07 57.84 301.54 57.45 301.54 19.9 199.1 19.9 198.07"/><polygon class="cls-73" points="19.9 197.03 58.22 301.54 57.84 301.54 19.9 198.07 19.9 197.03"/><polygon class="cls-73" points="19.9 195.99 58.6 301.54 58.22 301.54 19.9 197.03 19.9 195.99"/><polygon class="cls-74" points="19.9 194.95 58.98 301.54 58.6 301.54 19.9 195.99 19.9 194.95"/><polygon class="cls-75" points="19.9 193.92 59.36 301.54 58.98 301.54 19.9 194.95 19.9 193.92"/><polygon class="cls-75" points="19.9 192.88 59.74 301.54 59.36 301.54 19.9 193.92 19.9 192.88"/><polygon class="cls-76" points="19.9 191.84 60.12 301.54 59.74 301.54 19.9 192.88 19.9 191.84"/><polygon class="cls-77" points="19.9 190.8 60.5 301.54 60.12 301.54 19.9 191.84 19.9 190.8"/><polygon class="cls-78" points="19.9 189.77 60.88 301.54 60.5 301.54 19.9 190.8 19.9 189.77"/><polygon class="cls-78" points="19.9 188.73 61.26 301.54 60.88 301.54 19.9 189.77 19.9 188.73"/><polygon class="cls-79" points="19.9 187.69 61.64 301.54 61.26 301.54 19.9 188.73 19.9 187.69"/><polygon class="cls-79" points="19.9 186.65 62.02 301.54 61.64 301.54 19.9 187.69 19.9 186.65"/><polygon class="cls-80" points="19.9 185.62 62.4 301.54 62.02 301.54 19.9 186.65 19.9 185.62"/><polygon class="cls-80" points="19.9 184.58 62.78 301.54 62.4 301.54 19.9 185.62 19.9 184.58"/><polygon class="cls-80" points="19.9 183.54 63.16 301.54 62.78 301.54 19.9 184.58 19.9 183.54"/><polygon class="cls-81" points="19.9 182.5 63.54 301.54 63.16 301.54 19.9 183.54 19.9 182.5"/><polygon class="cls-81" points="19.9 181.46 63.92 301.54 63.54 301.54 19.9 182.5 19.9 181.46"/><polygon class="cls-82" points="19.9 180.43 64.3 301.54 63.92 301.54 19.9 181.46 19.9 180.43"/><polygon class="cls-83" points="19.9 179.39 64.69 301.54 64.3 301.54 19.9 180.43 19.9 179.39"/><polygon class="cls-84" points="19.9 178.35 65.06 301.54 64.69 301.54 19.9 179.39 19.9 178.35"/><polygon class="cls-84" points="19.9 177.31 65.45 301.54 65.06 301.54 19.9 178.35 19.9 177.31"/><polygon class="cls-85" points="19.9 176.28 65.83 301.54 65.45 301.54 19.9 177.31 19.9 176.28"/><polygon class="cls-85" points="19.9 175.24 66.21 301.54 65.83 301.54 19.9 176.28 19.9 175.24"/><polygon class="cls-86" points="19.9 174.2 66.59 301.54 66.21 301.54 19.9 175.24 19.9 174.2"/><polygon class="cls-87" points="19.9 173.16 66.97 301.54 66.59 301.54 19.9 174.2 19.9 173.16"/><polygon class="cls-87" points="19.96 172.3 67.35 301.54 66.97 301.54 19.9 173.16 19.9 172.3 19.96 172.3"/><polygon class="cls-88" points="20.34 172.3 67.73 301.54 67.35 301.54 19.96 172.3 20.34 172.3"/><polygon class="cls-88" points="20.72 172.3 68.11 301.54 67.73 301.54 20.34 172.3 20.72 172.3"/><polygon class="cls-89" points="21.1 172.3 68.49 301.54 68.11 301.54 20.72 172.3 21.1 172.3"/><polygon class="cls-90" points="21.48 172.3 68.87 301.54 68.49 301.54 21.1 172.3 21.48 172.3"/><polygon class="cls-91" points="21.86 172.3 69.25 301.54 68.87 301.54 21.48 172.3 21.86 172.3"/><polygon class="cls-91" points="22.24 172.3 69.63 301.54 69.25 301.54 21.86 172.3 22.24 172.3"/><polygon class="cls-92" points="22.62 172.3 70.01 301.54 69.63 301.54 22.24 172.3 22.62 172.3"/><polygon class="cls-93" points="23 172.3 70.39 301.54 70.01 301.54 22.62 172.3 23 172.3"/><polygon class="cls-94" points="23.38 172.3 70.77 301.54 70.39 301.54 23 172.3 23.38 172.3"/><polygon class="cls-95" points="23.77 172.3 71.15 301.54 70.77 301.54 23.38 172.3 23.77 172.3"/><polygon class="cls-95" points="24.14 172.3 71.53 301.54 71.15 301.54 23.77 172.3 24.14 172.3"/><polygon class="cls-96" points="24.53 172.3 71.91 301.54 71.53 301.54 24.14 172.3 24.53 172.3"/><polygon class="cls-96" points="24.91 172.3 72.29 301.54 71.91 301.54 24.53 172.3 24.91 172.3"/><polygon class="cls-97" points="25.29 172.3 72.67 301.54 72.29 301.54 24.91 172.3 25.29 172.3"/><polygon class="cls-97" points="25.67 172.3 73.06 301.54 72.67 301.54 25.29 172.3 25.67 172.3"/><polygon class="cls-98" points="26.05 172.3 73.44 301.54 73.06 301.54 25.67 172.3 26.05 172.3"/><polygon class="cls-99" points="26.43 172.3 73.82 301.54 73.44 301.54 26.05 172.3 26.43 172.3"/><polygon class="cls-99" points="26.81 172.3 74.2 301.54 73.82 301.54 26.43 172.3 26.81 172.3"/><polygon class="cls-100" points="27.19 172.3 74.58 301.54 74.2 301.54 26.81 172.3 27.19 172.3"/><polygon class="cls-101" points="27.57 172.3 74.96 301.54 74.58 301.54 27.19 172.3 27.57 172.3"/><polygon class="cls-102" points="27.95 172.3 75.34 301.54 74.96 301.54 27.57 172.3 27.95 172.3"/><polygon class="cls-103" points="28.33 172.3 75.72 301.54 75.34 301.54 27.95 172.3 28.33 172.3"/><polygon class="cls-104" points="28.71 172.3 76.1 301.54 75.72 301.54 28.33 172.3 28.71 172.3"/><polygon class="cls-104" points="29.09 172.3 76.48 301.54 76.1 301.54 28.71 172.3 29.09 172.3"/><polygon class="cls-105" points="29.47 172.3 76.86 301.54 76.48 301.54 29.09 172.3 29.47 172.3"/><polygon class="cls-105" points="29.85 172.3 77.24 301.54 76.86 301.54 29.47 172.3 29.85 172.3"/><polygon class="cls-106" points="30.23 172.3 77.62 301.54 77.24 301.54 29.85 172.3 30.23 172.3"/><polygon class="cls-106" points="30.61 172.3 78 301.54 77.62 301.54 30.23 172.3 30.61 172.3"/><polygon class="cls-107" points="30.99 172.3 78.38 301.54 78 301.54 30.61 172.3 30.99 172.3"/><polygon class="cls-107" points="31.38 172.3 78.76 301.54 78.38 301.54 30.99 172.3 31.38 172.3"/><polygon class="cls-107" points="31.75 172.3 79.14 301.54 78.76 301.54 31.38 172.3 31.75 172.3"/><polygon class="cls-108" points="32.13 172.3 79.52 301.54 79.14 301.54 31.75 172.3 32.13 172.3"/><polygon class="cls-108" points="32.52 172.3 79.9 301.54 79.52 301.54 32.13 172.3 32.52 172.3"/><polygon class="cls-109" points="32.9 172.3 80.28 301.54 79.9 301.54 32.52 172.3 32.9 172.3"/><polygon class="cls-109" points="33.28 172.3 80.67 301.54 80.28 301.54 32.9 172.3 33.28 172.3"/><polygon class="cls-110" points="33.66 172.3 81.05 301.54 80.67 301.54 33.28 172.3 33.66 172.3"/><polygon class="cls-111" points="34.04 172.3 81.43 301.54 81.05 301.54 33.66 172.3 34.04 172.3"/><polygon class="cls-112" points="34.42 172.3 81.81 301.54 81.43 301.54 34.04 172.3 34.42 172.3"/><polygon class="cls-113" points="34.8 172.3 82.19 301.54 81.81 301.54 34.42 172.3 34.8 172.3"/><polygon class="cls-114" points="35.18 172.3 82.57 301.54 82.19 301.54 34.8 172.3 35.18 172.3"/><polygon class="cls-114" points="35.56 172.3 82.95 301.54 82.57 301.54 35.18 172.3 35.56 172.3"/><polygon class="cls-115" points="35.94 172.3 83.33 301.54 82.95 301.54 35.56 172.3 35.94 172.3"/><polygon class="cls-115" points="36.32 172.3 83.71 301.54 83.33 301.54 35.94 172.3 36.32 172.3"/><polygon class="cls-116" points="36.7 172.3 84.09 301.54 83.71 301.54 36.32 172.3 36.7 172.3"/><polygon class="cls-116" points="37.08 172.3 84.47 301.54 84.09 301.54 36.7 172.3 37.08 172.3"/><polygon class="cls-117" points="37.46 172.3 84.85 301.54 84.47 301.54 37.08 172.3 37.46 172.3"/><polygon class="cls-118" points="37.84 172.3 85.23 301.54 84.85 301.54 37.46 172.3 37.84 172.3"/><polygon class="cls-118" points="38.22 172.3 85.61 301.54 85.23 301.54 37.84 172.3 38.22 172.3"/><polygon class="cls-119" points="38.6 172.3 85.99 301.54 85.61 301.54 38.22 172.3 38.6 172.3"/><polygon class="cls-119" points="38.98 172.3 86.37 301.54 85.99 301.54 38.6 172.3 38.98 172.3"/><polygon class="cls-120" points="39.37 172.3 86.75 301.54 86.37 301.54 38.98 172.3 39.37 172.3"/><polygon class="cls-120" points="39.74 172.3 87.13 301.54 86.75 301.54 39.37 172.3 39.74 172.3"/><polygon class="cls-121" points="40.13 172.3 87.51 301.54 87.13 301.54 39.74 172.3 40.13 172.3"/><polygon class="cls-121" points="40.51 172.3 87.89 301.54 87.51 301.54 40.13 172.3 40.51 172.3"/><polygon class="cls-122" points="40.89 172.3 88.28 301.54 87.89 301.54 40.51 172.3 40.89 172.3"/><polygon class="cls-123" points="41.27 172.3 88.66 301.54 88.28 301.54 40.89 172.3 41.27 172.3"/><polygon class="cls-124" points="41.65 172.3 89.04 301.54 88.66 301.54 41.27 172.3 41.65 172.3"/><polygon class="cls-125" points="42.03 172.3 89.42 301.54 89.04 301.54 41.65 172.3 42.03 172.3"/><polygon class="cls-126" points="42.41 172.3 89.8 301.54 89.42 301.54 42.03 172.3 42.41 172.3"/><polygon class="cls-127" points="42.79 172.3 90.18 301.54 89.8 301.54 42.41 172.3 42.79 172.3"/><polygon class="cls-128" points="43.17 172.3 90.56 301.54 90.18 301.54 42.79 172.3 43.17 172.3"/><polygon class="cls-128" points="43.55 172.3 90.94 301.54 90.56 301.54 43.17 172.3 43.55 172.3"/><polygon class="cls-129" points="43.93 172.3 91.32 301.54 90.94 301.54 43.55 172.3 43.93 172.3"/><polygon class="cls-129" points="44.31 172.3 91.7 301.54 91.32 301.54 43.93 172.3 44.31 172.3"/><polygon class="cls-130" points="44.69 172.3 92.08 301.54 91.7 301.54 44.31 172.3 44.69 172.3"/><polygon class="cls-131" points="45.07 172.3 92.46 301.54 92.08 301.54 44.69 172.3 45.07 172.3"/><polygon class="cls-132" points="45.45 172.3 92.84 301.54 92.46 301.54 45.07 172.3 45.45 172.3"/><polygon class="cls-133" points="45.83 172.3 93.22 301.54 92.84 301.54 45.45 172.3 45.83 172.3"/><polygon class="cls-134" points="46.21 172.3 93.6 301.54 93.22 301.54 45.83 172.3 46.21 172.3"/><polygon class="cls-135" points="46.59 172.3 93.98 301.54 93.6 301.54 46.21 172.3 46.59 172.3"/><polygon class="cls-135" points="46.98 172.3 94.36 301.54 93.98 301.54 46.59 172.3 46.98 172.3"/><polygon class="cls-136" points="47.35 172.3 94.74 301.54 94.36 301.54 46.98 172.3 47.35 172.3"/><polygon class="cls-136" points="47.74 172.3 95.12 301.54 94.74 301.54 47.35 172.3 47.74 172.3"/><polygon class="cls-137" points="48.12 172.3 95.5 301.54 95.12 301.54 47.74 172.3 48.12 172.3"/><polygon class="cls-137" points="48.5 172.3 95.89 301.54 95.5 301.54 48.12 172.3 48.5 172.3"/><polygon class="cls-138" points="48.88 172.3 96.27 301.54 95.89 301.54 48.5 172.3 48.88 172.3"/><polygon class="cls-138" points="49.26 172.3 96.65 301.54 96.27 301.54 48.88 172.3 49.26 172.3"/><polygon class="cls-138" points="49.64 172.3 97.03 301.54 96.65 301.54 49.26 172.3 49.64 172.3"/><polygon class="cls-139" points="50.02 172.3 97.41 301.54 97.03 301.54 49.64 172.3 50.02 172.3"/><polygon class="cls-139" points="50.4 172.3 97.79 301.54 97.41 301.54 50.02 172.3 50.4 172.3"/><polygon class="cls-140" points="50.78 172.3 98.17 301.54 97.79 301.54 50.4 172.3 50.78 172.3"/><polygon class="cls-140" points="51.16 172.3 98.55 301.54 98.17 301.54 50.78 172.3 51.16 172.3"/><polygon class="cls-141" points="51.54 172.3 98.93 301.54 98.55 301.54 51.16 172.3 51.54 172.3"/><polygon class="cls-141" points="51.92 172.3 99.31 301.54 98.93 301.54 51.54 172.3 51.92 172.3"/><polygon class="cls-142" points="52.3 172.3 99.69 301.54 99.31 301.54 51.92 172.3 52.3 172.3"/><polygon class="cls-142" points="52.68 172.3 100.07 301.54 99.69 301.54 52.3 172.3 52.68 172.3"/><polygon class="cls-143" points="53.06 172.3 100.45 301.54 100.07 301.54 52.68 172.3 53.06 172.3"/><polygon class="cls-144" points="53.44 172.3 100.83 301.54 100.45 301.54 53.06 172.3 53.44 172.3"/><polygon class="cls-145" points="53.82 172.3 101.21 301.54 100.83 301.54 53.44 172.3 53.82 172.3"/><polygon class="cls-146" points="54.2 172.3 101.59 301.54 101.21 301.54 53.82 172.3 54.2 172.3"/><polygon class="cls-146" points="54.59 172.3 101.97 301.54 101.59 301.54 54.2 172.3 54.59 172.3"/><polygon class="cls-147" points="54.97 172.3 102.35 301.54 101.97 301.54 54.59 172.3 54.97 172.3"/><polygon class="cls-147" points="55.35 172.3 102.73 301.54 102.35 301.54 54.97 172.3 55.35 172.3"/><polygon class="cls-148" points="55.73 172.3 103.11 301.54 102.73 301.54 55.35 172.3 55.73 172.3"/><polygon class="cls-149" points="56.11 172.3 103.5 301.54 103.11 301.54 55.73 172.3 56.11 172.3"/><polygon class="cls-150" points="56.49 172.3 103.88 301.54 103.5 301.54 56.11 172.3 56.49 172.3"/><polygon class="cls-151" points="56.87 172.3 104.26 301.54 103.88 301.54 56.49 172.3 56.87 172.3"/><polygon class="cls-152" points="57.25 172.3 104.64 301.54 104.26 301.54 56.87 172.3 57.25 172.3"/><polygon class="cls-153" points="57.63 172.3 105.02 301.54 104.64 301.54 57.25 172.3 57.63 172.3"/><polygon class="cls-154" points="58.01 172.3 105.4 301.54 105.02 301.54 57.63 172.3 58.01 172.3"/><polygon class="cls-155" points="58.39 172.3 105.78 301.54 105.4 301.54 58.01 172.3 58.39 172.3"/><polygon class="cls-155" points="58.77 172.3 106.16 301.54 105.78 301.54 58.39 172.3 58.77 172.3"/><polygon class="cls-156" points="59.15 172.3 106.54 301.54 106.16 301.54 58.77 172.3 59.15 172.3"/><polygon class="cls-156" points="59.53 172.3 106.92 301.54 106.54 301.54 59.15 172.3 59.53 172.3"/><polygon class="cls-157" points="59.91 172.3 107.3 301.54 106.92 301.54 59.53 172.3 59.91 172.3"/><polygon class="cls-158" points="60.29 172.3 107.68 301.54 107.3 301.54 59.91 172.3 60.29 172.3"/><polygon class="cls-159" points="60.67 172.3 108.06 301.54 107.68 301.54 60.29 172.3 60.67 172.3"/><polygon class="cls-160" points="61.05 172.3 108.44 301.54 108.06 301.54 60.67 172.3 61.05 172.3"/><polygon class="cls-161" points="61.43 172.3 108.82 301.54 108.44 301.54 61.05 172.3 61.43 172.3"/><polygon class="cls-162" points="61.81 172.3 109.2 301.54 108.82 301.54 61.43 172.3 61.81 172.3"/><polygon class="cls-163" points="62.19 172.3 109.58 301.54 109.2 301.54 61.81 172.3 62.19 172.3"/><polygon class="cls-164" points="62.58 172.3 109.96 301.54 109.58 301.54 62.19 172.3 62.58 172.3"/><polygon class="cls-165" points="62.95 172.3 110.34 301.54 109.96 301.54 62.58 172.3 62.95 172.3"/><polygon class="cls-166" points="63.34 172.3 110.72 301.54 110.34 301.54 62.95 172.3 63.34 172.3"/><polygon class="cls-166" points="63.72 172.3 111.11 301.54 110.72 301.54 63.34 172.3 63.72 172.3"/><polygon class="cls-167" points="64.1 172.3 111.48 301.54 111.11 301.54 63.72 172.3 64.1 172.3"/><polygon class="cls-168" points="64.48 172.3 111.87 301.54 111.48 301.54 64.1 172.3 64.48 172.3"/><polygon class="cls-169" points="64.86 172.3 112.25 301.54 111.87 301.54 64.48 172.3 64.86 172.3"/><polygon class="cls-170" points="65.24 172.3 112.63 301.54 112.25 301.54 64.86 172.3 65.24 172.3"/><polygon class="cls-171" points="65.62 172.3 113.01 301.54 112.63 301.54 65.24 172.3 65.62 172.3"/><polygon class="cls-172" points="66 172.3 113.39 301.54 113.01 301.54 65.62 172.3 66 172.3"/><polygon class="cls-173" points="66.38 172.3 113.77 301.54 113.39 301.54 66 172.3 66.38 172.3"/><polygon class="cls-174" points="66.76 172.3 114.15 301.54 113.77 301.54 66.38 172.3 66.76 172.3"/><polygon class="cls-175" points="67.14 172.3 114.53 301.54 114.15 301.54 66.76 172.3 67.14 172.3"/><polygon class="cls-176" points="67.52 172.3 114.91 301.54 114.53 301.54 67.14 172.3 67.52 172.3"/><polygon class="cls-176" points="67.9 172.3 115.29 301.54 114.91 301.54 67.52 172.3 67.9 172.3"/><polygon class="cls-177" points="68.28 172.3 115.67 301.54 115.29 301.54 67.9 172.3 68.28 172.3"/><polygon class="cls-177" points="68.66 172.3 116.05 301.54 115.67 301.54 68.28 172.3 68.66 172.3"/><polygon class="cls-178" points="69.04 172.3 116.43 301.54 116.05 301.54 68.66 172.3 69.04 172.3"/><polygon class="cls-179" points="69.42 172.3 116.81 301.54 116.43 301.54 69.04 172.3 69.42 172.3"/><polygon class="cls-180" points="69.8 172.3 117.19 301.54 116.81 301.54 69.42 172.3 69.8 172.3"/><polygon class="cls-181" points="70.19 172.3 117.57 301.54 117.19 301.54 69.8 172.3 70.19 172.3"/><polygon class="cls-182" points="70.56 172.3 117.95 301.54 117.57 301.54 70.19 172.3 70.56 172.3"/><polygon class="cls-3" points="70.95 172.3 118.33 301.54 117.95 301.54 70.56 172.3 70.95 172.3"/><polygon class="cls-3" points="118.33 301.54 70.95 172.3 125.32 172.3 125.32 301.54 118.33 301.54"/></g><g class="cls-183"><polygon class="cls-5" points="142.64 273.62 151.5 324.59 142.64 324.59 142.64 273.62"/><polygon class="cls-5" points="142.64 273.32 151.56 324.59 151.5 324.59 142.64 273.62 142.64 273.32"/><polygon class="cls-6" points="142.64 273.03 151.61 324.59 151.56 324.59 142.64 273.32 142.64 273.03"/><polygon class="cls-7" points="142.64 272.74 151.66 324.59 151.61 324.59 142.64 273.03 142.64 272.74"/><polygon class="cls-8" points="142.64 272.44 151.71 324.59 151.66 324.59 142.64 272.74 142.64 272.44"/><polygon class="cls-9" points="142.64 272.15 151.76 324.59 151.71 324.59 142.64 272.44 142.64 272.15"/><polygon class="cls-10" points="142.64 271.85 151.81 324.59 151.76 324.59 142.64 272.15 142.64 271.85"/><polygon class="cls-11" points="142.64 271.56 151.86 324.59 151.81 324.59 142.64 271.85 142.64 271.56"/><polygon class="cls-12" points="142.64 271.26 151.91 324.59 151.86 324.59 142.64 271.56 142.64 271.26"/><polygon class="cls-13" points="142.64 270.97 151.96 324.59 151.91 324.59 142.64 271.26 142.64 270.97"/><polygon class="cls-14" points="142.64 270.68 152.01 324.59 151.96 324.59 142.64 270.97 142.64 270.68"/><polygon class="cls-15" points="142.64 270.38 152.07 324.59 152.01 324.59 142.64 270.68 142.64 270.38"/><polygon class="cls-16" points="142.64 270.09 152.12 324.59 152.07 324.59 142.64 270.38 142.64 270.09"/><polygon class="cls-17" points="142.64 269.79 152.17 324.59 152.12 324.59 142.64 270.09 142.64 269.79"/><polygon class="cls-18" points="142.64 269.5 152.22 324.59 152.17 324.59 142.64 269.79 142.64 269.5"/><polygon class="cls-19" points="142.64 269.2 152.27 324.59 152.22 324.59 142.64 269.5 142.64 269.2"/><polygon class="cls-20" points="142.64 268.91 152.32 324.59 152.27 324.59 142.64 269.2 142.64 268.91"/><polygon class="cls-21" points="142.64 268.62 152.37 324.59 152.32 324.59 142.64 268.91 142.64 268.62"/><polygon class="cls-22" points="142.64 268.32 152.42 324.59 152.37 324.59 142.64 268.62 142.64 268.32"/><polygon class="cls-23" points="142.64 268.03 152.48 324.59 152.42 324.59 142.64 268.32 142.64 268.03"/><polygon class="cls-24" points="142.64 267.73 152.53 324.59 152.48 324.59 142.64 268.03 142.64 267.73"/><polygon class="cls-25" points="142.64 267.44 152.58 324.59 152.53 324.59 142.64 267.73 142.64 267.44"/><polygon class="cls-26" points="142.64 267.14 152.63 324.59 152.58 324.59 142.64 267.44 142.64 267.14"/><polygon class="cls-27" points="142.64 266.85 152.68 324.59 152.63 324.59 142.64 267.14 142.64 266.85"/><polygon class="cls-28" points="142.64 266.56 152.73 324.59 152.68 324.59 142.64 266.85 142.64 266.56"/><polygon class="cls-29" points="142.64 266.26 152.78 324.59 152.73 324.59 142.64 266.56 142.64 266.26"/><polygon class="cls-30" points="142.64 265.97 152.83 324.59 152.78 324.59 142.64 266.26 142.64 265.97"/><polygon class="cls-31" points="142.64 265.67 152.88 324.59 152.83 324.59 142.64 265.97 142.64 265.67"/><polygon class="cls-32" points="142.64 265.38 152.94 324.59 152.88 324.59 142.64 265.67 142.64 265.38"/><polygon class="cls-33" points="142.64 265.09 152.99 324.59 152.94 324.59 142.64 265.38 142.64 265.09"/><polygon class="cls-34" points="142.64 264.79 153.04 324.59 152.99 324.59 142.64 265.09 142.64 264.79"/><polygon class="cls-35" points="142.64 264.5 153.09 324.59 153.04 324.59 142.64 264.79 142.64 264.5"/><polygon class="cls-36" points="142.64 264.2 153.14 324.59 153.09 324.59 142.64 264.5 142.64 264.2"/><polygon class="cls-37" points="142.64 263.91 153.19 324.59 153.14 324.59 142.64 264.2 142.64 263.91"/><polygon class="cls-38" points="142.64 263.62 153.24 324.59 153.19 324.59 142.64 263.91 142.64 263.62"/><polygon class="cls-39" points="142.64 263.32 153.29 324.59 153.24 324.59 142.64 263.62 142.64 263.32"/><polygon class="cls-40" points="142.64 263.03 153.34 324.59 153.29 324.59 142.64 263.32 142.64 263.03"/><polygon class="cls-41" points="142.64 262.73 153.4 324.59 153.34 324.59 142.64 263.03 142.64 262.73"/><polygon class="cls-42" points="142.64 262.44 153.45 324.59 153.4 324.59 142.64 262.73 142.64 262.44"/><polygon class="cls-43" points="142.64 262.14 153.5 324.59 153.45 324.59 142.64 262.44 142.64 262.14"/><polygon class="cls-44" points="142.64 261.85 153.55 324.59 153.5 324.59 142.64 262.14 142.64 261.85"/><polygon class="cls-45" points="142.64 261.56 153.6 324.59 153.55 324.59 142.64 261.85 142.64 261.56"/><polygon class="cls-46" points="142.64 261.26 153.65 324.59 153.6 324.59 142.64 261.56 142.64 261.26"/><polygon class="cls-47" points="142.64 260.97 153.7 324.59 153.65 324.59 142.64 261.26 142.64 260.97"/><polygon class="cls-48" points="142.64 260.67 153.75 324.59 153.7 324.59 142.64 260.97 142.64 260.67"/><polygon class="cls-49" points="142.64 260.38 153.81 324.59 153.75 324.59 142.64 260.67 142.64 260.38"/><polygon class="cls-49" points="142.64 260.08 153.86 324.59 153.81 324.59 142.64 260.38 142.64 260.08"/><polygon class="cls-50" points="142.64 259.79 153.91 324.59 153.86 324.59 142.64 260.08 142.64 259.79"/><polygon class="cls-50" points="142.64 259.5 153.96 324.59 153.91 324.59 142.64 259.79 142.64 259.5"/><polygon class="cls-51" points="142.64 259.2 154.01 324.59 153.96 324.59 142.64 259.5 142.64 259.2"/><polygon class="cls-52" points="142.64 258.91 154.06 324.59 154.01 324.59 142.64 259.2 142.64 258.91"/><polygon class="cls-53" points="142.64 258.61 154.11 324.59 154.06 324.59 142.64 258.91 142.64 258.61"/><polygon class="cls-53" points="142.64 258.32 154.16 324.59 154.11 324.59 142.64 258.61 142.64 258.32"/><polygon class="cls-54" points="142.64 258.02 154.22 324.59 154.16 324.59 142.64 258.32 142.64 258.02"/><polygon class="cls-54" points="142.64 257.73 154.27 324.59 154.22 324.59 142.64 258.02 142.64 257.73"/><polygon class="cls-55" points="142.64 257.44 154.32 324.59 154.31 324.59 154.27 324.59 142.64 257.73 142.64 257.44"/><polygon class="cls-55" points="142.64 257.14 154.37 324.58 154.32 324.59 142.64 257.44 142.64 257.14"/><polygon class="cls-56" points="142.64 256.85 154.42 324.57 154.37 324.58 142.64 257.14 142.64 256.85"/><polygon class="cls-57" points="142.64 256.55 154.47 324.56 154.42 324.57 142.64 256.85 142.64 256.55"/><polygon class="cls-58" points="142.64 256.26 154.52 324.55 154.47 324.56 142.64 256.55 142.64 256.26"/><polygon class="cls-58" points="142.64 255.97 154.57 324.54 154.52 324.55 142.64 256.26 142.64 255.97"/><polygon class="cls-59" points="142.64 255.67 154.62 324.53 154.57 324.54 142.64 255.97 142.64 255.67"/><polygon class="cls-59" points="142.64 255.38 154.66 324.52 154.62 324.53 142.64 255.67 142.64 255.38"/><polygon class="cls-60" points="142.64 255.08 154.72 324.52 154.66 324.52 142.64 255.38 142.64 255.08"/><polygon class="cls-61" points="142.64 254.79 154.76 324.51 154.72 324.52 142.64 255.08 142.64 254.79"/><polygon class="cls-62" points="142.64 254.49 154.81 324.5 154.76 324.51 142.64 254.79 142.64 254.49"/><polygon class="cls-62" points="142.64 254.2 154.86 324.49 154.81 324.5 142.64 254.49 142.64 254.2"/><polygon class="cls-63" points="142.64 253.91 154.91 324.48 154.86 324.49 142.64 254.2 142.64 253.91"/><polygon class="cls-63" points="142.64 253.61 154.96 324.47 154.91 324.48 142.64 253.91 142.64 253.61"/><polygon class="cls-64" points="142.64 253.32 155.01 324.46 154.96 324.47 142.64 253.61 142.64 253.32"/><polygon class="cls-65" points="142.64 253.02 155.06 324.46 155.01 324.46 142.64 253.32 142.64 253.02"/><polygon class="cls-66" points="142.64 252.73 155.11 324.45 155.06 324.46 142.64 253.02 142.64 252.73"/><polygon class="cls-66" points="142.64 252.43 155.16 324.44 155.11 324.45 142.64 252.73 142.64 252.43"/><polygon class="cls-67" points="142.64 252.14 155.21 324.43 155.16 324.44 142.64 252.43 142.64 252.14"/><polygon class="cls-67" points="142.64 251.85 155.26 324.42 155.21 324.43 142.64 252.14 142.64 251.85"/><polygon class="cls-68" points="142.64 251.55 155.31 324.41 155.26 324.42 142.64 251.85 142.64 251.55"/><polygon class="cls-68" points="142.64 251.26 155.36 324.4 155.31 324.41 142.64 251.55 142.64 251.26"/><polygon class="cls-68" points="142.64 250.96 155.41 324.4 155.36 324.4 142.64 251.26 142.64 250.96"/><polygon class="cls-69" points="142.64 250.67 155.46 324.39 155.41 324.4 142.64 250.96 142.64 250.67"/><polygon class="cls-69" points="142.64 250.38 155.51 324.38 155.46 324.39 142.64 250.67 142.64 250.38"/><polygon class="cls-70" points="142.64 250.08 155.56 324.37 155.51 324.38 142.64 250.38 142.64 250.08"/><polygon class="cls-71" points="142.64 249.79 155.61 324.36 155.56 324.37 142.64 250.08 142.64 249.79"/><polygon class="cls-72" points="142.64 249.49 155.66 324.35 155.61 324.36 142.64 249.79 142.64 249.49"/><polygon class="cls-72" points="142.64 249.2 155.71 324.34 155.66 324.35 142.64 249.49 142.64 249.2"/><polygon class="cls-73" points="142.64 248.9 155.76 324.33 155.71 324.34 142.64 249.2 142.64 248.9"/><polygon class="cls-73" points="142.64 248.61 155.81 324.33 155.76 324.33 142.64 248.9 142.64 248.61"/><polygon class="cls-74" points="142.64 248.31 155.86 324.32 155.81 324.33 142.64 248.61 142.64 248.31"/><polygon class="cls-75" points="142.64 248.02 155.91 324.31 155.86 324.32 142.64 248.31 142.64 248.02"/><polygon class="cls-75" points="142.64 247.73 155.96 324.3 155.91 324.31 142.64 248.02 142.64 247.73"/><polygon class="cls-76" points="142.64 247.43 156.01 324.29 155.96 324.3 142.64 247.73 142.64 247.43"/><polygon class="cls-77" points="142.64 247.14 156.06 324.28 156.01 324.29 142.64 247.43 142.64 247.14"/><polygon class="cls-78" points="142.64 246.84 156.1 324.27 156.06 324.28 142.64 247.14 142.64 246.84"/><polygon class="cls-78" points="142.64 246.55 156.16 324.27 156.1 324.27 142.64 246.84 142.64 246.55"/><polygon class="cls-79" points="142.64 246.26 156.21 324.26 156.16 324.27 142.64 246.55 142.64 246.26"/><polygon class="cls-79" points="142.64 245.96 156.25 324.25 156.21 324.26 142.64 246.26 142.64 245.96"/><polygon class="cls-80" points="142.64 245.67 156.3 324.24 156.25 324.25 142.64 245.96 142.64 245.67"/><polygon class="cls-80" points="142.64 245.37 156.35 324.23 156.3 324.24 142.64 245.67 142.64 245.37"/><polygon class="cls-80" points="142.64 245.08 156.4 324.22 156.35 324.23 142.64 245.37 142.64 245.08"/><polygon class="cls-81" points="142.64 244.78 156.45 324.21 156.4 324.22 142.64 245.08 142.64 244.78"/><polygon class="cls-81" points="142.64 244.49 156.5 324.21 156.45 324.21 142.64 244.78 142.64 244.49"/><polygon class="cls-82" points="142.64 244.2 156.55 324.2 156.5 324.21 142.64 244.49 142.64 244.2"/><polygon class="cls-83" points="142.64 243.9 156.6 324.19 156.55 324.2 142.64 244.2 142.64 243.9"/><polygon class="cls-84" points="142.64 243.61 156.65 324.18 156.6 324.19 142.64 243.9 142.64 243.61"/><polygon class="cls-84" points="142.64 243.31 156.7 324.17 156.65 324.18 142.64 243.61 142.64 243.31"/><polygon class="cls-85" points="142.64 243.02 156.75 324.16 156.7 324.17 142.64 243.31 142.64 243.02"/><polygon class="cls-85" points="142.64 242.72 156.8 324.15 156.75 324.16 142.64 243.02 142.64 242.72"/><polygon class="cls-86" points="142.64 242.43 156.85 324.14 156.8 324.15 142.64 242.72 142.64 242.43"/><polygon class="cls-87" points="142.64 242.14 156.9 324.14 156.85 324.14 142.64 242.43 142.64 242.14"/><polygon class="cls-87" points="142.64 241.84 156.95 324.13 156.9 324.14 142.64 242.14 142.64 241.84"/><polygon class="cls-88" points="142.64 241.55 157 324.12 156.95 324.13 142.64 241.84 142.64 241.55"/><polygon class="cls-88" points="142.64 241.25 157.05 324.11 157 324.12 142.64 241.55 142.64 241.25"/><polygon class="cls-89" points="142.64 240.96 157.1 324.1 157.05 324.11 142.64 241.25 142.64 240.96"/><polygon class="cls-90" points="142.64 240.67 157.15 324.09 157.1 324.1 142.64 240.96 142.64 240.67"/><polygon class="cls-91" points="142.64 240.37 157.2 324.08 157.15 324.09 142.64 240.67 142.64 240.37"/><polygon class="cls-91" points="142.64 240.08 157.25 324.08 157.2 324.08 142.64 240.37 142.64 240.08"/><polygon class="cls-92" points="142.64 239.78 157.3 324.07 157.25 324.08 142.64 240.08 142.64 239.78"/><polygon class="cls-93" points="142.64 239.49 157.35 324.06 157.3 324.07 142.64 239.78 142.64 239.49"/><polygon class="cls-94" points="142.64 239.19 157.4 324.05 157.35 324.06 142.64 239.49 142.64 239.19"/><polygon class="cls-95" points="142.64 238.9 157.45 324.04 157.4 324.05 142.64 239.19 142.64 238.9"/><polygon class="cls-95" points="142.64 238.61 157.5 324.03 157.45 324.04 142.64 238.9 142.64 238.61"/><polygon class="cls-96" points="142.64 238.31 157.55 324.02 157.5 324.03 142.64 238.61 142.64 238.31"/><polygon class="cls-96" points="142.64 238.02 157.59 324.02 157.55 324.02 142.64 238.31 142.64 238.02"/><polygon class="cls-97" points="142.64 237.72 157.65 324.01 157.59 324.02 142.64 238.02 142.64 237.72"/><polygon class="cls-97" points="142.64 237.43 157.69 324 157.65 324.01 142.64 237.72 142.64 237.43"/><polygon class="cls-98" points="142.64 237.13 157.74 323.99 157.69 324 142.64 237.43 142.64 237.13"/><polygon class="cls-99" points="142.64 236.84 157.79 323.98 157.74 323.99 142.64 237.13 142.64 236.84"/><polygon class="cls-99" points="142.64 236.55 157.84 323.97 157.79 323.98 142.64 236.84 142.64 236.55"/><polygon class="cls-100" points="142.64 236.25 157.89 323.96 157.84 323.97 142.64 236.55 142.64 236.25"/><polygon class="cls-101" points="142.64 235.96 157.94 323.95 157.89 323.96 142.64 236.25 142.64 235.96"/><polygon class="cls-102" points="142.64 235.66 157.99 323.95 157.94 323.95 142.64 235.96 142.64 235.66"/><polygon class="cls-103" points="142.64 235.37 158.04 323.94 157.99 323.95 142.64 235.66 142.64 235.37"/><polygon class="cls-104" points="142.64 235.08 158.09 323.93 158.04 323.94 142.64 235.37 142.64 235.08"/><polygon class="cls-104" points="142.64 234.78 158.14 323.92 158.09 323.93 142.64 235.08 142.64 234.78"/><polygon class="cls-105" points="142.64 234.49 158.19 323.91 158.14 323.92 142.64 234.78 142.64 234.49"/><polygon class="cls-105" points="142.64 234.19 158.24 323.9 158.19 323.91 142.64 234.49 142.64 234.19"/><polygon class="cls-106" points="142.67 234.08 158.29 323.89 158.24 323.9 142.64 234.19 142.64 234.08 142.67 234.08"/><polygon class="cls-106" points="142.72 234.08 158.34 323.89 158.29 323.89 142.67 234.08 142.72 234.08"/><polygon class="cls-107" points="142.77 234.08 158.39 323.88 158.34 323.89 142.72 234.08 142.77 234.08"/><polygon class="cls-107" points="142.82 234.08 158.44 323.87 158.39 323.88 142.77 234.08 142.82 234.08"/><polygon class="cls-107" points="142.88 234.08 158.49 323.86 158.44 323.87 142.82 234.08 142.88 234.08"/><polygon class="cls-108" points="142.93 234.08 158.54 323.85 158.49 323.86 142.88 234.08 142.93 234.08"/><polygon class="cls-108" points="142.98 234.08 158.59 323.84 158.54 323.85 142.93 234.08 142.98 234.08"/><polygon class="cls-109" points="143.03 234.08 158.64 323.83 158.59 323.84 142.98 234.08 143.03 234.08"/><polygon class="cls-109" points="143.08 234.08 158.69 323.83 158.64 323.83 143.03 234.08 143.08 234.08"/><polygon class="cls-110" points="143.13 234.08 158.74 323.82 158.69 323.83 143.08 234.08 143.13 234.08"/><polygon class="cls-111" points="143.18 234.08 158.79 323.81 158.74 323.82 143.13 234.08 143.18 234.08"/><polygon class="cls-112" points="143.23 234.08 158.84 323.8 158.79 323.81 143.18 234.08 143.23 234.08"/><polygon class="cls-113" points="143.29 234.08 158.89 323.79 158.84 323.8 143.23 234.08 143.29 234.08"/><polygon class="cls-114" points="143.34 234.08 158.94 323.78 158.89 323.79 143.29 234.08 143.34 234.08"/><polygon class="cls-114" points="143.39 234.08 158.99 323.77 158.94 323.78 143.34 234.08 143.39 234.08"/><polygon class="cls-115" points="143.44 234.08 159.04 323.76 158.99 323.77 143.39 234.08 143.44 234.08"/><polygon class="cls-115" points="143.49 234.08 159.09 323.76 159.04 323.76 143.44 234.08 143.49 234.08"/><polygon class="cls-116" points="143.54 234.08 159.13 323.75 159.09 323.76 143.49 234.08 143.54 234.08"/><polygon class="cls-116" points="143.59 234.08 159.19 323.74 159.13 323.75 143.54 234.08 143.59 234.08"/><polygon class="cls-117" points="143.64 234.08 159.23 323.73 159.19 323.74 143.59 234.08 143.64 234.08"/><polygon class="cls-118" points="143.69 234.08 159.28 323.72 159.23 323.73 143.64 234.08 143.69 234.08"/><polygon class="cls-118" points="143.75 234.08 159.33 323.71 159.28 323.72 143.69 234.08 143.75 234.08"/><polygon class="cls-119" points="143.8 234.08 159.38 323.7 159.33 323.71 143.75 234.08 143.8 234.08"/><polygon class="cls-119" points="143.85 234.08 159.43 323.7 159.38 323.7 143.8 234.08 143.85 234.08"/><polygon class="cls-120" points="143.9 234.08 159.48 323.69 159.43 323.7 143.85 234.08 143.9 234.08"/><polygon class="cls-120" points="143.95 234.08 159.53 323.68 159.48 323.69 143.9 234.08 143.95 234.08"/><polygon class="cls-121" points="144 234.08 159.58 323.67 159.53 323.68 143.95 234.08 144 234.08"/><polygon class="cls-121" points="144.05 234.08 159.63 323.66 159.58 323.67 144 234.08 144.05 234.08"/><polygon class="cls-122" points="144.1 234.08 159.68 323.65 159.63 323.66 144.05 234.08 144.1 234.08"/><polygon class="cls-123" points="144.16 234.08 159.73 323.64 159.68 323.65 144.1 234.08 144.16 234.08"/><polygon class="cls-124" points="144.21 234.08 159.78 323.64 159.73 323.64 144.16 234.08 144.21 234.08"/><polygon class="cls-125" points="144.26 234.08 159.83 323.63 159.78 323.64 144.21 234.08 144.26 234.08"/><polygon class="cls-126" points="144.31 234.08 159.88 323.62 159.83 323.63 144.26 234.08 144.31 234.08"/><polygon class="cls-127" points="144.36 234.08 159.93 323.61 159.88 323.62 144.31 234.08 144.36 234.08"/><polygon class="cls-128" points="144.41 234.08 159.98 323.6 159.93 323.61 144.36 234.08 144.41 234.08"/><polygon class="cls-128" points="144.46 234.08 160.03 323.59 159.98 323.6 144.41 234.08 144.46 234.08"/><polygon class="cls-129" points="144.51 234.08 160.08 323.58 160.03 323.59 144.46 234.08 144.51 234.08"/><polygon class="cls-129" points="144.56 234.08 160.13 323.57 160.08 323.58 144.51 234.08 144.56 234.08"/><polygon class="cls-130" points="144.62 234.08 160.18 323.57 160.13 323.57 144.56 234.08 144.62 234.08"/><polygon class="cls-131" points="144.67 234.08 160.23 323.56 160.18 323.57 144.62 234.08 144.67 234.08"/><polygon class="cls-132" points="144.72 234.08 160.28 323.55 160.23 323.56 144.67 234.08 144.72 234.08"/><polygon class="cls-133" points="144.77 234.08 160.33 323.54 160.28 323.55 144.72 234.08 144.77 234.08"/><polygon class="cls-134" points="144.82 234.08 160.38 323.53 160.33 323.54 144.77 234.08 144.82 234.08"/><polygon class="cls-135" points="144.87 234.08 160.43 323.52 160.38 323.53 144.82 234.08 144.87 234.08"/><polygon class="cls-135" points="144.92 234.08 160.48 323.51 160.43 323.52 144.87 234.08 144.92 234.08"/><polygon class="cls-136" points="144.97 234.08 160.53 323.51 160.48 323.51 144.92 234.08 144.97 234.08"/><polygon class="cls-136" points="145.03 234.08 160.57 323.5 160.53 323.51 144.97 234.08 145.03 234.08"/><polygon class="cls-137" points="145.08 234.08 160.63 323.49 160.57 323.5 145.03 234.08 145.08 234.08"/><polygon class="cls-137" points="145.13 234.08 160.68 323.48 160.63 323.49 145.08 234.08 145.13 234.08"/><polygon class="cls-138" points="145.18 234.08 160.72 323.47 160.68 323.48 145.13 234.08 145.18 234.08"/><polygon class="cls-138" points="145.23 234.08 160.77 323.46 160.72 323.47 145.18 234.08 145.23 234.08"/><polygon class="cls-138" points="145.28 234.08 160.82 323.45 160.77 323.46 145.23 234.08 145.28 234.08"/><polygon class="cls-139" points="145.33 234.08 160.87 323.45 160.82 323.45 145.28 234.08 145.33 234.08"/><polygon class="cls-139" points="145.38 234.08 160.92 323.44 160.87 323.45 145.33 234.08 145.38 234.08"/><polygon class="cls-140" points="145.44 234.08 160.97 323.43 160.92 323.44 145.38 234.08 145.44 234.08"/><polygon class="cls-140" points="145.49 234.08 161.02 323.42 160.97 323.43 145.44 234.08 145.49 234.08"/><polygon class="cls-141" points="145.54 234.08 161.07 323.41 161.02 323.42 145.49 234.08 145.54 234.08"/><polygon class="cls-141" points="145.59 234.08 161.12 323.4 161.07 323.41 145.54 234.08 145.59 234.08"/><polygon class="cls-142" points="145.64 234.08 161.17 323.39 161.12 323.4 145.59 234.08 145.64 234.08"/><polygon class="cls-142" points="145.69 234.08 161.22 323.38 161.17 323.39 145.64 234.08 145.69 234.08"/><polygon class="cls-143" points="145.74 234.08 161.27 323.38 161.22 323.38 145.69 234.08 145.74 234.08"/><polygon class="cls-144" points="145.79 234.08 161.32 323.37 161.27 323.38 145.74 234.08 145.79 234.08"/><polygon class="cls-145" points="145.84 234.08 161.37 323.36 161.32 323.37 145.79 234.08 145.84 234.08"/><polygon class="cls-146" points="145.9 234.08 161.42 323.35 161.37 323.36 145.84 234.08 145.9 234.08"/><polygon class="cls-146" points="145.95 234.08 161.47 323.34 161.42 323.35 145.9 234.08 145.95 234.08"/><polygon class="cls-147" points="146 234.08 161.52 323.33 161.47 323.34 145.95 234.08 146 234.08"/><polygon class="cls-147" points="146.05 234.08 161.57 323.32 161.52 323.33 146 234.08 146.05 234.08"/><polygon class="cls-148" points="146.1 234.08 161.62 323.32 161.57 323.32 146.05 234.08 146.1 234.08"/><polygon class="cls-149" points="146.15 234.08 161.67 323.31 161.62 323.32 146.1 234.08 146.15 234.08"/><polygon class="cls-150" points="146.2 234.08 161.72 323.3 161.67 323.31 146.15 234.08 146.2 234.08"/><polygon class="cls-151" points="146.25 234.08 161.77 323.29 161.72 323.3 146.2 234.08 146.25 234.08"/><polygon class="cls-152" points="146.3 234.08 161.82 323.28 161.77 323.29 146.25 234.08 146.3 234.08"/><polygon class="cls-153" points="146.36 234.08 161.87 323.27 161.82 323.28 146.3 234.08 146.36 234.08"/><polygon class="cls-154" points="146.41 234.08 161.92 323.26 161.87 323.27 146.36 234.08 146.41 234.08"/><polygon class="cls-155" points="146.46 234.08 161.97 323.26 161.92 323.26 146.41 234.08 146.46 234.08"/><polygon class="cls-155" points="146.51 234.08 162.02 323.25 161.97 323.26 146.46 234.08 146.51 234.08"/><polygon class="cls-156" points="146.56 234.08 162.06 323.24 162.02 323.25 146.51 234.08 146.56 234.08"/><polygon class="cls-156" points="146.61 234.08 162.12 323.23 162.06 323.24 146.56 234.08 146.61 234.08"/><polygon class="cls-157" points="146.66 234.08 162.16 323.22 162.12 323.23 146.61 234.08 146.66 234.08"/><polygon class="cls-158" points="146.71 234.08 162.21 323.21 162.16 323.22 146.66 234.08 146.71 234.08"/><polygon class="cls-159" points="146.76 234.08 162.26 323.2 162.21 323.21 146.71 234.08 146.76 234.08"/><polygon class="cls-160" points="146.82 234.08 162.31 323.19 162.26 323.2 146.76 234.08 146.82 234.08"/><polygon class="cls-161" points="146.87 234.08 162.36 323.19 162.31 323.19 146.82 234.08 146.87 234.08"/><polygon class="cls-162" points="146.92 234.08 162.41 323.18 162.36 323.19 146.87 234.08 146.92 234.08"/><polygon class="cls-163" points="146.97 234.08 162.46 323.17 162.41 323.18 146.92 234.08 146.97 234.08"/><polygon class="cls-164" points="147.02 234.08 162.51 323.16 162.46 323.17 146.97 234.08 147.02 234.08"/><polygon class="cls-165" points="147.07 234.08 162.56 323.15 162.51 323.16 147.02 234.08 147.07 234.08"/><polygon class="cls-166" points="147.12 234.08 162.61 323.14 162.56 323.15 147.07 234.08 147.12 234.08"/><polygon class="cls-166" points="147.17 234.08 162.66 323.13 162.61 323.14 147.12 234.08 147.17 234.08"/><polygon class="cls-167" points="147.22 234.08 162.71 323.13 162.66 323.13 147.17 234.08 147.22 234.08"/><polygon class="cls-168" points="147.28 234.08 162.76 323.12 162.71 323.13 147.22 234.08 147.28 234.08"/><polygon class="cls-169" points="147.33 234.08 162.81 323.11 162.76 323.12 147.28 234.08 147.33 234.08"/><polygon class="cls-170" points="147.38 234.08 162.86 323.1 162.81 323.11 147.33 234.08 147.38 234.08"/><polygon class="cls-171" points="147.43 234.08 162.91 323.09 162.86 323.1 147.38 234.08 147.43 234.08"/><polygon class="cls-172" points="147.48 234.08 162.96 323.08 162.91 323.09 147.43 234.08 147.48 234.08"/><polygon class="cls-173" points="147.53 234.08 163.01 323.07 162.96 323.08 147.48 234.08 147.53 234.08"/><polygon class="cls-174" points="147.58 234.08 163.06 323.07 163.01 323.07 147.53 234.08 147.58 234.08"/><polygon class="cls-175" points="147.63 234.08 163.11 323.06 163.06 323.07 147.58 234.08 147.63 234.08"/><polygon class="cls-176" points="147.69 234.08 163.16 323.05 163.11 323.06 147.63 234.08 147.69 234.08"/><polygon class="cls-176" points="147.74 234.08 163.21 323.04 163.16 323.05 147.69 234.08 147.74 234.08"/><polygon class="cls-177" points="147.79 234.08 163.26 323.03 163.21 323.04 147.74 234.08 147.79 234.08"/><polygon class="cls-177" points="147.84 234.08 163.31 323.02 163.26 323.03 147.79 234.08 147.84 234.08"/><polygon class="cls-178" points="147.89 234.08 163.36 323.01 163.31 323.02 147.84 234.08 147.89 234.08"/><polygon class="cls-179" points="147.94 234.08 163.41 323 163.36 323.01 147.89 234.08 147.94 234.08"/><polygon class="cls-180" points="147.99 234.08 163.46 323 163.41 323 147.94 234.08 147.99 234.08"/><polygon class="cls-181" points="148.04 234.08 163.51 322.99 163.46 323 147.99 234.08 148.04 234.08"/><polygon class="cls-182" points="148.09 234.08 163.56 322.98 163.51 322.99 148.04 234.08 148.09 234.08"/><polygon class="cls-3" points="148.15 234.08 163.6 322.97 163.56 322.98 148.09 234.08 148.15 234.08"/><polygon class="cls-3" points="164.06 322.89 163.6 322.97 148.15 234.08 164.06 234.08 164.06 322.89"/></g><g class="cls-184"><polygon class="cls-5" points="207.8 258.42 166.36 286.4 166.36 258.42 207.8 258.42"/><polygon class="cls-5" points="208.17 258.42 166.36 286.65 166.36 286.4 207.8 258.42 208.17 258.42"/><polygon class="cls-6" points="208.54 258.42 166.36 286.9 166.36 286.65 208.17 258.42 208.54 258.42"/><polygon class="cls-7" points="208.91 258.42 166.36 287.15 166.36 286.9 208.54 258.42 208.91 258.42"/><polygon class="cls-8" points="209.28 258.42 166.36 287.4 166.36 287.15 208.91 258.42 209.28 258.42"/><polygon class="cls-9" points="209.65 258.42 166.36 287.65 166.36 287.4 209.28 258.42 209.65 258.42"/><polygon class="cls-10" points="210.02 258.42 166.36 287.9 166.36 287.65 209.65 258.42 210.02 258.42"/><polygon class="cls-11" points="210.39 258.42 166.36 288.16 166.36 287.9 210.02 258.42 210.39 258.42"/><polygon class="cls-12" points="210.77 258.42 166.36 288.41 166.36 288.16 210.39 258.42 210.77 258.42"/><polygon class="cls-13" points="211.14 258.42 166.36 288.66 166.36 288.41 210.77 258.42 211.14 258.42"/><polygon class="cls-14" points="211.51 258.42 166.36 288.91 166.36 288.66 211.14 258.42 211.51 258.42"/><polygon class="cls-15" points="211.88 258.42 166.36 289.16 166.36 288.91 211.51 258.42 211.88 258.42"/><polygon class="cls-16" points="212.25 258.42 166.36 289.41 166.36 289.16 211.88 258.42 212.25 258.42"/><polygon class="cls-17" points="212.62 258.42 166.36 289.66 166.36 289.41 212.25 258.42 212.62 258.42"/><polygon class="cls-18" points="212.99 258.42 166.36 289.91 166.36 289.66 212.62 258.42 212.99 258.42"/><polygon class="cls-19" points="213.36 258.42 166.36 290.16 166.36 289.91 212.99 258.42 213.36 258.42"/><polygon class="cls-20" points="213.74 258.42 166.36 290.41 166.36 290.16 213.36 258.42 213.74 258.42"/><polygon class="cls-21" points="214.11 258.42 166.36 290.66 166.36 290.41 213.74 258.42 214.11 258.42"/><polygon class="cls-22" points="214.48 258.42 166.36 290.91 166.36 290.66 214.11 258.42 214.48 258.42"/><polygon class="cls-23" points="214.85 258.42 166.36 291.16 166.36 290.91 214.48 258.42 214.85 258.42"/><polygon class="cls-24" points="215.22 258.42 166.36 291.42 166.36 291.16 214.85 258.42 215.22 258.42"/><polygon class="cls-25" points="215.59 258.42 166.36 291.67 166.36 291.42 215.22 258.42 215.59 258.42"/><polygon class="cls-26" points="215.96 258.42 166.36 291.92 166.36 291.67 215.59 258.42 215.96 258.42"/><polygon class="cls-27" points="216.33 258.42 166.36 292.17 166.36 291.92 215.96 258.42 216.33 258.42"/><polygon class="cls-28" points="216.71 258.42 166.36 292.42 166.36 292.17 216.33 258.42 216.71 258.42"/><polygon class="cls-29" points="217.08 258.42 166.36 292.67 166.36 292.42 216.71 258.42 217.08 258.42"/><polygon class="cls-30" points="217.45 258.42 166.36 292.92 166.36 292.67 217.08 258.42 217.45 258.42"/><polygon class="cls-31" points="217.82 258.42 166.36 293.17 166.36 292.92 217.45 258.42 217.82 258.42"/><polygon class="cls-32" points="218.19 258.42 166.36 293.42 166.36 293.17 217.82 258.42 218.19 258.42"/><polygon class="cls-33" points="218.56 258.42 166.36 293.67 166.36 293.42 218.19 258.42 218.56 258.42"/><polygon class="cls-34" points="218.93 258.42 166.36 293.92 166.36 293.67 218.56 258.42 218.93 258.42"/><polygon class="cls-35" points="219.3 258.42 166.36 294.17 166.36 293.92 218.93 258.42 219.3 258.42"/><polygon class="cls-36" points="219.68 258.42 166.36 294.42 166.36 294.17 219.3 258.42 219.68 258.42"/><polygon class="cls-37" points="220.05 258.42 166.36 294.67 166.36 294.42 219.68 258.42 220.05 258.42"/><polygon class="cls-38" points="220.42 258.42 166.36 294.93 166.36 294.67 220.05 258.42 220.42 258.42"/><polygon class="cls-39" points="220.79 258.42 166.36 295.18 166.36 294.93 220.42 258.42 220.79 258.42"/><polygon class="cls-40" points="221.16 258.42 166.36 295.43 166.36 295.18 220.79 258.42 221.16 258.42"/><polygon class="cls-41" points="221.53 258.42 166.36 295.68 166.36 295.43 221.16 258.42 221.53 258.42"/><polygon class="cls-42" points="221.9 258.42 166.36 295.93 166.36 295.68 221.53 258.42 221.9 258.42"/><polygon class="cls-43" points="222.27 258.42 166.36 296.18 166.36 295.93 221.9 258.42 222.27 258.42"/><polygon class="cls-44" points="222.65 258.42 166.36 296.43 166.36 296.18 222.27 258.42 222.65 258.42"/><polygon class="cls-45" points="223.02 258.42 166.36 296.68 166.36 296.43 222.65 258.42 223.02 258.42"/><polygon class="cls-46" points="223.39 258.42 166.36 296.93 166.36 296.68 223.02 258.42 223.39 258.42"/><polygon class="cls-47" points="223.76 258.42 166.36 297.18 166.36 296.93 223.39 258.42 223.76 258.42"/><polygon class="cls-48" points="224.13 258.42 166.36 297.43 166.36 297.18 223.76 258.42 224.13 258.42"/><polygon class="cls-49" points="224.5 258.42 166.36 297.68 166.36 297.43 224.13 258.42 224.5 258.42"/><polygon class="cls-49" points="224.87 258.42 166.36 297.93 166.36 297.68 224.5 258.42 224.87 258.42"/><polygon class="cls-50" points="225.24 258.42 166.36 298.18 166.36 297.93 224.87 258.42 225.24 258.42"/><polygon class="cls-50" points="225.61 258.42 166.36 298.43 166.36 298.18 225.24 258.42 225.61 258.42"/><polygon class="cls-51" points="225.99 258.42 166.36 298.69 166.36 298.43 225.61 258.42 225.99 258.42"/><polygon class="cls-52" points="226.36 258.42 166.36 298.94 166.36 298.69 225.99 258.42 226.36 258.42"/><polygon class="cls-53" points="226.73 258.42 166.36 299.19 166.36 298.94 226.36 258.42 226.73 258.42"/><polygon class="cls-53" points="227.1 258.42 166.36 299.44 166.36 299.19 226.73 258.42 227.1 258.42"/><polygon class="cls-54" points="227.47 258.42 166.36 299.69 166.36 299.44 227.1 258.42 227.47 258.42"/><polygon class="cls-54" points="227.84 258.42 166.36 299.94 166.36 299.69 227.47 258.42 227.84 258.42"/><polygon class="cls-55" points="228.21 258.42 166.36 300.19 166.36 299.94 227.84 258.42 228.21 258.42"/><polygon class="cls-55" points="228.58 258.42 166.36 300.44 166.36 300.19 228.21 258.42 228.58 258.42"/><polygon class="cls-56" points="228.96 258.42 166.36 300.69 166.36 300.44 228.58 258.42 228.96 258.42"/><polygon class="cls-57" points="229.33 258.42 166.36 300.94 166.36 300.69 228.96 258.42 229.33 258.42"/><polygon class="cls-58" points="229.7 258.42 166.36 301.19 166.36 300.94 229.33 258.42 229.7 258.42"/><polygon class="cls-58" points="230.07 258.42 166.36 301.44 166.36 301.19 229.7 258.42 230.07 258.42"/><polygon class="cls-59" points="230.44 258.42 166.36 301.69 166.36 301.44 230.07 258.42 230.44 258.42"/><polygon class="cls-59" points="230.81 258.42 166.36 301.94 166.36 301.69 230.44 258.42 230.81 258.42"/><polygon class="cls-60" points="231.18 258.42 166.36 302.19 166.36 301.94 230.81 258.42 231.18 258.42"/><polygon class="cls-61" points="231.55 258.42 166.36 302.44 166.36 302.19 231.18 258.42 231.55 258.42"/><polygon class="cls-62" points="231.93 258.42 166.36 302.7 166.36 302.44 231.55 258.42 231.93 258.42"/><polygon class="cls-62" points="232.3 258.42 166.36 302.95 166.36 302.7 231.93 258.42 232.3 258.42"/><polygon class="cls-63" points="232.67 258.42 166.36 303.2 166.36 302.95 232.3 258.42 232.67 258.42"/><polygon class="cls-63" points="233.04 258.42 166.36 303.45 166.36 303.2 232.67 258.42 233.04 258.42"/><polygon class="cls-64" points="233.41 258.42 166.36 303.7 166.36 303.45 233.04 258.42 233.41 258.42"/><polygon class="cls-65" points="233.78 258.42 166.36 303.95 166.36 303.7 233.41 258.42 233.78 258.42"/><polygon class="cls-66" points="234.15 258.42 166.36 304.2 166.36 303.95 233.78 258.42 234.15 258.42"/><polygon class="cls-66" points="234.52 258.42 166.36 304.45 166.36 304.2 234.15 258.42 234.52 258.42"/><polygon class="cls-67" points="234.9 258.42 166.36 304.7 166.36 304.45 234.52 258.42 234.9 258.42"/><polygon class="cls-67" points="235.27 258.42 166.36 304.95 166.36 304.7 234.9 258.42 235.27 258.42"/><polygon class="cls-68" points="235.64 258.42 166.36 305.2 166.36 304.95 235.27 258.42 235.64 258.42"/><polygon class="cls-68" points="236.01 258.42 166.36 305.45 166.36 305.2 235.64 258.42 236.01 258.42"/><polygon class="cls-68" points="236.38 258.42 166.36 305.7 166.36 305.45 236.01 258.42 236.38 258.42"/><polygon class="cls-69" points="236.75 258.42 166.36 305.95 166.36 305.7 236.38 258.42 236.75 258.42"/><polygon class="cls-69" points="237.12 258.42 166.36 306.21 166.36 305.95 236.75 258.42 237.12 258.42"/><polygon class="cls-70" points="237.49 258.42 166.36 306.46 166.36 306.21 237.12 258.42 237.49 258.42"/><polygon class="cls-71" points="237.87 258.42 166.36 306.71 166.36 306.46 237.49 258.42 237.87 258.42"/><polygon class="cls-72" points="238.24 258.42 166.36 306.96 166.36 306.71 237.87 258.42 238.24 258.42"/><polygon class="cls-72" points="238.61 258.42 166.36 307.21 166.36 306.96 238.24 258.42 238.61 258.42"/><polygon class="cls-73" points="238.98 258.42 166.36 307.46 166.36 307.21 238.61 258.42 238.98 258.42"/><polygon class="cls-73" points="239.35 258.42 166.36 307.71 166.36 307.46 238.98 258.42 239.35 258.42"/><polygon class="cls-74" points="239.72 258.42 166.36 307.96 166.36 307.71 239.35 258.42 239.72 258.42"/><polygon class="cls-75" points="240.09 258.42 166.36 308.21 166.36 307.96 239.72 258.42 240.09 258.42"/><polygon class="cls-75" points="240.46 258.42 166.36 308.46 166.36 308.21 240.09 258.42 240.46 258.42"/><polygon class="cls-76" points="240.83 258.42 166.36 308.71 166.36 308.46 240.46 258.42 240.83 258.42"/><polygon class="cls-77" points="241.21 258.42 166.36 308.96 166.36 308.71 240.83 258.42 241.21 258.42"/><polygon class="cls-78" points="241.58 258.42 166.36 309.21 166.36 308.96 241.21 258.42 241.58 258.42"/><polygon class="cls-78" points="241.95 258.42 166.36 309.46 166.36 309.21 241.58 258.42 241.95 258.42"/><polygon class="cls-79" points="242.32 258.42 166.42 309.67 166.36 309.58 166.36 309.46 241.95 258.42 242.32 258.42"/><polygon class="cls-79" points="242.69 258.42 166.54 309.85 166.42 309.67 242.32 258.42 242.69 258.42"/><polygon class="cls-80" points="243.06 258.42 166.65 310.02 166.54 309.85 242.69 258.42 243.06 258.42"/><polygon class="cls-80" points="243.43 258.42 166.77 310.19 166.65 310.02 243.06 258.42 243.43 258.42"/><polygon class="cls-80" points="243.8 258.42 166.89 310.36 166.77 310.19 243.43 258.42 243.8 258.42"/><polygon class="cls-81" points="244.18 258.42 167 310.54 166.89 310.36 243.8 258.42 244.18 258.42"/><polygon class="cls-81" points="244.55 258.42 167.12 310.71 167 310.54 244.18 258.42 244.55 258.42"/><polygon class="cls-82" points="244.92 258.42 167.24 310.88 167.12 310.71 244.55 258.42 244.92 258.42"/><polygon class="cls-83" points="245.29 258.42 167.35 311.05 167.24 310.88 244.92 258.42 245.29 258.42"/><polygon class="cls-84" points="245.66 258.42 167.47 311.22 167.35 311.05 245.29 258.42 245.66 258.42"/><polygon class="cls-84" points="246.03 258.42 167.58 311.4 167.47 311.22 245.66 258.42 246.03 258.42"/><polygon class="cls-85" points="246.4 258.42 167.7 311.57 167.58 311.4 246.03 258.42 246.4 258.42"/><polygon class="cls-85" points="246.77 258.42 167.82 311.74 167.7 311.57 246.4 258.42 246.77 258.42"/><polygon class="cls-86" points="247.15 258.42 167.93 311.91 167.82 311.74 246.77 258.42 247.15 258.42"/><polygon class="cls-87" points="247.52 258.42 168.05 312.08 167.93 311.91 247.15 258.42 247.52 258.42"/><polygon class="cls-87" points="247.89 258.42 168.16 312.26 168.05 312.08 247.52 258.42 247.89 258.42"/><polygon class="cls-88" points="248.26 258.42 168.28 312.43 168.16 312.26 247.89 258.42 248.26 258.42"/><polygon class="cls-88" points="248.63 258.42 168.4 312.6 168.28 312.43 248.26 258.42 248.63 258.42"/><polygon class="cls-89" points="248.83 258.53 168.51 312.77 168.4 312.6 248.63 258.42 248.83 258.42 248.83 258.53"/><polygon class="cls-90" points="248.83 258.78 168.63 312.95 168.51 312.77 248.83 258.53 248.83 258.78"/><polygon class="cls-91" points="248.83 259.03 168.75 313.12 168.63 312.95 248.83 258.78 248.83 259.03"/><polygon class="cls-91" points="248.83 259.28 168.86 313.29 168.75 313.12 248.83 259.03 248.83 259.28"/><polygon class="cls-92" points="248.83 259.54 168.98 313.46 168.86 313.29 248.83 259.28 248.83 259.54"/><polygon class="cls-93" points="248.83 259.79 169.1 313.63 168.98 313.46 248.83 259.54 248.83 259.79"/><polygon class="cls-94" points="248.83 260.04 169.21 313.81 169.1 313.63 248.83 259.79 248.83 260.04"/><polygon class="cls-95" points="248.83 260.29 169.33 313.98 169.21 313.81 248.83 260.04 248.83 260.29"/><polygon class="cls-95" points="248.83 260.54 169.44 314.15 169.33 313.98 248.83 260.29 248.83 260.54"/><polygon class="cls-96" points="248.83 260.79 169.56 314.32 169.44 314.15 248.83 260.54 248.83 260.79"/><polygon class="cls-96" points="248.83 261.04 169.68 314.5 169.56 314.32 248.83 260.79 248.83 261.04"/><polygon class="cls-97" points="248.83 261.29 169.79 314.67 169.68 314.5 248.83 261.04 248.83 261.29"/><polygon class="cls-97" points="248.83 261.54 169.91 314.84 169.79 314.67 248.83 261.29 248.83 261.54"/><polygon class="cls-98" points="248.83 261.79 170.03 315.01 169.91 314.84 248.83 261.54 248.83 261.79"/><polygon class="cls-99" points="248.83 262.04 170.14 315.18 170.03 315.01 248.83 261.79 248.83 262.04"/><polygon class="cls-99" points="248.83 262.29 170.26 315.36 170.14 315.18 248.83 262.04 248.83 262.29"/><polygon class="cls-100" points="248.83 262.54 170.38 315.53 170.26 315.36 248.83 262.29 248.83 262.54"/><polygon class="cls-101" points="248.83 262.79 170.49 315.7 170.38 315.53 248.83 262.54 248.83 262.79"/><polygon class="cls-102" points="248.83 263.05 170.61 315.87 170.49 315.7 248.83 262.79 248.83 263.05"/><polygon class="cls-103" points="248.83 263.3 170.72 316.05 170.61 315.87 248.83 263.05 248.83 263.3"/><polygon class="cls-104" points="248.83 263.55 170.84 316.22 170.72 316.05 248.83 263.3 248.83 263.55"/><polygon class="cls-104" points="248.83 263.8 170.96 316.39 170.84 316.22 248.83 263.55 248.83 263.8"/><polygon class="cls-105" points="248.83 264.05 171.07 316.56 170.96 316.39 248.83 263.8 248.83 264.05"/><polygon class="cls-105" points="248.83 264.3 171.19 316.73 171.07 316.56 248.83 264.05 248.83 264.3"/><polygon class="cls-106" points="248.83 264.55 171.31 316.91 171.19 316.73 248.83 264.3 248.83 264.55"/><polygon class="cls-106" points="248.83 264.8 171.42 317.08 171.31 316.91 248.83 264.55 248.83 264.8"/><polygon class="cls-107" points="248.83 265.05 171.54 317.25 171.42 317.08 248.83 264.8 248.83 265.05"/><polygon class="cls-107" points="248.83 265.3 171.65 317.42 171.54 317.25 248.83 265.05 248.83 265.3"/><polygon class="cls-107" points="248.83 265.55 171.77 317.59 171.65 317.42 248.83 265.3 248.83 265.55"/><polygon class="cls-108" points="248.83 265.8 171.89 317.77 171.77 317.59 248.83 265.55 248.83 265.8"/><polygon class="cls-108" points="248.83 266.05 172 317.94 171.89 317.77 248.83 265.8 248.83 266.05"/><polygon class="cls-109" points="248.83 266.3 172.12 318.11 172 317.94 248.83 266.05 248.83 266.3"/><polygon class="cls-109" points="248.83 266.55 172.24 318.28 172.12 318.11 248.83 266.3 248.83 266.55"/><polygon class="cls-110" points="248.83 266.81 172.35 318.45 172.24 318.28 248.83 266.55 248.83 266.81"/><polygon class="cls-111" points="248.83 267.06 172.47 318.63 172.35 318.45 248.83 266.81 248.83 267.06"/><polygon class="cls-112" points="248.83 267.31 172.58 318.8 172.47 318.63 248.83 267.06 248.83 267.31"/><polygon class="cls-113" points="248.83 267.56 172.7 318.97 172.58 318.8 248.83 267.31 248.83 267.56"/><polygon class="cls-114" points="248.83 267.81 172.82 319.14 172.7 318.97 248.83 267.56 248.83 267.81"/><polygon class="cls-114" points="248.83 268.06 172.93 319.32 172.82 319.14 248.83 267.81 248.83 268.06"/><polygon class="cls-115" points="248.83 268.31 173.05 319.49 172.93 319.32 248.83 268.06 248.83 268.31"/><polygon class="cls-115" points="248.83 268.56 173.16 319.66 173.05 319.49 248.83 268.31 248.83 268.56"/><polygon class="cls-116" points="248.83 268.81 173.28 319.83 173.16 319.66 248.83 268.56 248.83 268.81"/><polygon class="cls-116" points="248.83 269.06 173.4 320 173.28 319.83 248.83 268.81 248.83 269.06"/><polygon class="cls-117" points="248.83 269.31 173.51 320.18 173.4 320 248.83 269.06 248.83 269.31"/><polygon class="cls-118" points="248.83 269.56 173.63 320.35 173.51 320.18 248.83 269.31 248.83 269.56"/><polygon class="cls-118" points="248.83 269.81 173.75 320.52 173.63 320.35 248.83 269.56 248.83 269.81"/><polygon class="cls-119" points="248.83 270.06 173.86 320.69 173.75 320.52 248.83 269.81 248.83 270.06"/><polygon class="cls-119" points="248.83 270.31 173.98 320.87 173.86 320.69 248.83 270.06 248.83 270.31"/><polygon class="cls-120" points="248.83 270.56 174.09 321.04 173.98 320.87 248.83 270.31 248.83 270.56"/><polygon class="cls-120" points="248.83 270.82 174.21 321.21 174.09 321.04 248.83 270.56 248.83 270.82"/><polygon class="cls-121" points="248.83 271.07 174.33 321.38 174.21 321.21 248.83 270.82 248.83 271.07"/><polygon class="cls-121" points="248.83 271.32 174.44 321.55 174.33 321.38 248.83 271.07 248.83 271.32"/><polygon class="cls-122" points="248.83 271.57 174.56 321.73 174.44 321.55 248.83 271.32 248.83 271.57"/><polygon class="cls-123" points="248.83 271.82 174.68 321.9 174.56 321.73 248.83 271.57 248.83 271.82"/><polygon class="cls-124" points="248.83 272.07 174.79 322.07 174.68 321.9 248.83 271.82 248.83 272.07"/><polygon class="cls-125" points="248.83 272.32 174.91 322.24 174.79 322.07 248.83 272.07 248.83 272.32"/><polygon class="cls-126" points="248.83 272.57 175.03 322.42 174.91 322.24 248.83 272.32 248.83 272.57"/><polygon class="cls-127" points="248.83 272.82 175.14 322.59 175.03 322.42 248.83 272.57 248.83 272.82"/><polygon class="cls-128" points="248.83 273.07 175.26 322.76 175.14 322.59 248.83 272.82 248.83 273.07"/><polygon class="cls-128" points="248.83 273.32 175.37 322.93 175.26 322.76 248.83 273.07 248.83 273.32"/><polygon class="cls-129" points="248.83 273.57 175.49 323.1 175.37 322.93 248.83 273.32 248.83 273.57"/><polygon class="cls-129" points="248.83 273.82 175.61 323.28 175.49 323.1 248.83 273.57 248.83 273.82"/><polygon class="cls-130" points="248.83 274.07 175.72 323.45 175.61 323.28 248.83 273.82 248.83 274.07"/><polygon class="cls-131" points="248.83 274.33 175.84 323.62 175.72 323.45 248.83 274.07 248.83 274.33"/><polygon class="cls-132" points="248.83 274.58 175.96 323.79 175.84 323.62 248.83 274.33 248.83 274.58"/><polygon class="cls-133" points="248.83 274.83 176.07 323.96 175.96 323.79 248.83 274.58 248.83 274.83"/><polygon class="cls-134" points="248.83 275.08 176.19 324.14 176.07 323.96 248.83 274.83 248.83 275.08"/><polygon class="cls-135" points="248.83 275.33 176.3 324.31 176.19 324.14 248.83 275.08 248.83 275.33"/><polygon class="cls-135" points="248.83 275.58 176.42 324.48 176.3 324.31 248.83 275.33 248.83 275.58"/><polygon class="cls-136" points="248.83 275.83 176.54 324.65 176.42 324.48 248.83 275.58 248.83 275.83"/><polygon class="cls-136" points="248.83 276.08 176.65 324.83 176.54 324.65 248.83 275.83 248.83 276.08"/><polygon class="cls-137" points="248.83 276.33 176.77 325 176.65 324.83 248.83 276.08 248.83 276.33"/><polygon class="cls-137" points="248.83 276.58 176.89 325.17 176.77 325 248.83 276.33 248.83 276.58"/><polygon class="cls-138" points="248.83 276.83 177 325.34 176.89 325.17 248.83 276.58 248.83 276.83"/><polygon class="cls-138" points="248.83 277.08 177.12 325.51 177 325.34 248.83 276.83 248.83 277.08"/><polygon class="cls-138" points="248.83 277.33 177.24 325.69 177.12 325.51 248.83 277.08 248.83 277.33"/><polygon class="cls-139" points="248.83 277.58 177.35 325.86 177.24 325.69 248.83 277.33 248.83 277.58"/><polygon class="cls-139" points="248.83 277.84 177.47 326.03 177.35 325.86 248.83 277.58 248.83 277.84"/><polygon class="cls-140" points="248.83 278.09 177.58 326.2 177.47 326.03 248.83 277.84 248.83 278.09"/><polygon class="cls-140" points="248.83 278.34 177.7 326.38 177.58 326.2 248.83 278.09 248.83 278.34"/><polygon class="cls-141" points="248.83 278.59 177.82 326.55 177.7 326.38 248.83 278.34 248.83 278.59"/><polygon class="cls-141" points="248.83 278.84 177.93 326.72 177.82 326.55 248.83 278.59 248.83 278.84"/><polygon class="cls-142" points="248.83 279.09 178.05 326.89 177.93 326.72 248.83 278.84 248.83 279.09"/><polygon class="cls-142" points="248.83 279.34 178.16 327.06 178.05 326.89 248.83 279.09 248.83 279.34"/><polygon class="cls-143" points="248.83 279.59 178.28 327.24 178.16 327.06 248.83 279.34 248.83 279.59"/><polygon class="cls-144" points="248.83 279.84 178.4 327.41 178.28 327.24 248.83 279.59 248.83 279.84"/><polygon class="cls-145" points="248.83 280.09 178.51 327.58 178.4 327.41 248.83 279.84 248.83 280.09"/><polygon class="cls-146" points="248.83 280.34 178.63 327.75 178.51 327.58 248.83 280.09 248.83 280.34"/><polygon class="cls-146" points="248.83 280.59 178.75 327.93 178.63 327.75 248.83 280.34 248.83 280.59"/><polygon class="cls-147" points="248.83 280.84 178.86 328.1 178.75 327.93 248.83 280.59 248.83 280.84"/><polygon class="cls-147" points="248.83 281.1 178.98 328.27 178.86 328.1 248.83 280.84 248.83 281.1"/><polygon class="cls-148" points="248.83 281.35 179.09 328.44 178.98 328.27 248.83 281.1 248.83 281.35"/><polygon class="cls-149" points="248.83 281.6 179.21 328.61 179.09 328.44 248.83 281.35 248.83 281.6"/><polygon class="cls-150" points="248.83 281.85 179.33 328.79 179.21 328.61 248.83 281.6 248.83 281.85"/><polygon class="cls-151" points="248.83 282.1 179.44 328.96 179.33 328.79 248.83 281.85 248.83 282.1"/><polygon class="cls-152" points="248.83 282.35 179.56 329.13 179.44 328.96 248.83 282.1 248.83 282.35"/><polygon class="cls-153" points="248.83 282.6 179.68 329.3 179.56 329.13 248.83 282.35 248.83 282.6"/><polygon class="cls-154" points="248.83 282.85 179.79 329.47 179.68 329.3 248.83 282.6 248.83 282.85"/><polygon class="cls-155" points="248.83 283.1 179.91 329.65 179.79 329.47 248.83 282.85 248.83 283.1"/><polygon class="cls-155" points="248.83 283.35 180.03 329.82 179.91 329.65 248.83 283.1 248.83 283.35"/><polygon class="cls-156" points="248.83 283.6 180.14 329.99 180.03 329.82 248.83 283.35 248.83 283.6"/><polygon class="cls-156" points="248.83 283.85 180.26 330.16 180.14 329.99 248.83 283.6 248.83 283.85"/><polygon class="cls-157" points="248.83 284.1 180.37 330.33 180.26 330.16 248.83 283.85 248.83 284.1"/><polygon class="cls-158" points="248.83 284.35 180.49 330.51 180.37 330.33 248.83 284.1 248.83 284.35"/><polygon class="cls-159" points="248.83 284.6 180.61 330.68 180.49 330.51 248.83 284.35 248.83 284.6"/><polygon class="cls-160" points="248.83 284.86 180.72 330.85 180.61 330.68 248.83 284.6 248.83 284.86"/><polygon class="cls-161" points="248.83 285.11 180.84 331.02 180.72 330.85 248.83 284.86 248.83 285.11"/><polygon class="cls-162" points="248.83 285.36 180.96 331.2 180.84 331.02 248.83 285.11 248.83 285.36"/><polygon class="cls-163" points="248.83 285.61 181.07 331.37 180.96 331.2 248.83 285.36 248.83 285.61"/><polygon class="cls-164" points="248.83 285.86 181.19 331.54 181.07 331.37 248.83 285.61 248.83 285.86"/><polygon class="cls-165" points="248.83 286.11 181.3 331.71 181.19 331.54 248.83 285.86 248.83 286.11"/><polygon class="cls-166" points="248.83 286.36 181.42 331.88 181.3 331.71 248.83 286.11 248.83 286.36"/><polygon class="cls-166" points="248.83 286.61 181.54 332.06 181.42 331.88 248.83 286.36 248.83 286.61"/><polygon class="cls-167" points="248.83 286.86 181.65 332.23 181.54 332.06 248.83 286.61 248.83 286.86"/><polygon class="cls-168" points="248.83 287.11 181.77 332.4 181.65 332.23 248.83 286.86 248.83 287.11"/><polygon class="cls-169" points="248.83 287.36 181.89 332.57 181.77 332.4 248.83 287.11 248.83 287.36"/><polygon class="cls-170" points="248.83 287.61 182 332.75 181.89 332.57 248.83 287.36 248.83 287.61"/><polygon class="cls-171" points="248.83 287.86 182.12 332.92 182 332.75 248.83 287.61 248.83 287.86"/><polygon class="cls-172" points="248.83 288.11 182.23 333.09 182.12 332.92 248.83 287.86 248.83 288.11"/><polygon class="cls-173" points="248.83 288.37 182.35 333.26 182.23 333.09 248.83 288.11 248.83 288.37"/><polygon class="cls-174" points="248.83 288.62 182.47 333.43 182.35 333.26 248.83 288.37 248.83 288.62"/><polygon class="cls-175" points="248.83 288.87 182.58 333.61 182.47 333.43 248.83 288.62 248.83 288.87"/><polygon class="cls-176" points="248.83 289.12 182.7 333.78 182.58 333.61 248.83 288.87 248.83 289.12"/><polygon class="cls-176" points="248.83 289.37 182.82 333.95 182.7 333.78 248.83 289.12 248.83 289.37"/><polygon class="cls-177" points="248.83 289.62 182.93 334.12 182.82 333.95 248.83 289.37 248.83 289.62"/><polygon class="cls-177" points="248.83 289.87 183.05 334.3 182.93 334.12 248.83 289.62 248.83 289.87"/><polygon class="cls-178" points="248.83 290.12 183.16 334.47 183.05 334.3 248.83 289.87 248.83 290.12"/><polygon class="cls-179" points="248.83 290.37 183.28 334.64 183.16 334.47 248.83 290.12 248.83 290.37"/><polygon class="cls-180" points="248.83 290.62 183.4 334.81 183.28 334.64 248.83 290.37 248.83 290.62"/><polygon class="cls-181" points="248.83 290.87 183.51 334.98 183.4 334.81 248.83 290.62 248.83 290.87"/><polygon class="cls-182" points="248.83 291.12 183.63 335.16 183.51 334.98 248.83 290.87 248.83 291.12"/><polygon class="cls-3" points="248.83 291.37 183.75 335.33 183.63 335.16 248.83 291.12 248.83 291.37"/><polygon class="cls-3" points="190.44 345.24 183.75 335.33 248.83 291.37 248.83 345.24 190.44 345.24"/></g><path class="cls-2" d="M515.21,176l.53,179.19H452.59l3.28-52.9a403.52,403.52,0,0,1,6.31-49.89l-2.5-.39q-3.93,16.14-5.12,19.82-3,10.63-10.76,29l-22.71,54.35H380.26l-7.09-56.71a258.28,258.28,0,0,1-2.1-33.08q0-5.64.52-13.39h-2.1a467.45,467.45,0,0,1-8.27,46.47L348.1,355.17H282.33L334.44,176h68.79l7.09,55.92a153.46,153.46,0,0,1,1.18,19.82,131.52,131.52,0,0,1-1.44,19.57h2.62q4.47-23.12,16-51.2L446.42,176Z"/><path class="cls-2" d="M824.14,176l-86,179.19H683.41l-8.27-57.76A217.27,217.27,0,0,1,673,268q0-3.4.4-7.61l-2.63-.26q-1.71,8.4-3.28,14.17-2.89,10.9-10.63,31.64l-18.25,49.23H580.49L544.52,176h67.22l5.9,69.57q1.05,11.56,1.06,23.5,0,6.43-.4,14.44h2.63q1.58-11.55,2.62-16.54a203.79,203.79,0,0,1,9.59-32.69L654.8,176h53.43l7.48,68.39a275.49,275.49,0,0,1,2,30.59c0,1.84,0,4.73-.13,8.67h2.62q1.32-11.56,2.5-19a196.45,196.45,0,0,1,8.4-31.64l19.3-57Z"/></svg>