<svg id="Layer_1" data-name="Layer 1" xmlns="http://www.w3.org/2000/svg" xmlns:xlink="http://www.w3.org/1999/xlink" viewBox="0 0 841.89 595.28"><defs><style>.cls-1{fill:none;}.cls-2{fill:#282828;}.cls-3{fill:#00aeef;}.cls-4{clip-path:url(#clip-path);}.cls-5{fill:#2b3990;}.cls-6{fill:#2a3990;}.cls-7{fill:#2a3a90;}.cls-8{fill:#293a91;}.cls-9{fill:#283b91;}.cls-10{fill:#283c91;}.cls-11{fill:#273c92;}.cls-12{fill:#273d92;}.cls-13{fill:#263d92;}.cls-14{fill:#263e93;}.cls-15{fill:#253e93;}.cls-16{fill:#243f93;}.cls-17{fill:#244094;}.cls-18{fill:#234094;}.cls-19{fill:#234194;}.cls-20{fill:#224194;}.cls-21{fill:#214295;}.cls-22{fill:#204295;}.cls-23{fill:#204395;}.cls-24{fill:#1f4396;}.cls-25{fill:#1e4496;}.cls-26{fill:#1e4596;}.cls-27{fill:#1d4597;}.cls-28{fill:#1c4697;}.cls-29{fill:#1b4697;}.cls-30{fill:#1a4798;}.cls-31{fill:#194798;}.cls-32{fill:#184898;}.cls-33{fill:#174899;}.cls-34{fill:#164999;}.cls-35{fill:#154a99;}.cls-36{fill:#144a9a;}.cls-37{fill:#134b9a;}.cls-38{fill:#124b9a;}.cls-39{fill:#104c9b;}.cls-40{fill:#0f4c9b;}.cls-41{fill:#0d4d9b;}.cls-42{fill:#0b4d9c;}.cls-43{fill:#094e9c;}.cls-44{fill:#074e9c;}.cls-45{fill:#054f9d;}.cls-46{fill:#034f9d;}.cls-47{fill:#01509d;}.cls-48{fill:#00509e;}.cls-49{fill:#00519e;}.cls-50{fill:#00529f;}.cls-51{fill:#00539f;}.cls-52{fill:#0053a0;}.cls-53{fill:#0054a0;}.cls-54{fill:#0055a1;}.cls-55{fill:#0056a2;}.cls-56{fill:#0057a2;}.cls-57{fill:#0057a3;}.cls-58{fill:#0058a3;}.cls-59{fill:#0059a4;}.cls-60{fill:#005aa4;}.cls-61{fill:#005aa5;}.cls-62{fill:#005ba5;}.cls-63{fill:#005ca6;}.cls-64{fill:#005da6;}.cls-65{fill:#005da7;}.cls-66{fill:#005ea7;}.cls-67{fill:#005fa8;}.cls-68{fill:#0060a9;}.cls-69{fill:#0061aa;}.cls-70{fill:#0062aa;}.cls-71{fill:#0062ab;}.cls-72{fill:#0063ab;}.cls-73{fill:#0064ac;}.cls-74{fill:#0065ac;}.cls-75{fill:#0065ad;}.cls-76{fill:#0066ad;}.cls-77{fill:#0066ae;}.cls-78{fill:#0067ae;}.cls-79{fill:#0068af;}.cls-80{fill:#0069b0;}.cls-81{fill:#006ab1;}.cls-82{fill:#006bb1;}.cls-83{fill:#006bb2;}.cls-84{fill:#006cb2;}.cls-85{fill:#006db3;}.cls-86{fill:#006db4;}.cls-87{fill:#006eb4;}.cls-88{fill:#006fb5;}.cls-89{fill:#0070b5;}.cls-90{fill:#0070b6;}.cls-91{fill:#0071b6;}.cls-92{fill:#0071b7;}.cls-93{fill:#0072b7;}.cls-94{fill:#0072b8;}.cls-95{fill:#0073b8;}.cls-96{fill:#0074b9;}.cls-97{fill:#0075ba;}.cls-98{fill:#0076ba;}.cls-99{fill:#0076bb;}.cls-100{fill:#07b;}.cls-101{fill:#0077bc;}.cls-102{fill:#0078bc;}.cls-103{fill:#0078bd;}.cls-104{fill:#0079bd;}.cls-105{fill:#007abe;}.cls-106{fill:#007bbf;}.cls-107{fill:#007cc0;}.cls-108{fill:#007dc1;}.cls-109{fill:#007ec2;}.cls-110{fill:#007fc2;}.cls-111{fill:#007fc3;}.cls-112{fill:#0080c3;}.cls-113{fill:#0080c4;}.cls-114{fill:#0081c4;}.cls-115{fill:#0082c5;}.cls-116{fill:#0083c6;}.cls-117{fill:#0083c7;}.cls-118{fill:#0084c7;}.cls-119{fill:#0085c8;}.cls-120{fill:#0086c9;}.cls-121{fill:#0087ca;}.cls-122{fill:#0088ca;}.cls-123{fill:#0088cb;}.cls-124{fill:#0089cb;}.cls-125{fill:#0089cc;}.cls-126{fill:#008acc;}.cls-127{fill:#008acd;}.cls-128{fill:#008bcd;}.cls-129{fill:#008cce;}.cls-130{fill:#008ccf;}.cls-131{fill:#008dcf;}.cls-132{fill:#008dd0;}.cls-133{fill:#008ed0;}.cls-134{fill:#008ed1;}.cls-135{fill:#008fd1;}.cls-136{fill:#0090d2;}.cls-137{fill:#0091d3;}.cls-138{fill:#0092d4;}.cls-139{fill:#0093d5;}.cls-140{fill:#0094d6;}.cls-141{fill:#0095d7;}.cls-142{fill:#0096d8;}.cls-143{fill:#0097d8;}.cls-144{fill:#0097d9;}.cls-145{fill:#0098d9;}.cls-146{fill:#0098da;}.cls-147{fill:#0099db;}.cls-148{fill:#009adb;}.cls-149{fill:#009adc;}.cls-150{fill:#009bdc;}.cls-151{fill:#009bdd;}.cls-152{fill:#009cdd;}.cls-153{fill:#009cde;}.cls-154{fill:#009dde;}.cls-155{fill:#009ddf;}.cls-156{fill:#009ee0;}.cls-157{fill:#009fe0;}.cls-158{fill:#009fe1;}.cls-159{fill:#00a0e1;}.cls-160{fill:#00a0e2;}.cls-161{fill:#00a1e2;}.cls-162{fill:#00a1e3;}.cls-163{fill:#00a2e3;}.cls-164{fill:#00a2e4;}.cls-165{fill:#00a3e4;}.cls-166{fill:#00a3e5;}.cls-167{fill:#00a4e5;}.cls-168{fill:#00a4e6;}.cls-169{fill:#00a5e6;}.cls-170{fill:#00a5e7;}.cls-171{fill:#00a6e7;}.cls-172{fill:#00a6e8;}.cls-173{fill:#00a7e8;}.cls-174{fill:#00a7e9;}.cls-175{fill:#00a8e9;}.cls-176{fill:#00a8ea;}.cls-177{fill:#00a9eb;}.cls-178{fill:#00aaec;}.cls-179{fill:#00abec;}.cls-180{fill:#00abed;}.cls-181{fill:#00acee;}.cls-182{fill:#00adee;}.cls-183{clip-path:url(#clip-path-2);}.cls-184{clip-path:url(#clip-path-3);}.cls-185{fill:#2156a4;}</style><clipPath id="clip-path"><path class="cls-1" d="M127.12,288c-2.28-2.39-4.66-4.7-7.2-7.05,2-16.4-41.41-11.63-64-35.89-26.83-28.88-33.81-85.75-33.81-85.75,40.83,4.18,75.56,20,103.27,49.37Z"/></clipPath><clipPath id="clip-path-2"><path class="cls-1" d="M165.7,284.89l-21.33,26L145.56,231c1.34,0,2.59-1.25,4.12-3.48s3.2-4.54,4.91-6.74Z"/></clipPath><clipPath id="clip-path-3"><path class="cls-1" d="M249.13,261.58c.7,11.81,1,23.44-.67,35.28-.67,4.82-1.5,9.58-2.51,14.31l-40.73,20.32c-10.53-5.95-20-13.49-27.13-24.29a57.36,57.36,0,0,1-8-19.13c-.3-1.44-.12-3.6-2.1-4,0,0,23.1-7.7,39.62-13.74C235.05,260.3,250,245,250,245,245.41,250.53,248.82,256.21,249.13,261.58Z"/></clipPath></defs><title>Expanded</title><path class="cls-2" d="M46.26,430.31l9.2-47,15,33.94L86,383.35l8.26,47H87.48l-4.22-26.37L70.34,432.32,57.78,403.91l-4.7,26.4Z"/><path class="cls-2" d="M129.15,419.7h-18.7l-4.86,10.61H98.48l21.62-46.43L141,430.31h-7.22Zm-2.69-6.2L120,398.65,113.2,413.5Z"/><path class="cls-2" d="M155.55,407.48l-12-20.85H151l8.34,14.79,8.77-14.79h7.56L163.1,407.48l13.21,22.83h-7.38l-9.68-16.72-10,16.72h-7.46Z"/><path class="cls-2" d="M180.67,430.31l9.19-47,15,33.94,15.54-33.94,8.26,47h-6.76l-4.22-26.37-12.93,28.38-12.56-28.41-4.7,26.4Z"/><path class="cls-2" d="M235.72,408.27a21.37,21.37,0,0,1,6.76-15.84,22.22,22.22,0,0,1,16.18-6.62,22.84,22.84,0,0,1,22.72,22.71,21.53,21.53,0,0,1-6.73,16,23.08,23.08,0,0,1-31.52.73Q235.72,418.76,235.72,408.27Zm6.65.08a15.79,15.79,0,0,0,4.86,11.91,16.13,16.13,0,0,0,22.78-.08,17,17,0,0,0,.05-23.42A15.4,15.4,0,0,0,258.58,392a15.57,15.57,0,0,0-11.52,4.76A15.74,15.74,0,0,0,242.37,408.35Z"/><path class="cls-2" d="M322,389v7.8Q316.24,392,310.12,392a15,15,0,0,0-11.34,4.84,16.29,16.29,0,0,0-4.64,11.77,15.9,15.9,0,0,0,4.64,11.6,15.31,15.31,0,0,0,11.37,4.72,14,14,0,0,0,5.91-1.13,17.17,17.17,0,0,0,2.82-1.53A33.06,33.06,0,0,0,322,420v7.95a23.87,23.87,0,0,1-11.89,3.2,21.9,21.9,0,0,1-16-6.54,21.66,21.66,0,0,1-6.59-15.89A22.44,22.44,0,0,1,293,393.78a22,22,0,0,1,17.56-8A22.23,22.23,0,0,1,322,389Z"/><path class="cls-2" d="M346.62,430.31l9.19-47,15,33.94,15.53-33.94,8.27,47h-6.77l-4.21-26.37-12.93,28.38-12.56-28.41-4.7,26.4Z"/><path class="cls-2" d="M401.67,408.27a21.37,21.37,0,0,1,6.76-15.84,22.22,22.22,0,0,1,16.18-6.62,22.84,22.84,0,0,1,22.72,22.71,21.5,21.5,0,0,1-6.74,16,23.07,23.07,0,0,1-31.51.73Q401.67,418.76,401.67,408.27Zm6.65.08a15.79,15.79,0,0,0,4.86,11.91,16.11,16.11,0,0,0,22.77-.08,16.94,16.94,0,0,0,.06-23.42A15.4,15.4,0,0,0,424.53,392,15.57,15.57,0,0,0,413,396.76,15.74,15.74,0,0,0,408.32,408.35Z"/><path class="cls-2" d="M466.11,392.82v37.49h-6.59V392.82h-10v-6.19h26.65v6.19Z"/><path class="cls-2" d="M478.45,408.27a21.37,21.37,0,0,1,6.76-15.84,22.22,22.22,0,0,1,16.18-6.62,22.84,22.84,0,0,1,22.72,22.71,21.5,21.5,0,0,1-6.74,16,23.07,23.07,0,0,1-31.51.73Q478.45,418.76,478.45,408.27Zm6.64.08A15.8,15.8,0,0,0,490,420.26a16.11,16.11,0,0,0,22.77-.08,16.94,16.94,0,0,0,.06-23.42,16.27,16.27,0,0,0-23,0A15.75,15.75,0,0,0,485.09,408.35Z"/><path class="cls-2" d="M547.19,411.69l13.52,18.62h-8.06l-12.48-17.88H539v17.88h-6.6V386.63h7.73q8.65,0,12.5,3.25a12,12,0,0,1,4.25,9.56,12.41,12.41,0,0,1-2.66,8A11.83,11.83,0,0,1,547.19,411.69Zm-8.2-5h2.09q9.36,0,9.36-7.15,0-6.7-9.11-6.71H539Z"/><path class="cls-2" d="M587.31,386.63l11.37,29.19,11.88-31.31,11.37,31.31L634,386.63h7.16l-19.52,46.45-11.23-30.95-11.71,31-18.56-46.48Z"/><path class="cls-2" d="M642.44,408.27a21.41,21.41,0,0,1,6.76-15.84,22.25,22.25,0,0,1,16.19-6.62,22.82,22.82,0,0,1,22.71,22.71,21.49,21.49,0,0,1-6.73,16,23.08,23.08,0,0,1-31.52.73Q642.44,418.76,642.44,408.27Zm6.65.08A15.76,15.76,0,0,0,654,420.26a16.11,16.11,0,0,0,22.77-.08,17,17,0,0,0,.06-23.42,16.27,16.27,0,0,0-23,0A15.75,15.75,0,0,0,649.09,408.35Z"/><path class="cls-2" d="M711.19,411.69l13.52,18.62h-8.06l-12.48-17.88H703v17.88h-6.59V386.63h7.72c5.78,0,9.94,1.08,12.51,3.25a12,12,0,0,1,4.24,9.56,12.35,12.35,0,0,1-2.66,8A11.81,11.81,0,0,1,711.19,411.69Zm-8.21-5h2.1q9.36,0,9.36-7.15,0-6.7-9.11-6.71H703Z"/><path class="cls-2" d="M737.86,404.05l17-17.42h8.79L743.92,406.4l19.86,23.91H755l-15.73-19.44-1.36,1.36v18.08h-6.59V386.63h6.59Z"/><path class="cls-2" d="M792.75,393.13l-5.35,3.17a9.19,9.19,0,0,0-2.86-3.39,6.61,6.61,0,0,0-3.65-.91,6.72,6.72,0,0,0-4.55,1.56,4.82,4.82,0,0,0-1.81,3.85q0,3.19,4.75,5.14l4.36,1.79a18.64,18.64,0,0,1,7.78,5.24,11.85,11.85,0,0,1,2.46,7.6,13.34,13.34,0,0,1-4,10,13.79,13.79,0,0,1-10,4,13.41,13.41,0,0,1-9.39-3.37,15.43,15.43,0,0,1-4.56-9.47l6.68-1.48q.45,3.86,1.58,5.32a7.53,7.53,0,0,0,11.06.77,7.15,7.15,0,0,0,2-5.24,7.49,7.49,0,0,0-.35-2.33,5.93,5.93,0,0,0-1.11-1.95,8.7,8.7,0,0,0-1.93-1.67,19,19,0,0,0-2.83-1.49l-4.22-1.75q-9-3.79-9-11.09a10.51,10.51,0,0,1,3.77-8.23,13.56,13.56,0,0,1,9.36-3.34Q788.51,385.78,792.75,393.13Z"/><path class="cls-3" d="M250,245c-4.6,5.49-1.19,11.17-.88,16.54.7,11.81,1,23.44-.67,35.28-.67,4.82-1.5,9.58-2.51,14.31a190.5,190.5,0,0,1-7.14,25.39c-2.25,6.31-5.58,7.57-11.47,5.22a183.09,183.09,0,0,1-22.12-10.29c-10.53-5.95-20-13.49-27.13-24.29a57.36,57.36,0,0,1-8-19.13c-.3-1.44-.12-3.6-2.1-4a2.43,2.43,0,0,0-2.29.82,17.34,17.34,0,0,0-1.53,1.8c-6.47,7.88-12.91,15.78-19.8,24.23A117.78,117.78,0,0,0,127.12,288c-2.28-2.39-4.66-4.7-7.2-7.05-1.55,10.83-3.29,20.29-8.91,28.56-12.72,18.77-30.94,28.65-52.52,33.57-4.6,1-5.73-1.83-7-4.86-5.47-13.39-7.73-27.55-9.22-41.83s-.92-28.81-.95-43.18a14.81,14.81,0,0,0-3-8.91C22.06,220,15,193.13,16.35,163.93c.21-4.4,2.29-5,5.8-4.64,40.83,4.18,75.56,20,103.27,49.37,2.47,2.57,4.85,5.25,7.17,8,3.11,3.72,6.47,7.32,9.21,11.29,1.47,2.08,2.63,3,3.76,3.05,1.34,0,2.59-1.25,4.12-3.48s3.2-4.54,4.91-6.74c17.39-23.16,39.27-40.92,66.86-51.6,14.8-5.71,30.49-7.57,46.05-9.92,3.45-.52,5,.73,5.06,4.51C273.05,193.13,269.76,221.39,250,245Z"/><g class="cls-4"><polygon class="cls-5" points="22.15 270.71 28.48 287.98 22.15 287.98 22.15 270.71"/><polygon class="cls-5" points="22.15 269.67 28.86 287.98 28.48 287.98 22.15 270.71 22.15 269.67"/><polygon class="cls-6" points="22.15 268.64 29.24 287.98 28.86 287.98 22.15 269.67 22.15 268.64"/><polygon class="cls-7" points="22.15 267.61 29.62 287.98 29.24 287.98 22.15 268.64 22.15 267.61"/><polygon class="cls-8" points="22.15 266.57 30 287.98 29.62 287.98 22.15 267.61 22.15 266.57"/><polygon class="cls-9" points="22.15 265.54 30.38 287.98 30 287.98 22.15 266.57 22.15 265.54"/><polygon class="cls-10" points="22.15 264.51 30.75 287.98 30.38 287.98 22.15 265.54 22.15 264.51"/><polygon class="cls-11" points="22.15 263.47 31.13 287.98 30.75 287.98 22.15 264.51 22.15 263.47"/><polygon class="cls-12" points="22.15 262.44 31.51 287.98 31.13 287.98 22.15 263.47 22.15 262.44"/><polygon class="cls-13" points="22.15 261.41 31.89 287.98 31.51 287.98 22.15 262.44 22.15 261.41"/><polygon class="cls-14" points="22.15 260.38 32.27 287.98 31.89 287.98 22.15 261.41 22.15 260.38"/><polygon class="cls-15" points="22.15 259.34 32.65 287.98 32.27 287.98 22.15 260.38 22.15 259.34"/><polygon class="cls-16" points="22.15 258.31 33.03 287.98 32.65 287.98 22.15 259.34 22.15 258.31"/><polygon class="cls-17" points="22.15 257.27 33.41 287.98 33.03 287.98 22.15 258.31 22.15 257.27"/><polygon class="cls-18" points="22.15 256.24 33.78 287.98 33.41 287.98 22.15 257.27 22.15 256.24"/><polygon class="cls-19" points="22.15 255.21 34.16 287.98 33.78 287.98 22.15 256.24 22.15 255.21"/><polygon class="cls-20" points="22.15 254.18 34.54 287.98 34.16 287.98 22.15 255.21 22.15 254.18"/><polygon class="cls-21" points="22.15 253.14 34.92 287.98 34.54 287.98 22.15 254.18 22.15 253.14"/><polygon class="cls-22" points="22.15 252.11 35.3 287.98 34.92 287.98 22.15 253.14 22.15 252.11"/><polygon class="cls-23" points="22.15 251.07 35.68 287.98 35.3 287.98 22.15 252.11 22.15 251.07"/><polygon class="cls-24" points="22.15 250.04 36.06 287.98 35.68 287.98 22.15 251.07 22.15 250.04"/><polygon class="cls-25" points="22.15 249.01 36.44 287.98 36.06 287.98 22.15 250.04 22.15 249.01"/><polygon class="cls-26" points="22.15 247.97 36.81 287.98 36.44 287.98 22.15 249.01 22.15 247.97"/><polygon class="cls-27" points="22.15 246.94 37.19 287.98 36.81 287.98 22.15 247.97 22.15 246.94"/><polygon class="cls-28" points="22.15 245.91 37.57 287.98 37.19 287.98 22.15 246.94 22.15 245.91"/><polygon class="cls-29" points="22.15 244.88 37.95 287.98 37.57 287.98 22.15 245.91 22.15 244.88"/><polygon class="cls-30" points="22.15 243.84 38.33 287.98 37.95 287.98 22.15 244.88 22.15 243.84"/><polygon class="cls-31" points="22.15 242.81 38.71 287.98 38.33 287.98 22.15 243.84 22.15 242.81"/><polygon class="cls-32" points="22.15 241.78 39.09 287.98 38.71 287.98 22.15 242.81 22.15 241.78"/><polygon class="cls-33" points="22.15 240.74 39.47 287.98 39.09 287.98 22.15 241.78 22.15 240.74"/><polygon class="cls-34" points="22.15 239.71 39.85 287.98 39.47 287.98 22.15 240.74 22.15 239.71"/><polygon class="cls-35" points="22.15 238.68 40.23 287.98 39.85 287.98 22.15 239.71 22.15 238.68"/><polygon class="cls-36" points="22.15 237.64 40.6 287.98 40.23 287.98 22.15 238.68 22.15 237.64"/><polygon class="cls-37" points="22.15 236.61 40.98 287.98 40.6 287.98 22.15 237.64 22.15 236.61"/><polygon class="cls-38" points="22.15 235.58 41.36 287.98 40.98 287.98 22.15 236.61 22.15 235.58"/><polygon class="cls-39" points="22.15 234.54 41.74 287.98 41.36 287.98 22.15 235.58 22.15 234.54"/><polygon class="cls-40" points="22.15 233.51 42.12 287.98 41.74 287.98 22.15 234.54 22.15 233.51"/><polygon class="cls-41" points="22.15 232.48 42.5 287.98 42.12 287.98 22.15 233.51 22.15 232.48"/><polygon class="cls-42" points="22.15 231.44 42.88 287.98 42.5 287.98 22.15 232.48 22.15 231.44"/><polygon class="cls-43" points="22.15 230.41 43.26 287.98 42.88 287.98 22.15 231.44 22.15 230.41"/><polygon class="cls-44" points="22.15 229.38 43.63 287.98 43.26 287.98 22.15 230.41 22.15 229.38"/><polygon class="cls-45" points="22.15 228.34 44.01 287.98 43.63 287.98 22.15 229.38 22.15 228.34"/><polygon class="cls-46" points="22.15 227.31 44.39 287.98 44.01 287.98 22.15 228.34 22.15 227.31"/><polygon class="cls-47" points="22.15 226.28 44.77 287.98 44.39 287.98 22.15 227.31 22.15 226.28"/><polygon class="cls-48" points="22.15 225.24 45.15 287.98 44.77 287.98 22.15 226.28 22.15 225.24"/><polygon class="cls-49" points="22.15 224.21 45.53 287.98 45.15 287.98 22.15 225.24 22.15 224.21"/><polygon class="cls-49" points="22.15 223.18 45.91 287.98 45.53 287.98 22.15 224.21 22.15 223.18"/><polygon class="cls-50" points="22.15 222.14 46.29 287.98 45.91 287.98 22.15 223.18 22.15 222.14"/><polygon class="cls-50" points="22.15 221.11 46.67 287.98 46.29 287.98 22.15 222.14 22.15 221.11"/><polygon class="cls-51" points="22.15 220.08 47.05 287.98 46.67 287.98 22.15 221.11 22.15 220.08"/><polygon class="cls-52" points="22.15 219.04 47.42 287.98 47.05 287.98 22.15 220.08 22.15 219.04"/><polygon class="cls-53" points="22.15 218.01 47.8 287.98 47.42 287.98 22.15 219.04 22.15 218.01"/><polygon class="cls-53" points="22.15 216.98 48.18 287.98 47.8 287.98 22.15 218.01 22.15 216.98"/><polygon class="cls-54" points="22.15 215.94 48.56 287.98 48.18 287.98 22.15 216.98 22.15 215.94"/><polygon class="cls-54" points="22.15 214.91 48.94 287.98 48.56 287.98 22.15 215.94 22.15 214.91"/><polygon class="cls-55" points="22.15 213.88 49.32 287.98 48.94 287.98 22.15 214.91 22.15 213.88"/><polygon class="cls-55" points="22.15 212.84 49.7 287.98 49.32 287.98 22.15 213.88 22.15 212.84"/><polygon class="cls-56" points="22.15 211.81 50.08 287.98 49.7 287.98 22.15 212.84 22.15 211.81"/><polygon class="cls-57" points="22.15 210.78 50.45 287.98 50.08 287.98 22.15 211.81 22.15 210.78"/><polygon class="cls-58" points="22.15 209.75 50.83 287.98 50.45 287.98 22.15 210.78 22.15 209.75"/><polygon class="cls-58" points="22.15 208.71 51.21 287.98 50.83 287.98 22.15 209.75 22.15 208.71"/><polygon class="cls-59" points="22.15 207.68 51.59 287.98 51.21 287.98 22.15 208.71 22.15 207.68"/><polygon class="cls-59" points="22.15 206.65 51.97 287.98 51.59 287.98 22.15 207.68 22.15 206.65"/><polygon class="cls-60" points="22.15 205.61 52.35 287.98 51.97 287.98 22.15 206.65 22.15 205.61"/><polygon class="cls-61" points="22.15 204.58 52.73 287.98 52.35 287.98 22.15 205.61 22.15 204.58"/><polygon class="cls-62" points="22.15 203.54 53.11 287.98 52.73 287.98 22.15 204.58 22.15 203.54"/><polygon class="cls-62" points="22.15 202.51 53.48 287.98 53.11 287.98 22.15 203.54 22.15 202.51"/><polygon class="cls-63" points="22.15 201.48 53.86 287.98 53.48 287.98 22.15 202.51 22.15 201.48"/><polygon class="cls-63" points="22.15 200.44 54.24 287.98 53.86 287.98 22.15 201.48 22.15 200.44"/><polygon class="cls-64" points="22.15 199.41 54.62 287.98 54.24 287.98 22.15 200.44 22.15 199.41"/><polygon class="cls-65" points="22.15 198.38 55 287.98 54.62 287.98 22.15 199.41 22.15 198.38"/><polygon class="cls-66" points="22.15 197.35 55.38 287.98 55 287.98 22.15 198.38 22.15 197.35"/><polygon class="cls-66" points="22.15 196.31 55.76 287.98 55.38 287.98 22.15 197.35 22.15 196.31"/><polygon class="cls-67" points="22.15 195.28 56.14 287.98 55.76 287.98 22.15 196.31 22.15 195.28"/><polygon class="cls-67" points="22.15 194.25 56.52 287.98 56.14 287.98 22.15 195.28 22.15 194.25"/><polygon class="cls-68" points="22.15 193.21 56.9 287.98 56.52 287.98 22.15 194.25 22.15 193.21"/><polygon class="cls-68" points="22.15 192.18 57.27 287.98 56.9 287.98 22.15 193.21 22.15 192.18"/><polygon class="cls-68" points="22.15 191.15 57.65 287.98 57.27 287.98 22.15 192.18 22.15 191.15"/><polygon class="cls-69" points="22.15 190.11 58.03 287.98 57.65 287.98 22.15 191.15 22.15 190.11"/><polygon class="cls-69" points="22.15 189.08 58.41 287.98 58.03 287.98 22.15 190.11 22.15 189.08"/><polygon class="cls-70" points="22.15 188.05 58.79 287.98 58.41 287.98 22.15 189.08 22.15 188.05"/><polygon class="cls-71" points="22.15 187.01 59.17 287.98 58.79 287.98 22.15 188.05 22.15 187.01"/><polygon class="cls-72" points="22.15 185.98 59.55 287.98 59.17 287.98 22.15 187.01 22.15 185.98"/><polygon class="cls-72" points="22.15 184.95 59.93 287.98 59.55 287.98 22.15 185.98 22.15 184.95"/><polygon class="cls-73" points="22.15 183.91 60.3 287.98 59.93 287.98 22.15 184.95 22.15 183.91"/><polygon class="cls-73" points="22.15 182.88 60.68 287.98 60.3 287.98 22.15 183.91 22.15 182.88"/><polygon class="cls-74" points="22.15 181.85 61.06 287.98 60.68 287.98 22.15 182.88 22.15 181.85"/><polygon class="cls-75" points="22.15 180.81 61.44 287.98 61.06 287.98 22.15 181.85 22.15 180.81"/><polygon class="cls-75" points="22.15 179.78 61.82 287.98 61.44 287.98 22.15 180.81 22.15 179.78"/><polygon class="cls-76" points="22.15 178.75 62.2 287.98 61.82 287.98 22.15 179.78 22.15 178.75"/><polygon class="cls-77" points="22.15 177.71 62.58 287.98 62.2 287.98 22.15 178.75 22.15 177.71"/><polygon class="cls-78" points="22.15 176.68 62.96 287.98 62.58 287.98 22.15 177.71 22.15 176.68"/><polygon class="cls-78" points="22.15 175.65 63.34 287.98 62.96 287.98 22.15 176.68 22.15 175.65"/><polygon class="cls-79" points="22.15 174.61 63.72 287.98 63.34 287.98 22.15 175.65 22.15 174.61"/><polygon class="cls-79" points="22.15 173.58 64.09 287.98 63.72 287.98 22.15 174.61 22.15 173.58"/><polygon class="cls-80" points="22.15 172.55 64.47 287.98 64.09 287.98 22.15 173.58 22.15 172.55"/><polygon class="cls-80" points="22.15 171.51 64.85 287.98 64.47 287.98 22.15 172.55 22.15 171.51"/><polygon class="cls-80" points="22.15 170.48 65.23 287.98 64.85 287.98 22.15 171.51 22.15 170.48"/><polygon class="cls-81" points="22.15 169.45 65.61 287.98 65.23 287.98 22.15 170.48 22.15 169.45"/><polygon class="cls-81" points="22.15 168.41 65.99 287.98 65.61 287.98 22.15 169.45 22.15 168.41"/><polygon class="cls-82" points="22.15 167.38 66.37 287.98 65.99 287.98 22.15 168.41 22.15 167.38"/><polygon class="cls-83" points="22.15 166.35 66.75 287.98 66.37 287.98 22.15 167.38 22.15 166.35"/><polygon class="cls-84" points="22.15 165.31 67.12 287.98 66.75 287.98 22.15 166.35 22.15 165.31"/><polygon class="cls-84" points="22.15 164.28 67.5 287.98 67.12 287.98 22.15 165.31 22.15 164.28"/><polygon class="cls-85" points="22.15 163.25 67.88 287.98 67.5 287.98 22.15 164.28 22.15 163.25"/><polygon class="cls-85" points="22.15 162.22 68.26 287.98 67.88 287.98 22.15 163.25 22.15 162.22"/><polygon class="cls-86" points="22.15 161.18 68.64 287.98 68.26 287.98 22.15 162.22 22.15 161.18"/><polygon class="cls-87" points="22.15 160.15 69.02 287.98 68.64 287.98 22.15 161.18 22.15 160.15"/><polygon class="cls-87" points="22.21 159.29 69.4 287.98 69.02 287.98 22.15 160.15 22.15 159.29 22.21 159.29"/><polygon class="cls-88" points="22.59 159.29 69.78 287.98 69.4 287.98 22.21 159.29 22.59 159.29"/><polygon class="cls-88" points="22.97 159.29 70.16 287.98 69.78 287.98 22.59 159.29 22.97 159.29"/><polygon class="cls-89" points="23.35 159.29 70.53 287.98 70.16 287.98 22.97 159.29 23.35 159.29"/><polygon class="cls-90" points="23.73 159.29 70.91 287.98 70.53 287.98 23.35 159.29 23.73 159.29"/><polygon class="cls-91" points="24.11 159.29 71.29 287.98 70.91 287.98 23.73 159.29 24.11 159.29"/><polygon class="cls-91" points="24.49 159.29 71.67 287.98 71.29 287.98 24.11 159.29 24.49 159.29"/><polygon class="cls-92" points="24.86 159.29 72.05 287.98 71.67 287.98 24.49 159.29 24.86 159.29"/><polygon class="cls-93" points="25.24 159.29 72.43 287.98 72.05 287.98 24.86 159.29 25.24 159.29"/><polygon class="cls-94" points="25.62 159.29 72.81 287.98 72.43 287.98 25.24 159.29 25.62 159.29"/><polygon class="cls-95" points="26 159.29 73.19 287.98 72.81 287.98 25.62 159.29 26 159.29"/><polygon class="cls-95" points="26.38 159.29 73.56 287.98 73.19 287.98 26 159.29 26.38 159.29"/><polygon class="cls-96" points="26.76 159.29 73.94 287.98 73.56 287.98 26.38 159.29 26.76 159.29"/><polygon class="cls-96" points="27.14 159.29 74.32 287.98 73.94 287.98 26.76 159.29 27.14 159.29"/><polygon class="cls-97" points="27.52 159.29 74.7 287.98 74.32 287.98 27.14 159.29 27.52 159.29"/><polygon class="cls-97" points="27.89 159.29 75.08 287.98 74.7 287.98 27.52 159.29 27.89 159.29"/><polygon class="cls-98" points="28.27 159.29 75.46 287.98 75.08 287.98 27.89 159.29 28.27 159.29"/><polygon class="cls-99" points="28.65 159.29 75.84 287.98 75.46 287.98 28.27 159.29 28.65 159.29"/><polygon class="cls-99" points="29.03 159.29 76.22 287.98 75.84 287.98 28.65 159.29 29.03 159.29"/><polygon class="cls-100" points="29.41 159.29 76.6 287.98 76.22 287.98 29.03 159.29 29.41 159.29"/><polygon class="cls-101" points="29.79 159.29 76.97 287.98 76.6 287.98 29.41 159.29 29.79 159.29"/><polygon class="cls-102" points="30.17 159.29 77.35 287.98 76.97 287.98 29.79 159.29 30.17 159.29"/><polygon class="cls-103" points="30.55 159.29 77.73 287.98 77.35 287.98 30.17 159.29 30.55 159.29"/><polygon class="cls-104" points="30.93 159.29 78.11 287.98 77.73 287.98 30.55 159.29 30.93 159.29"/><polygon class="cls-104" points="31.3 159.29 78.49 287.98 78.11 287.98 30.93 159.29 31.3 159.29"/><polygon class="cls-105" points="31.68 159.29 78.87 287.98 78.49 287.98 31.3 159.29 31.68 159.29"/><polygon class="cls-105" points="32.06 159.29 79.25 287.98 78.87 287.98 31.68 159.29 32.06 159.29"/><polygon class="cls-106" points="32.44 159.29 79.63 287.98 79.25 287.98 32.06 159.29 32.44 159.29"/><polygon class="cls-106" points="32.82 159.29 80.01 287.98 79.63 287.98 32.44 159.29 32.82 159.29"/><polygon class="cls-107" points="33.2 159.29 80.39 287.98 80.01 287.98 32.82 159.29 33.2 159.29"/><polygon class="cls-107" points="33.58 159.29 80.76 287.98 80.39 287.98 33.2 159.29 33.58 159.29"/><polygon class="cls-107" points="33.96 159.29 81.14 287.98 80.76 287.98 33.58 159.29 33.96 159.29"/><polygon class="cls-108" points="34.34 159.29 81.52 287.98 81.14 287.98 33.96 159.29 34.34 159.29"/><polygon class="cls-108" points="34.72 159.29 81.9 287.98 81.52 287.98 34.34 159.29 34.72 159.29"/><polygon class="cls-109" points="35.09 159.29 82.28 287.98 81.9 287.98 34.72 159.29 35.09 159.29"/><polygon class="cls-109" points="35.47 159.29 82.66 287.98 82.28 287.98 35.09 159.29 35.47 159.29"/><polygon class="cls-110" points="35.85 159.29 83.04 287.98 82.66 287.98 35.47 159.29 35.85 159.29"/><polygon class="cls-111" points="36.23 159.29 83.42 287.98 83.04 287.98 35.85 159.29 36.23 159.29"/><polygon class="cls-112" points="36.61 159.29 83.79 287.98 83.42 287.98 36.23 159.29 36.61 159.29"/><polygon class="cls-113" points="36.99 159.29 84.17 287.98 83.79 287.98 36.61 159.29 36.99 159.29"/><polygon class="cls-114" points="37.37 159.29 84.55 287.98 84.17 287.98 36.99 159.29 37.37 159.29"/><polygon class="cls-114" points="37.75 159.29 84.93 287.98 84.55 287.98 37.37 159.29 37.75 159.29"/><polygon class="cls-115" points="38.13 159.29 85.31 287.98 84.93 287.98 37.75 159.29 38.13 159.29"/><polygon class="cls-115" points="38.5 159.29 85.69 287.98 85.31 287.98 38.13 159.29 38.5 159.29"/><polygon class="cls-116" points="38.88 159.29 86.07 287.98 85.69 287.98 38.5 159.29 38.88 159.29"/><polygon class="cls-116" points="39.26 159.29 86.45 287.98 86.07 287.98 38.88 159.29 39.26 159.29"/><polygon class="cls-117" points="39.64 159.29 86.83 287.98 86.45 287.98 39.26 159.29 39.64 159.29"/><polygon class="cls-118" points="40.02 159.29 87.2 287.98 86.83 287.98 39.64 159.29 40.02 159.29"/><polygon class="cls-118" points="40.4 159.29 87.58 287.98 87.2 287.98 40.02 159.29 40.4 159.29"/><polygon class="cls-119" points="40.78 159.29 87.96 287.98 87.58 287.98 40.4 159.29 40.78 159.29"/><polygon class="cls-119" points="41.16 159.29 88.34 287.98 87.96 287.98 40.78 159.29 41.16 159.29"/><polygon class="cls-120" points="41.53 159.29 88.72 287.98 88.34 287.98 41.16 159.29 41.53 159.29"/><polygon class="cls-120" points="41.91 159.29 89.1 287.98 88.72 287.98 41.53 159.29 41.91 159.29"/><polygon class="cls-121" points="42.29 159.29 89.48 287.98 89.1 287.98 41.91 159.29 42.29 159.29"/><polygon class="cls-121" points="42.67 159.29 89.86 287.98 89.48 287.98 42.29 159.29 42.67 159.29"/><polygon class="cls-122" points="43.05 159.29 90.23 287.98 89.86 287.98 42.67 159.29 43.05 159.29"/><polygon class="cls-123" points="43.43 159.29 90.61 287.98 90.23 287.98 43.05 159.29 43.43 159.29"/><polygon class="cls-124" points="43.81 159.29 90.99 287.98 90.61 287.98 43.43 159.29 43.81 159.29"/><polygon class="cls-125" points="44.19 159.29 91.37 287.98 90.99 287.98 43.81 159.29 44.19 159.29"/><polygon class="cls-126" points="44.56 159.29 91.75 287.98 91.37 287.98 44.19 159.29 44.56 159.29"/><polygon class="cls-127" points="44.94 159.29 92.13 287.98 91.75 287.98 44.56 159.29 44.94 159.29"/><polygon class="cls-128" points="45.32 159.29 92.51 287.98 92.13 287.98 44.94 159.29 45.32 159.29"/><polygon class="cls-128" points="45.7 159.29 92.89 287.98 92.51 287.98 45.32 159.29 45.7 159.29"/><polygon class="cls-129" points="46.08 159.29 93.27 287.98 92.89 287.98 45.7 159.29 46.08 159.29"/><polygon class="cls-129" points="46.46 159.29 93.64 287.98 93.27 287.98 46.08 159.29 46.46 159.29"/><polygon class="cls-130" points="46.84 159.29 94.02 287.98 93.64 287.98 46.46 159.29 46.84 159.29"/><polygon class="cls-131" points="47.22 159.29 94.4 287.98 94.02 287.98 46.84 159.29 47.22 159.29"/><polygon class="cls-132" points="47.6 159.29 94.78 287.98 94.4 287.98 47.22 159.29 47.6 159.29"/><polygon class="cls-133" points="47.98 159.29 95.16 287.98 94.78 287.98 47.6 159.29 47.98 159.29"/><polygon class="cls-134" points="48.35 159.29 95.54 287.98 95.16 287.98 47.98 159.29 48.35 159.29"/><polygon class="cls-135" points="48.73 159.29 95.92 287.98 95.54 287.98 48.35 159.29 48.73 159.29"/><polygon class="cls-135" points="49.11 159.29 96.3 287.98 95.92 287.98 48.73 159.29 49.11 159.29"/><polygon class="cls-136" points="49.49 159.29 96.68 287.98 96.3 287.98 49.11 159.29 49.49 159.29"/><polygon class="cls-136" points="49.87 159.29 97.06 287.98 96.68 287.98 49.49 159.29 49.87 159.29"/><polygon class="cls-137" points="50.25 159.29 97.43 287.98 97.06 287.98 49.87 159.29 50.25 159.29"/><polygon class="cls-137" points="50.63 159.29 97.81 287.98 97.43 287.98 50.25 159.29 50.63 159.29"/><polygon class="cls-138" points="51.01 159.29 98.19 287.98 97.81 287.98 50.63 159.29 51.01 159.29"/><polygon class="cls-138" points="51.38 159.29 98.57 287.98 98.19 287.98 51.01 159.29 51.38 159.29"/><polygon class="cls-138" points="51.76 159.29 98.95 287.98 98.57 287.98 51.38 159.29 51.76 159.29"/><polygon class="cls-139" points="52.14 159.29 99.33 287.98 98.95 287.98 51.76 159.29 52.14 159.29"/><polygon class="cls-139" points="52.52 159.29 99.71 287.98 99.33 287.98 52.14 159.29 52.52 159.29"/><polygon class="cls-140" points="52.9 159.29 100.08 287.98 99.71 287.98 52.52 159.29 52.9 159.29"/><polygon class="cls-140" points="53.28 159.29 100.46 287.98 100.08 287.98 52.9 159.29 53.28 159.29"/><polygon class="cls-141" points="53.66 159.29 100.84 287.98 100.46 287.98 53.28 159.29 53.66 159.29"/><polygon class="cls-141" points="54.04 159.29 101.22 287.98 100.84 287.98 53.66 159.29 54.04 159.29"/><polygon class="cls-142" points="54.42 159.29 101.6 287.98 101.22 287.98 54.04 159.29 54.42 159.29"/><polygon class="cls-142" points="54.8 159.29 101.98 287.98 101.6 287.98 54.42 159.29 54.8 159.29"/><polygon class="cls-143" points="55.17 159.29 102.36 287.98 101.98 287.98 54.8 159.29 55.17 159.29"/><polygon class="cls-144" points="55.55 159.29 102.74 287.98 102.36 287.98 55.17 159.29 55.55 159.29"/><polygon class="cls-145" points="55.93 159.29 103.12 287.98 102.74 287.98 55.55 159.29 55.93 159.29"/><polygon class="cls-146" points="56.31 159.29 103.5 287.98 103.12 287.98 55.93 159.29 56.31 159.29"/><polygon class="cls-146" points="56.69 159.29 103.87 287.98 103.5 287.98 56.31 159.29 56.69 159.29"/><polygon class="cls-147" points="57.07 159.29 104.25 287.98 103.87 287.98 56.69 159.29 57.07 159.29"/><polygon class="cls-147" points="57.45 159.29 104.63 287.98 104.25 287.98 57.07 159.29 57.45 159.29"/><polygon class="cls-148" points="57.83 159.29 105.01 287.98 104.63 287.98 57.45 159.29 57.83 159.29"/><polygon class="cls-149" points="58.2 159.29 105.39 287.98 105.01 287.98 57.83 159.29 58.2 159.29"/><polygon class="cls-150" points="58.58 159.29 105.77 287.98 105.39 287.98 58.2 159.29 58.58 159.29"/><polygon class="cls-151" points="58.96 159.29 106.15 287.98 105.77 287.98 58.58 159.29 58.96 159.29"/><polygon class="cls-152" points="59.34 159.29 106.53 287.98 106.15 287.98 58.96 159.29 59.34 159.29"/><polygon class="cls-153" points="59.72 159.29 106.91 287.98 106.53 287.98 59.34 159.29 59.72 159.29"/><polygon class="cls-154" points="60.1 159.29 107.28 287.98 106.91 287.98 59.72 159.29 60.1 159.29"/><polygon class="cls-155" points="60.48 159.29 107.66 287.98 107.28 287.98 60.1 159.29 60.48 159.29"/><polygon class="cls-155" points="60.86 159.29 108.04 287.98 107.66 287.98 60.48 159.29 60.86 159.29"/><polygon class="cls-156" points="61.23 159.29 108.42 287.98 108.04 287.98 60.86 159.29 61.23 159.29"/><polygon class="cls-156" points="61.61 159.29 108.8 287.98 108.42 287.98 61.23 159.29 61.61 159.29"/><polygon class="cls-157" points="61.99 159.29 109.18 287.98 108.8 287.98 61.61 159.29 61.99 159.29"/><polygon class="cls-158" points="62.37 159.29 109.56 287.98 109.18 287.98 61.99 159.29 62.37 159.29"/><polygon class="cls-159" points="62.75 159.29 109.94 287.98 109.56 287.98 62.37 159.29 62.75 159.29"/><polygon class="cls-160" points="63.13 159.29 110.31 287.98 109.94 287.98 62.75 159.29 63.13 159.29"/><polygon class="cls-161" points="63.51 159.29 110.69 287.98 110.31 287.98 63.13 159.29 63.51 159.29"/><polygon class="cls-162" points="63.89 159.29 111.07 287.98 110.69 287.98 63.51 159.29 63.89 159.29"/><polygon class="cls-163" points="64.27 159.29 111.45 287.98 111.07 287.98 63.89 159.29 64.27 159.29"/><polygon class="cls-164" points="64.64 159.29 111.83 287.98 111.45 287.98 64.27 159.29 64.64 159.29"/><polygon class="cls-165" points="65.02 159.29 112.21 287.98 111.83 287.98 64.64 159.29 65.02 159.29"/><polygon class="cls-166" points="65.4 159.29 112.59 287.98 112.21 287.98 65.02 159.29 65.4 159.29"/><polygon class="cls-166" points="65.78 159.29 112.97 287.98 112.59 287.98 65.4 159.29 65.78 159.29"/><polygon class="cls-167" points="66.16 159.29 113.35 287.98 112.97 287.98 65.78 159.29 66.16 159.29"/><polygon class="cls-168" points="66.54 159.29 113.72 287.98 113.35 287.98 66.16 159.29 66.54 159.29"/><polygon class="cls-169" points="66.92 159.29 114.1 287.98 113.72 287.98 66.54 159.29 66.92 159.29"/><polygon class="cls-170" points="67.3 159.29 114.48 287.98 114.1 287.98 66.92 159.29 67.3 159.29"/><polygon class="cls-171" points="67.68 159.29 114.86 287.98 114.48 287.98 67.3 159.29 67.68 159.29"/><polygon class="cls-172" points="68.06 159.29 115.24 287.98 114.86 287.98 67.68 159.29 68.06 159.29"/><polygon class="cls-173" points="68.43 159.29 115.62 287.98 115.24 287.98 68.06 159.29 68.43 159.29"/><polygon class="cls-174" points="68.81 159.29 116 287.98 115.62 287.98 68.43 159.29 68.81 159.29"/><polygon class="cls-175" points="69.19 159.29 116.38 287.98 116 287.98 68.81 159.29 69.19 159.29"/><polygon class="cls-176" points="69.57 159.29 116.75 287.98 116.38 287.98 69.19 159.29 69.57 159.29"/><polygon class="cls-176" points="69.95 159.29 117.13 287.98 116.75 287.98 69.57 159.29 69.95 159.29"/><polygon class="cls-177" points="70.33 159.29 117.51 287.98 117.13 287.98 69.95 159.29 70.33 159.29"/><polygon class="cls-177" points="70.71 159.29 117.89 287.98 117.51 287.98 70.33 159.29 70.71 159.29"/><polygon class="cls-178" points="71.09 159.29 118.27 287.98 117.89 287.98 70.71 159.29 71.09 159.29"/><polygon class="cls-179" points="71.47 159.29 118.65 287.98 118.27 287.98 71.09 159.29 71.47 159.29"/><polygon class="cls-180" points="71.84 159.29 119.03 287.98 118.65 287.98 71.47 159.29 71.84 159.29"/><polygon class="cls-181" points="72.22 159.29 119.41 287.98 119.03 287.98 71.84 159.29 72.22 159.29"/><polygon class="cls-182" points="72.6 159.29 119.79 287.98 119.41 287.98 72.22 159.29 72.6 159.29"/><polygon class="cls-3" points="72.98 159.29 120.17 287.98 119.79 287.98 72.6 159.29 72.98 159.29"/><polygon class="cls-3" points="120.17 287.98 72.98 159.29 127.13 159.29 127.13 287.98 120.17 287.98"/></g><g class="cls-183"><polygon class="cls-5" points="144.37 260.17 153.19 310.92 144.37 310.92 144.37 260.17"/><polygon class="cls-5" points="144.37 259.88 153.24 310.92 153.19 310.92 144.37 260.17 144.37 259.88"/><polygon class="cls-6" points="144.37 259.59 153.29 310.92 153.24 310.92 144.37 259.88 144.37 259.59"/><polygon class="cls-7" points="144.37 259.29 153.34 310.92 153.29 310.92 144.37 259.59 144.37 259.29"/><polygon class="cls-8" points="144.37 259 153.4 310.92 153.34 310.92 144.37 259.29 144.37 259"/><polygon class="cls-9" points="144.37 258.71 153.45 310.92 153.4 310.92 144.37 259 144.37 258.71"/><polygon class="cls-10" points="144.37 258.42 153.5 310.92 153.45 310.92 144.37 258.71 144.37 258.42"/><polygon class="cls-11" points="144.37 258.12 153.55 310.92 153.5 310.92 144.37 258.42 144.37 258.12"/><polygon class="cls-12" points="144.37 257.83 153.6 310.92 153.55 310.92 144.37 258.12 144.37 257.83"/><polygon class="cls-13" points="144.37 257.54 153.65 310.92 153.6 310.92 144.37 257.83 144.37 257.54"/><polygon class="cls-14" points="144.37 257.24 153.7 310.92 153.65 310.92 144.37 257.54 144.37 257.24"/><polygon class="cls-15" points="144.37 256.95 153.75 310.92 153.7 310.92 144.37 257.24 144.37 256.95"/><polygon class="cls-16" points="144.37 256.66 153.8 310.92 153.75 310.92 144.37 256.95 144.37 256.66"/><polygon class="cls-17" points="144.37 256.36 153.85 310.92 153.8 310.92 144.37 256.66 144.37 256.36"/><polygon class="cls-18" points="144.37 256.07 153.91 310.92 153.85 310.92 144.37 256.36 144.37 256.07"/><polygon class="cls-19" points="144.37 255.78 153.96 310.92 153.91 310.92 144.37 256.07 144.37 255.78"/><polygon class="cls-20" points="144.37 255.49 154.01 310.92 153.96 310.92 144.37 255.78 144.37 255.49"/><polygon class="cls-21" points="144.37 255.19 154.06 310.92 154.01 310.92 144.37 255.49 144.37 255.19"/><polygon class="cls-22" points="144.37 254.9 154.11 310.92 154.06 310.92 144.37 255.19 144.37 254.9"/><polygon class="cls-23" points="144.37 254.61 154.16 310.92 154.11 310.92 144.37 254.9 144.37 254.61"/><polygon class="cls-24" points="144.37 254.31 154.21 310.92 154.16 310.92 144.37 254.61 144.37 254.31"/><polygon class="cls-25" points="144.37 254.02 154.26 310.92 154.21 310.92 144.37 254.31 144.37 254.02"/><polygon class="cls-26" points="144.37 253.73 154.31 310.92 154.26 310.92 144.37 254.02 144.37 253.73"/><polygon class="cls-27" points="144.37 253.44 154.36 310.92 154.31 310.92 144.37 253.73 144.37 253.44"/><polygon class="cls-28" points="144.37 253.14 154.41 310.92 154.36 310.92 144.37 253.44 144.37 253.14"/><polygon class="cls-29" points="144.37 252.85 154.47 310.92 154.41 310.92 144.37 253.14 144.37 252.85"/><polygon class="cls-30" points="144.37 252.56 154.52 310.92 154.47 310.92 144.37 252.85 144.37 252.56"/><polygon class="cls-31" points="144.37 252.26 154.57 310.92 154.52 310.92 144.37 252.56 144.37 252.26"/><polygon class="cls-32" points="144.37 251.97 154.62 310.92 154.57 310.92 144.37 252.26 144.37 251.97"/><polygon class="cls-33" points="144.37 251.68 154.67 310.92 154.62 310.92 144.37 251.97 144.37 251.68"/><polygon class="cls-34" points="144.37 251.38 154.72 310.92 154.67 310.92 144.37 251.68 144.37 251.38"/><polygon class="cls-35" points="144.37 251.09 154.77 310.92 154.72 310.92 144.37 251.38 144.37 251.09"/><polygon class="cls-36" points="144.37 250.8 154.82 310.92 154.77 310.92 144.37 251.09 144.37 250.8"/><polygon class="cls-37" points="144.37 250.5 154.87 310.92 154.82 310.92 144.37 250.8 144.37 250.5"/><polygon class="cls-38" points="144.37 250.21 154.93 310.92 154.87 310.92 144.37 250.5 144.37 250.21"/><polygon class="cls-39" points="144.37 249.92 154.97 310.92 154.93 310.92 144.37 250.21 144.37 249.92"/><polygon class="cls-40" points="144.37 249.63 155.03 310.92 154.97 310.92 144.37 249.92 144.37 249.63"/><polygon class="cls-41" points="144.37 249.33 155.08 310.92 155.03 310.92 144.37 249.63 144.37 249.33"/><polygon class="cls-42" points="144.37 249.04 155.13 310.92 155.08 310.92 144.37 249.33 144.37 249.04"/><polygon class="cls-43" points="144.37 248.75 155.18 310.92 155.13 310.92 144.37 249.04 144.37 248.75"/><polygon class="cls-44" points="144.37 248.46 155.23 310.92 155.18 310.92 144.37 248.75 144.37 248.46"/><polygon class="cls-45" points="144.37 248.16 155.28 310.92 155.23 310.92 144.37 248.46 144.37 248.16"/><polygon class="cls-46" points="144.37 247.87 155.33 310.92 155.28 310.92 144.37 248.16 144.37 247.87"/><polygon class="cls-47" points="144.37 247.58 155.38 310.92 155.33 310.92 144.37 247.87 144.37 247.58"/><polygon class="cls-48" points="144.37 247.28 155.43 310.92 155.38 310.92 144.37 247.58 144.37 247.28"/><polygon class="cls-49" points="144.37 246.99 155.49 310.92 155.43 310.92 144.37 247.28 144.37 246.99"/><polygon class="cls-49" points="144.37 246.7 155.54 310.92 155.49 310.92 144.37 246.99 144.37 246.7"/><polygon class="cls-50" points="144.37 246.4 155.59 310.92 155.54 310.92 144.37 246.7 144.37 246.4"/><polygon class="cls-50" points="144.37 246.11 155.64 310.92 155.59 310.92 144.37 246.4 144.37 246.11"/><polygon class="cls-51" points="144.37 245.82 155.69 310.92 155.64 310.92 144.37 246.11 144.37 245.82"/><polygon class="cls-52" points="144.37 245.53 155.74 310.92 155.69 310.92 144.37 245.82 144.37 245.53"/><polygon class="cls-53" points="144.37 245.23 155.79 310.92 155.74 310.92 144.37 245.53 144.37 245.23"/><polygon class="cls-53" points="144.37 244.94 155.84 310.92 155.79 310.92 144.37 245.23 144.37 244.94"/><polygon class="cls-54" points="144.37 244.65 155.89 310.92 155.84 310.92 144.37 244.94 144.37 244.65"/><polygon class="cls-54" points="144.37 244.35 155.94 310.92 155.89 310.92 144.37 244.65 144.37 244.35"/><polygon class="cls-55" points="144.37 244.06 155.99 310.92 155.94 310.92 144.37 244.35 144.37 244.06"/><polygon class="cls-55" points="144.37 243.77 156.04 310.92 156.04 310.92 155.99 310.92 144.37 244.06 144.37 243.77"/><polygon class="cls-56" points="144.37 243.47 156.09 310.91 156.04 310.92 144.37 243.77 144.37 243.47"/><polygon class="cls-57" points="144.37 243.18 156.14 310.9 156.09 310.91 144.37 243.47 144.37 243.18"/><polygon class="cls-58" points="144.37 242.89 156.19 310.9 156.14 310.9 144.37 243.18 144.37 242.89"/><polygon class="cls-58" points="144.37 242.6 156.24 310.89 156.19 310.9 144.37 242.89 144.37 242.6"/><polygon class="cls-59" points="144.37 242.3 156.29 310.88 156.24 310.89 144.37 242.6 144.37 242.3"/><polygon class="cls-59" points="144.37 242.01 156.34 310.87 156.29 310.88 144.37 242.3 144.37 242.01"/><polygon class="cls-60" points="144.37 241.72 156.39 310.86 156.34 310.87 144.37 242.01 144.37 241.72"/><polygon class="cls-61" points="144.37 241.42 156.44 310.85 156.39 310.86 144.37 241.72 144.37 241.42"/><polygon class="cls-62" points="144.37 241.13 156.49 310.85 156.44 310.85 144.37 241.42 144.37 241.13"/><polygon class="cls-62" points="144.37 240.84 156.54 310.84 156.49 310.85 144.37 241.13 144.37 240.84"/><polygon class="cls-63" points="144.37 240.54 156.59 310.83 156.54 310.84 144.37 240.84 144.37 240.54"/><polygon class="cls-63" points="144.37 240.25 156.64 310.82 156.59 310.83 144.37 240.54 144.37 240.25"/><polygon class="cls-64" points="144.37 239.96 156.69 310.81 156.64 310.82 144.37 240.25 144.37 239.96"/><polygon class="cls-65" points="144.37 239.67 156.74 310.8 156.69 310.81 144.37 239.96 144.37 239.67"/><polygon class="cls-66" points="144.37 239.37 156.79 310.79 156.74 310.8 144.37 239.67 144.37 239.37"/><polygon class="cls-66" points="144.37 239.08 156.84 310.79 156.79 310.79 144.37 239.37 144.37 239.08"/><polygon class="cls-67" points="144.37 238.79 156.89 310.78 156.84 310.79 144.37 239.08 144.37 238.79"/><polygon class="cls-67" points="144.37 238.49 156.94 310.77 156.89 310.78 144.37 238.79 144.37 238.49"/><polygon class="cls-68" points="144.37 238.2 156.99 310.76 156.94 310.77 144.37 238.49 144.37 238.2"/><polygon class="cls-68" points="144.37 237.91 157.03 310.75 156.99 310.76 144.37 238.2 144.37 237.91"/><polygon class="cls-68" points="144.37 237.62 157.08 310.74 157.03 310.75 144.37 237.91 144.37 237.62"/><polygon class="cls-69" points="144.37 237.32 157.13 310.73 157.08 310.74 144.37 237.62 144.37 237.32"/><polygon class="cls-69" points="144.37 237.03 157.18 310.72 157.13 310.73 144.37 237.32 144.37 237.03"/><polygon class="cls-70" points="144.37 236.74 157.23 310.72 157.18 310.72 144.37 237.03 144.37 236.74"/><polygon class="cls-71" points="144.37 236.44 157.28 310.71 157.23 310.72 144.37 236.74 144.37 236.44"/><polygon class="cls-72" points="144.37 236.15 157.33 310.7 157.28 310.71 144.37 236.44 144.37 236.15"/><polygon class="cls-72" points="144.37 235.86 157.38 310.69 157.33 310.7 144.37 236.15 144.37 235.86"/><polygon class="cls-73" points="144.37 235.56 157.43 310.68 157.38 310.69 144.37 235.86 144.37 235.56"/><polygon class="cls-73" points="144.37 235.27 157.48 310.67 157.43 310.68 144.37 235.56 144.37 235.27"/><polygon class="cls-74" points="144.37 234.98 157.53 310.66 157.48 310.67 144.37 235.27 144.37 234.98"/><polygon class="cls-75" points="144.37 234.69 157.58 310.66 157.53 310.66 144.37 234.98 144.37 234.69"/><polygon class="cls-75" points="144.37 234.39 157.63 310.65 157.58 310.66 144.37 234.69 144.37 234.39"/><polygon class="cls-76" points="144.37 234.1 157.68 310.64 157.63 310.65 144.37 234.39 144.37 234.1"/><polygon class="cls-77" points="144.37 233.81 157.73 310.63 157.68 310.64 144.37 234.1 144.37 233.81"/><polygon class="cls-78" points="144.37 233.51 157.78 310.62 157.73 310.63 144.37 233.81 144.37 233.51"/><polygon class="cls-78" points="144.37 233.22 157.83 310.61 157.78 310.62 144.37 233.51 144.37 233.22"/><polygon class="cls-79" points="144.37 232.93 157.88 310.6 157.83 310.61 144.37 233.22 144.37 232.93"/><polygon class="cls-79" points="144.37 232.63 157.92 310.6 157.88 310.6 144.37 232.93 144.37 232.63"/><polygon class="cls-80" points="144.37 232.34 157.97 310.59 157.92 310.6 144.37 232.63 144.37 232.34"/><polygon class="cls-80" points="144.37 232.05 158.02 310.58 157.97 310.59 144.37 232.34 144.37 232.05"/><polygon class="cls-80" points="144.37 231.76 158.07 310.57 158.02 310.58 144.37 232.05 144.37 231.76"/><polygon class="cls-81" points="144.37 231.46 158.12 310.56 158.07 310.57 144.37 231.76 144.37 231.46"/><polygon class="cls-81" points="144.37 231.17 158.17 310.55 158.12 310.56 144.37 231.46 144.37 231.17"/><polygon class="cls-82" points="144.37 230.88 158.22 310.54 158.17 310.55 144.37 231.17 144.37 230.88"/><polygon class="cls-83" points="144.37 230.59 158.27 310.54 158.22 310.54 144.37 230.88 144.37 230.59"/><polygon class="cls-84" points="144.37 230.29 158.32 310.53 158.27 310.54 144.37 230.59 144.37 230.29"/><polygon class="cls-84" points="144.37 230 158.37 310.52 158.32 310.53 144.37 230.29 144.37 230"/><polygon class="cls-85" points="144.37 229.71 158.42 310.51 158.37 310.52 144.37 230 144.37 229.71"/><polygon class="cls-85" points="144.37 229.41 158.47 310.5 158.42 310.51 144.37 229.71 144.37 229.41"/><polygon class="cls-86" points="144.37 229.12 158.52 310.49 158.47 310.5 144.37 229.41 144.37 229.12"/><polygon class="cls-87" points="144.37 228.83 158.57 310.48 158.52 310.49 144.37 229.12 144.37 228.83"/><polygon class="cls-87" points="144.37 228.53 158.62 310.48 158.57 310.48 144.37 228.83 144.37 228.53"/><polygon class="cls-88" points="144.37 228.24 158.67 310.47 158.62 310.48 144.37 228.53 144.37 228.24"/><polygon class="cls-88" points="144.37 227.95 158.72 310.46 158.67 310.47 144.37 228.24 144.37 227.95"/><polygon class="cls-89" points="144.37 227.66 158.76 310.45 158.72 310.46 144.37 227.95 144.37 227.66"/><polygon class="cls-90" points="144.37 227.36 158.81 310.44 158.76 310.45 144.37 227.66 144.37 227.36"/><polygon class="cls-91" points="144.37 227.07 158.86 310.43 158.81 310.44 144.37 227.36 144.37 227.07"/><polygon class="cls-91" points="144.37 226.78 158.91 310.42 158.86 310.43 144.37 227.07 144.37 226.78"/><polygon class="cls-92" points="144.37 226.48 158.96 310.42 158.91 310.42 144.37 226.78 144.37 226.48"/><polygon class="cls-93" points="144.37 226.19 159.01 310.41 158.96 310.42 144.37 226.48 144.37 226.19"/><polygon class="cls-94" points="144.37 225.9 159.06 310.4 159.01 310.41 144.37 226.19 144.37 225.9"/><polygon class="cls-95" points="144.37 225.6 159.11 310.39 159.06 310.4 144.37 225.9 144.37 225.6"/><polygon class="cls-95" points="144.37 225.31 159.16 310.38 159.11 310.39 144.37 225.6 144.37 225.31"/><polygon class="cls-96" points="144.37 225.02 159.21 310.37 159.16 310.38 144.37 225.31 144.37 225.02"/><polygon class="cls-96" points="144.37 224.73 159.26 310.36 159.21 310.37 144.37 225.02 144.37 224.73"/><polygon class="cls-97" points="144.37 224.43 159.31 310.36 159.26 310.36 144.37 224.73 144.37 224.43"/><polygon class="cls-97" points="144.37 224.14 159.36 310.35 159.31 310.36 144.37 224.43 144.37 224.14"/><polygon class="cls-98" points="144.37 223.85 159.41 310.34 159.36 310.35 144.37 224.14 144.37 223.85"/><polygon class="cls-99" points="144.37 223.55 159.46 310.33 159.41 310.34 144.37 223.85 144.37 223.55"/><polygon class="cls-99" points="144.37 223.26 159.51 310.32 159.46 310.33 144.37 223.55 144.37 223.26"/><polygon class="cls-100" points="144.37 222.97 159.56 310.31 159.51 310.32 144.37 223.26 144.37 222.97"/><polygon class="cls-101" points="144.37 222.68 159.61 310.3 159.56 310.31 144.37 222.97 144.37 222.68"/><polygon class="cls-102" points="144.37 222.38 159.66 310.29 159.61 310.3 144.37 222.68 144.37 222.38"/><polygon class="cls-103" points="144.37 222.09 159.71 310.29 159.66 310.29 144.37 222.38 144.37 222.09"/><polygon class="cls-104" points="144.37 221.8 159.75 310.28 159.71 310.29 144.37 222.09 144.37 221.8"/><polygon class="cls-104" points="144.37 221.5 159.8 310.27 159.75 310.28 144.37 221.8 144.37 221.5"/><polygon class="cls-105" points="144.37 221.21 159.85 310.26 159.8 310.27 144.37 221.5 144.37 221.21"/><polygon class="cls-105" points="144.37 220.92 159.9 310.25 159.85 310.26 144.37 221.21 144.37 220.92"/><polygon class="cls-106" points="144.4 220.81 159.95 310.24 159.9 310.25 144.37 220.92 144.37 220.81 144.4 220.81"/><polygon class="cls-106" points="144.45 220.81 160 310.23 159.95 310.24 144.4 220.81 144.45 220.81"/><polygon class="cls-107" points="144.5 220.81 160.05 310.23 160 310.23 144.45 220.81 144.5 220.81"/><polygon class="cls-107" points="144.55 220.81 160.1 310.22 160.05 310.23 144.5 220.81 144.55 220.81"/><polygon class="cls-107" points="144.6 220.81 160.15 310.21 160.1 310.22 144.55 220.81 144.6 220.81"/><polygon class="cls-108" points="144.65 220.81 160.2 310.2 160.15 310.21 144.6 220.81 144.65 220.81"/><polygon class="cls-108" points="144.7 220.81 160.25 310.19 160.2 310.2 144.65 220.81 144.7 220.81"/><polygon class="cls-109" points="144.75 220.81 160.3 310.18 160.25 310.19 144.7 220.81 144.75 220.81"/><polygon class="cls-109" points="144.81 220.81 160.35 310.17 160.3 310.18 144.75 220.81 144.81 220.81"/><polygon class="cls-110" points="144.86 220.81 160.4 310.17 160.35 310.17 144.81 220.81 144.86 220.81"/><polygon class="cls-111" points="144.91 220.81 160.45 310.16 160.4 310.17 144.86 220.81 144.91 220.81"/><polygon class="cls-112" points="144.96 220.81 160.5 310.15 160.45 310.16 144.91 220.81 144.96 220.81"/><polygon class="cls-113" points="145.01 220.81 160.54 310.14 160.5 310.15 144.96 220.81 145.01 220.81"/><polygon class="cls-114" points="145.06 220.81 160.59 310.13 160.54 310.14 145.01 220.81 145.06 220.81"/><polygon class="cls-114" points="145.11 220.81 160.64 310.12 160.59 310.13 145.06 220.81 145.11 220.81"/><polygon class="cls-115" points="145.16 220.81 160.69 310.11 160.64 310.12 145.11 220.81 145.16 220.81"/><polygon class="cls-115" points="145.21 220.81 160.74 310.11 160.69 310.11 145.16 220.81 145.21 220.81"/><polygon class="cls-116" points="145.26 220.81 160.79 310.1 160.74 310.11 145.21 220.81 145.26 220.81"/><polygon class="cls-116" points="145.31 220.81 160.84 310.09 160.79 310.1 145.26 220.81 145.31 220.81"/><polygon class="cls-117" points="145.37 220.81 160.89 310.08 160.84 310.09 145.31 220.81 145.37 220.81"/><polygon class="cls-118" points="145.42 220.81 160.94 310.07 160.89 310.08 145.37 220.81 145.42 220.81"/><polygon class="cls-118" points="145.47 220.81 160.99 310.06 160.94 310.07 145.42 220.81 145.47 220.81"/><polygon class="cls-119" points="145.52 220.81 161.04 310.05 160.99 310.06 145.47 220.81 145.52 220.81"/><polygon class="cls-119" points="145.57 220.81 161.09 310.05 161.04 310.05 145.52 220.81 145.57 220.81"/><polygon class="cls-120" points="145.62 220.81 161.14 310.04 161.09 310.05 145.57 220.81 145.62 220.81"/><polygon class="cls-120" points="145.67 220.81 161.19 310.03 161.14 310.04 145.62 220.81 145.67 220.81"/><polygon class="cls-121" points="145.72 220.81 161.24 310.02 161.19 310.03 145.67 220.81 145.72 220.81"/><polygon class="cls-121" points="145.77 220.81 161.29 310.01 161.24 310.02 145.72 220.81 145.77 220.81"/><polygon class="cls-122" points="145.82 220.81 161.34 310 161.29 310.01 145.77 220.81 145.82 220.81"/><polygon class="cls-123" points="145.88 220.81 161.39 309.99 161.34 310 145.82 220.81 145.88 220.81"/><polygon class="cls-124" points="145.93 220.81 161.44 309.99 161.39 309.99 145.88 220.81 145.93 220.81"/><polygon class="cls-125" points="145.98 220.81 161.49 309.98 161.44 309.99 145.93 220.81 145.98 220.81"/><polygon class="cls-126" points="146.03 220.81 161.53 309.97 161.49 309.98 145.98 220.81 146.03 220.81"/><polygon class="cls-127" points="146.08 220.81 161.58 309.96 161.53 309.97 146.03 220.81 146.08 220.81"/><polygon class="cls-128" points="146.13 220.81 161.63 309.95 161.58 309.96 146.08 220.81 146.13 220.81"/><polygon class="cls-128" points="146.18 220.81 161.68 309.94 161.63 309.95 146.13 220.81 146.18 220.81"/><polygon class="cls-129" points="146.23 220.81 161.73 309.93 161.68 309.94 146.18 220.81 146.23 220.81"/><polygon class="cls-129" points="146.28 220.81 161.78 309.93 161.73 309.93 146.23 220.81 146.28 220.81"/><polygon class="cls-130" points="146.33 220.81 161.83 309.92 161.78 309.93 146.28 220.81 146.33 220.81"/><polygon class="cls-131" points="146.38 220.81 161.88 309.91 161.83 309.92 146.33 220.81 146.38 220.81"/><polygon class="cls-132" points="146.44 220.81 161.93 309.9 161.88 309.91 146.38 220.81 146.44 220.81"/><polygon class="cls-133" points="146.49 220.81 161.98 309.89 161.93 309.9 146.44 220.81 146.49 220.81"/><polygon class="cls-134" points="146.54 220.81 162.03 309.88 161.98 309.89 146.49 220.81 146.54 220.81"/><polygon class="cls-135" points="146.59 220.81 162.08 309.87 162.03 309.88 146.54 220.81 146.59 220.81"/><polygon class="cls-135" points="146.64 220.81 162.13 309.86 162.08 309.87 146.59 220.81 146.64 220.81"/><polygon class="cls-136" points="146.69 220.81 162.18 309.86 162.13 309.86 146.64 220.81 146.69 220.81"/><polygon class="cls-136" points="146.74 220.81 162.23 309.85 162.18 309.86 146.69 220.81 146.74 220.81"/><polygon class="cls-137" points="146.79 220.81 162.28 309.84 162.23 309.85 146.74 220.81 146.79 220.81"/><polygon class="cls-137" points="146.84 220.81 162.33 309.83 162.28 309.84 146.79 220.81 146.84 220.81"/><polygon class="cls-138" points="146.9 220.81 162.38 309.82 162.33 309.83 146.84 220.81 146.9 220.81"/><polygon class="cls-138" points="146.95 220.81 162.43 309.81 162.38 309.82 146.9 220.81 146.95 220.81"/><polygon class="cls-138" points="147 220.81 162.47 309.8 162.43 309.81 146.95 220.81 147 220.81"/><polygon class="cls-139" points="147.05 220.81 162.52 309.8 162.47 309.8 147 220.81 147.05 220.81"/><polygon class="cls-139" points="147.1 220.81 162.57 309.79 162.52 309.8 147.05 220.81 147.1 220.81"/><polygon class="cls-140" points="147.15 220.81 162.62 309.78 162.57 309.79 147.1 220.81 147.15 220.81"/><polygon class="cls-140" points="147.2 220.81 162.67 309.77 162.62 309.78 147.15 220.81 147.2 220.81"/><polygon class="cls-141" points="147.25 220.81 162.72 309.76 162.67 309.77 147.2 220.81 147.25 220.81"/><polygon class="cls-141" points="147.3 220.81 162.77 309.75 162.72 309.76 147.25 220.81 147.3 220.81"/><polygon class="cls-142" points="147.35 220.81 162.82 309.74 162.77 309.75 147.3 220.81 147.35 220.81"/><polygon class="cls-142" points="147.4 220.81 162.87 309.74 162.82 309.74 147.35 220.81 147.4 220.81"/><polygon class="cls-143" points="147.46 220.81 162.92 309.73 162.87 309.74 147.4 220.81 147.46 220.81"/><polygon class="cls-144" points="147.51 220.81 162.97 309.72 162.92 309.73 147.46 220.81 147.51 220.81"/><polygon class="cls-145" points="147.56 220.81 163.02 309.71 162.97 309.72 147.51 220.81 147.56 220.81"/><polygon class="cls-146" points="147.61 220.81 163.07 309.7 163.02 309.71 147.56 220.81 147.61 220.81"/><polygon class="cls-146" points="147.66 220.81 163.12 309.69 163.07 309.7 147.61 220.81 147.66 220.81"/><polygon class="cls-147" points="147.71 220.81 163.17 309.68 163.12 309.69 147.66 220.81 147.71 220.81"/><polygon class="cls-147" points="147.76 220.81 163.22 309.68 163.17 309.68 147.71 220.81 147.76 220.81"/><polygon class="cls-148" points="147.81 220.81 163.26 309.67 163.22 309.68 147.76 220.81 147.81 220.81"/><polygon class="cls-149" points="147.86 220.81 163.31 309.66 163.26 309.67 147.81 220.81 147.86 220.81"/><polygon class="cls-150" points="147.91 220.81 163.36 309.65 163.31 309.66 147.86 220.81 147.91 220.81"/><polygon class="cls-151" points="147.97 220.81 163.41 309.64 163.36 309.65 147.91 220.81 147.97 220.81"/><polygon class="cls-152" points="148.02 220.81 163.46 309.63 163.41 309.64 147.97 220.81 148.02 220.81"/><polygon class="cls-153" points="148.07 220.81 163.51 309.62 163.46 309.63 148.02 220.81 148.07 220.81"/><polygon class="cls-154" points="148.12 220.81 163.56 309.62 163.51 309.62 148.07 220.81 148.12 220.81"/><polygon class="cls-155" points="148.17 220.81 163.61 309.61 163.56 309.62 148.12 220.81 148.17 220.81"/><polygon class="cls-155" points="148.22 220.81 163.66 309.6 163.61 309.61 148.17 220.81 148.22 220.81"/><polygon class="cls-156" points="148.27 220.81 163.71 309.59 163.66 309.6 148.22 220.81 148.27 220.81"/><polygon class="cls-156" points="148.32 220.81 163.76 309.58 163.71 309.59 148.27 220.81 148.32 220.81"/><polygon class="cls-157" points="148.37 220.81 163.81 309.57 163.76 309.58 148.32 220.81 148.37 220.81"/><polygon class="cls-158" points="148.42 220.81 163.86 309.56 163.81 309.57 148.37 220.81 148.42 220.81"/><polygon class="cls-159" points="148.47 220.81 163.91 309.56 163.86 309.56 148.42 220.81 148.47 220.81"/><polygon class="cls-160" points="148.53 220.81 163.96 309.55 163.91 309.56 148.47 220.81 148.53 220.81"/><polygon class="cls-161" points="148.58 220.81 164.01 309.54 163.96 309.55 148.53 220.81 148.58 220.81"/><polygon class="cls-162" points="148.63 220.81 164.06 309.53 164.01 309.54 148.58 220.81 148.63 220.81"/><polygon class="cls-163" points="148.68 220.81 164.11 309.52 164.06 309.53 148.63 220.81 148.68 220.81"/><polygon class="cls-164" points="148.73 220.81 164.16 309.51 164.11 309.52 148.68 220.81 148.73 220.81"/><polygon class="cls-165" points="148.78 220.81 164.21 309.5 164.16 309.51 148.73 220.81 148.78 220.81"/><polygon class="cls-166" points="148.83 220.81 164.25 309.5 164.21 309.5 148.78 220.81 148.83 220.81"/><polygon class="cls-166" points="148.88 220.81 164.3 309.49 164.25 309.5 148.83 220.81 148.88 220.81"/><polygon class="cls-167" points="148.93 220.81 164.35 309.48 164.3 309.49 148.88 220.81 148.93 220.81"/><polygon class="cls-168" points="148.98 220.81 164.4 309.47 164.35 309.48 148.93 220.81 148.98 220.81"/><polygon class="cls-169" points="149.03 220.81 164.45 309.46 164.4 309.47 148.98 220.81 149.03 220.81"/><polygon class="cls-170" points="149.09 220.81 164.5 309.45 164.45 309.46 149.03 220.81 149.09 220.81"/><polygon class="cls-171" points="149.14 220.81 164.55 309.44 164.5 309.45 149.09 220.81 149.14 220.81"/><polygon class="cls-172" points="149.19 220.81 164.6 309.43 164.55 309.44 149.14 220.81 149.19 220.81"/><polygon class="cls-173" points="149.24 220.81 164.65 309.43 164.6 309.43 149.19 220.81 149.24 220.81"/><polygon class="cls-174" points="149.29 220.81 164.7 309.42 164.65 309.43 149.24 220.81 149.29 220.81"/><polygon class="cls-175" points="149.34 220.81 164.75 309.41 164.7 309.42 149.29 220.81 149.34 220.81"/><polygon class="cls-176" points="149.39 220.81 164.8 309.4 164.75 309.41 149.34 220.81 149.39 220.81"/><polygon class="cls-176" points="149.44 220.81 164.85 309.39 164.8 309.4 149.39 220.81 149.44 220.81"/><polygon class="cls-177" points="149.49 220.81 164.9 309.38 164.85 309.39 149.44 220.81 149.49 220.81"/><polygon class="cls-177" points="149.54 220.81 164.95 309.37 164.9 309.38 149.49 220.81 149.54 220.81"/><polygon class="cls-178" points="149.59 220.81 165 309.37 164.95 309.37 149.54 220.81 149.59 220.81"/><polygon class="cls-179" points="149.65 220.81 165.05 309.36 165 309.37 149.59 220.81 149.65 220.81"/><polygon class="cls-180" points="149.7 220.81 165.09 309.35 165.05 309.36 149.65 220.81 149.7 220.81"/><polygon class="cls-181" points="149.75 220.81 165.14 309.34 165.09 309.35 149.7 220.81 149.75 220.81"/><polygon class="cls-182" points="149.8 220.81 165.19 309.33 165.14 309.34 149.75 220.81 149.8 220.81"/><polygon class="cls-3" points="149.85 220.81 165.24 309.32 165.19 309.33 149.8 220.81 149.85 220.81"/><polygon class="cls-3" points="165.7 309.24 165.24 309.32 149.85 220.81 165.7 220.81 165.7 309.24"/></g><g class="cls-184"><polygon class="cls-5" points="209.24 245.04 167.99 272.9 167.99 245.04 209.24 245.04"/><polygon class="cls-5" points="209.61 245.04 167.99 273.15 167.99 272.9 209.24 245.04 209.61 245.04"/><polygon class="cls-6" points="209.98 245.04 167.99 273.4 167.99 273.15 209.61 245.04 209.98 245.04"/><polygon class="cls-7" points="210.35 245.04 167.99 273.65 167.99 273.4 209.98 245.04 210.35 245.04"/><polygon class="cls-8" points="210.72 245.04 167.99 273.9 167.99 273.65 210.35 245.04 210.72 245.04"/><polygon class="cls-9" points="211.09 245.04 167.99 274.15 167.99 273.9 210.72 245.04 211.09 245.04"/><polygon class="cls-10" points="211.46 245.04 167.99 274.4 167.99 274.15 211.09 245.04 211.46 245.04"/><polygon class="cls-11" points="211.83 245.04 167.99 274.65 167.99 274.4 211.46 245.04 211.83 245.04"/><polygon class="cls-12" points="212.2 245.04 167.99 274.9 167.99 274.65 211.83 245.04 212.2 245.04"/><polygon class="cls-13" points="212.57 245.04 167.99 275.15 167.99 274.9 212.2 245.04 212.57 245.04"/><polygon class="cls-14" points="212.94 245.04 167.99 275.4 167.99 275.15 212.57 245.04 212.94 245.04"/><polygon class="cls-15" points="213.31 245.04 167.99 275.65 167.99 275.4 212.94 245.04 213.31 245.04"/><polygon class="cls-16" points="213.68 245.04 167.99 275.9 167.99 275.65 213.31 245.04 213.68 245.04"/><polygon class="cls-17" points="214.05 245.04 167.99 276.15 167.99 275.9 213.68 245.04 214.05 245.04"/><polygon class="cls-18" points="214.42 245.04 167.99 276.4 167.99 276.15 214.05 245.04 214.42 245.04"/><polygon class="cls-19" points="214.79 245.04 167.99 276.65 167.99 276.4 214.42 245.04 214.79 245.04"/><polygon class="cls-20" points="215.16 245.04 167.99 276.89 167.99 276.65 214.79 245.04 215.16 245.04"/><polygon class="cls-21" points="215.53 245.04 167.99 277.14 167.99 276.89 215.16 245.04 215.53 245.04"/><polygon class="cls-22" points="215.9 245.04 167.99 277.39 167.99 277.14 215.53 245.04 215.9 245.04"/><polygon class="cls-23" points="216.27 245.04 167.99 277.64 167.99 277.39 215.9 245.04 216.27 245.04"/><polygon class="cls-24" points="216.64 245.04 167.99 277.89 167.99 277.64 216.27 245.04 216.64 245.04"/><polygon class="cls-25" points="217.01 245.04 167.99 278.14 167.99 277.89 216.64 245.04 217.01 245.04"/><polygon class="cls-26" points="217.38 245.04 167.99 278.39 167.99 278.14 217.01 245.04 217.38 245.04"/><polygon class="cls-27" points="217.75 245.04 167.99 278.64 167.99 278.39 217.38 245.04 217.75 245.04"/><polygon class="cls-28" points="218.12 245.04 167.99 278.89 167.99 278.64 217.75 245.04 218.12 245.04"/><polygon class="cls-29" points="218.48 245.04 167.99 279.14 167.99 278.89 218.12 245.04 218.48 245.04"/><polygon class="cls-30" points="218.85 245.04 167.99 279.39 167.99 279.14 218.48 245.04 218.85 245.04"/><polygon class="cls-31" points="219.22 245.04 167.99 279.64 167.99 279.39 218.85 245.04 219.22 245.04"/><polygon class="cls-32" points="219.59 245.04 167.99 279.89 167.99 279.64 219.22 245.04 219.59 245.04"/><polygon class="cls-33" points="219.96 245.04 167.99 280.14 167.99 279.89 219.59 245.04 219.96 245.04"/><polygon class="cls-34" points="220.33 245.04 167.99 280.39 167.99 280.14 219.96 245.04 220.33 245.04"/><polygon class="cls-35" points="220.7 245.04 167.99 280.64 167.99 280.39 220.33 245.04 220.7 245.04"/><polygon class="cls-36" points="221.07 245.04 167.99 280.89 167.99 280.64 220.7 245.04 221.07 245.04"/><polygon class="cls-37" points="221.44 245.04 167.99 281.14 167.99 280.89 221.07 245.04 221.44 245.04"/><polygon class="cls-38" points="221.81 245.04 167.99 281.39 167.99 281.14 221.44 245.04 221.81 245.04"/><polygon class="cls-39" points="222.18 245.04 167.99 281.64 167.99 281.39 221.81 245.04 222.18 245.04"/><polygon class="cls-40" points="222.55 245.04 167.99 281.89 167.99 281.64 222.18 245.04 222.55 245.04"/><polygon class="cls-41" points="222.92 245.04 167.99 282.14 167.99 281.89 222.55 245.04 222.92 245.04"/><polygon class="cls-42" points="223.29 245.04 167.99 282.39 167.99 282.14 222.92 245.04 223.29 245.04"/><polygon class="cls-43" points="223.66 245.04 167.99 282.64 167.99 282.39 223.29 245.04 223.66 245.04"/><polygon class="cls-44" points="224.03 245.04 167.99 282.89 167.99 282.64 223.66 245.04 224.03 245.04"/><polygon class="cls-45" points="224.4 245.04 167.99 283.14 167.99 282.89 224.03 245.04 224.4 245.04"/><polygon class="cls-46" points="224.77 245.04 167.99 283.38 167.99 283.14 224.4 245.04 224.77 245.04"/><polygon class="cls-47" points="225.14 245.04 167.99 283.63 167.99 283.38 224.77 245.04 225.14 245.04"/><polygon class="cls-48" points="225.51 245.04 167.99 283.88 167.99 283.63 225.14 245.04 225.51 245.04"/><polygon class="cls-49" points="225.88 245.04 167.99 284.13 167.99 283.88 225.51 245.04 225.88 245.04"/><polygon class="cls-49" points="226.25 245.04 167.99 284.38 167.99 284.13 225.88 245.04 226.25 245.04"/><polygon class="cls-50" points="226.62 245.04 167.99 284.63 167.99 284.38 226.25 245.04 226.62 245.04"/><polygon class="cls-50" points="226.99 245.04 167.99 284.88 167.99 284.63 226.62 245.04 226.99 245.04"/><polygon class="cls-51" points="227.35 245.04 167.99 285.13 167.99 284.88 226.99 245.04 227.35 245.04"/><polygon class="cls-52" points="227.72 245.04 167.99 285.38 167.99 285.13 227.35 245.04 227.72 245.04"/><polygon class="cls-53" points="228.09 245.04 167.99 285.63 167.99 285.38 227.72 245.04 228.09 245.04"/><polygon class="cls-53" points="228.46 245.04 167.99 285.88 167.99 285.63 228.09 245.04 228.46 245.04"/><polygon class="cls-54" points="228.83 245.04 167.99 286.13 167.99 285.88 228.46 245.04 228.83 245.04"/><polygon class="cls-54" points="229.2 245.04 167.99 286.38 167.99 286.13 228.83 245.04 229.2 245.04"/><polygon class="cls-55" points="229.57 245.04 167.99 286.63 167.99 286.38 229.2 245.04 229.57 245.04"/><polygon class="cls-55" points="229.94 245.04 167.99 286.88 167.99 286.63 229.57 245.04 229.94 245.04"/><polygon class="cls-56" points="230.31 245.04 167.99 287.13 167.99 286.88 229.94 245.04 230.31 245.04"/><polygon class="cls-57" points="230.68 245.04 167.99 287.38 167.99 287.13 230.31 245.04 230.68 245.04"/><polygon class="cls-58" points="231.05 245.04 167.99 287.63 167.99 287.38 230.68 245.04 231.05 245.04"/><polygon class="cls-58" points="231.42 245.04 167.99 287.88 167.99 287.63 231.05 245.04 231.42 245.04"/><polygon class="cls-59" points="231.79 245.04 167.99 288.13 167.99 287.88 231.42 245.04 231.79 245.04"/><polygon class="cls-59" points="232.16 245.04 167.99 288.38 167.99 288.13 231.79 245.04 232.16 245.04"/><polygon class="cls-60" points="232.53 245.04 167.99 288.63 167.99 288.38 232.16 245.04 232.53 245.04"/><polygon class="cls-61" points="232.9 245.04 167.99 288.88 167.99 288.63 232.53 245.04 232.9 245.04"/><polygon class="cls-62" points="233.27 245.04 167.99 289.13 167.99 288.88 232.9 245.04 233.27 245.04"/><polygon class="cls-62" points="233.64 245.04 167.99 289.38 167.99 289.13 233.27 245.04 233.64 245.04"/><polygon class="cls-63" points="234.01 245.04 167.99 289.63 167.99 289.38 233.64 245.04 234.01 245.04"/><polygon class="cls-63" points="234.38 245.04 167.99 289.88 167.99 289.63 234.01 245.04 234.38 245.04"/><polygon class="cls-64" points="234.75 245.04 167.99 290.13 167.99 289.88 234.38 245.04 234.75 245.04"/><polygon class="cls-65" points="235.12 245.04 167.99 290.38 167.99 290.13 234.75 245.04 235.12 245.04"/><polygon class="cls-66" points="235.49 245.04 167.99 290.62 167.99 290.38 235.12 245.04 235.49 245.04"/><polygon class="cls-66" points="235.86 245.04 167.99 290.87 167.99 290.62 235.49 245.04 235.86 245.04"/><polygon class="cls-67" points="236.23 245.04 167.99 291.12 167.99 290.87 235.86 245.04 236.23 245.04"/><polygon class="cls-67" points="236.6 245.04 167.99 291.37 167.99 291.12 236.23 245.04 236.6 245.04"/><polygon class="cls-68" points="236.97 245.04 167.99 291.62 167.99 291.37 236.6 245.04 236.97 245.04"/><polygon class="cls-68" points="237.34 245.04 167.99 291.87 167.99 291.62 236.97 245.04 237.34 245.04"/><polygon class="cls-68" points="237.71 245.04 167.99 292.12 167.99 291.87 237.34 245.04 237.71 245.04"/><polygon class="cls-69" points="238.07 245.04 167.99 292.37 167.99 292.12 237.71 245.04 238.07 245.04"/><polygon class="cls-69" points="238.44 245.04 167.99 292.62 167.99 292.37 238.07 245.04 238.44 245.04"/><polygon class="cls-70" points="238.81 245.04 167.99 292.87 167.99 292.62 238.44 245.04 238.81 245.04"/><polygon class="cls-71" points="239.18 245.04 167.99 293.12 167.99 292.87 238.81 245.04 239.18 245.04"/><polygon class="cls-72" points="239.55 245.04 167.99 293.37 167.99 293.12 239.18 245.04 239.55 245.04"/><polygon class="cls-72" points="239.92 245.04 167.99 293.62 167.99 293.37 239.55 245.04 239.92 245.04"/><polygon class="cls-73" points="240.29 245.04 167.99 293.87 167.99 293.62 239.92 245.04 240.29 245.04"/><polygon class="cls-73" points="240.66 245.04 167.99 294.12 167.99 293.87 240.29 245.04 240.66 245.04"/><polygon class="cls-74" points="241.03 245.04 167.99 294.37 167.99 294.12 240.66 245.04 241.03 245.04"/><polygon class="cls-75" points="241.4 245.04 167.99 294.62 167.99 294.37 241.03 245.04 241.4 245.04"/><polygon class="cls-75" points="241.77 245.04 167.99 294.87 167.99 294.62 241.4 245.04 241.77 245.04"/><polygon class="cls-76" points="242.14 245.04 167.99 295.12 167.99 294.87 241.77 245.04 242.14 245.04"/><polygon class="cls-77" points="242.51 245.04 167.99 295.37 167.99 295.12 242.14 245.04 242.51 245.04"/><polygon class="cls-78" points="242.88 245.04 167.99 295.62 167.99 295.37 242.51 245.04 242.88 245.04"/><polygon class="cls-78" points="243.25 245.04 167.99 295.87 167.99 295.62 242.88 245.04 243.25 245.04"/><polygon class="cls-79" points="243.62 245.04 168.04 296.08 167.99 296 167.99 295.87 243.25 245.04 243.62 245.04"/><polygon class="cls-79" points="243.99 245.04 168.16 296.25 168.04 296.08 243.62 245.04 243.99 245.04"/><polygon class="cls-80" points="244.36 245.04 168.27 296.42 168.16 296.25 243.99 245.04 244.36 245.04"/><polygon class="cls-80" points="244.73 245.04 168.39 296.59 168.27 296.42 244.36 245.04 244.73 245.04"/><polygon class="cls-80" points="245.1 245.04 168.5 296.76 168.39 296.59 244.73 245.04 245.1 245.04"/><polygon class="cls-81" points="245.47 245.04 168.62 296.94 168.5 296.76 245.1 245.04 245.47 245.04"/><polygon class="cls-81" points="245.84 245.04 168.73 297.11 168.62 296.94 245.47 245.04 245.84 245.04"/><polygon class="cls-82" points="246.21 245.04 168.85 297.28 168.73 297.11 245.84 245.04 246.21 245.04"/><polygon class="cls-83" points="246.58 245.04 168.97 297.45 168.85 297.28 246.21 245.04 246.58 245.04"/><polygon class="cls-84" points="246.95 245.04 169.08 297.62 168.97 297.45 246.58 245.04 246.95 245.04"/><polygon class="cls-84" points="247.31 245.04 169.2 297.79 169.08 297.62 246.95 245.04 247.31 245.04"/><polygon class="cls-85" points="247.69 245.04 169.31 297.97 169.2 297.79 247.31 245.04 247.69 245.04"/><polygon class="cls-85" points="248.05 245.04 169.43 298.14 169.31 297.97 247.69 245.04 248.05 245.04"/><polygon class="cls-86" points="248.42 245.04 169.54 298.31 169.43 298.14 248.05 245.04 248.42 245.04"/><polygon class="cls-87" points="248.79 245.04 169.66 298.48 169.54 298.31 248.42 245.04 248.79 245.04"/><polygon class="cls-87" points="249.16 245.04 169.78 298.65 169.66 298.48 248.79 245.04 249.16 245.04"/><polygon class="cls-88" points="249.53 245.04 169.89 298.82 169.78 298.65 249.16 245.04 249.53 245.04"/><polygon class="cls-88" points="249.9 245.04 170.01 298.99 169.89 298.82 249.53 245.04 249.9 245.04"/><polygon class="cls-89" points="250.1 245.15 170.12 299.17 170.01 298.99 249.9 245.04 250.1 245.04 250.1 245.15"/><polygon class="cls-90" points="250.1 245.4 170.24 299.34 170.12 299.17 250.1 245.15 250.1 245.4"/><polygon class="cls-91" points="250.1 245.65 170.35 299.51 170.24 299.34 250.1 245.4 250.1 245.65"/><polygon class="cls-91" points="250.1 245.9 170.47 299.68 170.35 299.51 250.1 245.65 250.1 245.9"/><polygon class="cls-92" points="250.1 246.15 170.59 299.85 170.47 299.68 250.1 245.9 250.1 246.15"/><polygon class="cls-93" points="250.1 246.4 170.7 300.02 170.59 299.85 250.1 246.15 250.1 246.4"/><polygon class="cls-94" points="250.1 246.65 170.82 300.19 170.7 300.02 250.1 246.4 250.1 246.65"/><polygon class="cls-95" points="250.1 246.9 170.93 300.37 170.82 300.19 250.1 246.65 250.1 246.9"/><polygon class="cls-95" points="250.1 247.15 171.05 300.54 170.93 300.37 250.1 246.9 250.1 247.15"/><polygon class="cls-96" points="250.1 247.4 171.16 300.71 171.05 300.54 250.1 247.15 250.1 247.4"/><polygon class="cls-96" points="250.1 247.65 171.28 300.88 171.16 300.71 250.1 247.4 250.1 247.65"/><polygon class="cls-97" points="250.1 247.9 171.4 301.05 171.28 300.88 250.1 247.65 250.1 247.9"/><polygon class="cls-97" points="250.1 248.15 171.51 301.22 171.4 301.05 250.1 247.9 250.1 248.15"/><polygon class="cls-98" points="250.1 248.4 171.63 301.39 171.51 301.22 250.1 248.15 250.1 248.4"/><polygon class="cls-99" points="250.1 248.65 171.74 301.57 171.63 301.39 250.1 248.4 250.1 248.65"/><polygon class="cls-99" points="250.1 248.9 171.86 301.74 171.74 301.57 250.1 248.65 250.1 248.9"/><polygon class="cls-100" points="250.1 249.15 171.97 301.91 171.86 301.74 250.1 248.9 250.1 249.15"/><polygon class="cls-101" points="250.1 249.4 172.09 302.08 171.97 301.91 250.1 249.15 250.1 249.4"/><polygon class="cls-102" points="250.1 249.65 172.21 302.25 172.09 302.08 250.1 249.4 250.1 249.65"/><polygon class="cls-103" points="250.1 249.9 172.32 302.42 172.21 302.25 250.1 249.65 250.1 249.9"/><polygon class="cls-104" points="250.1 250.14 172.44 302.59 172.32 302.42 250.1 249.9 250.1 250.14"/><polygon class="cls-104" points="250.1 250.39 172.55 302.77 172.44 302.59 250.1 250.14 250.1 250.39"/><polygon class="cls-105" points="250.1 250.64 172.67 302.94 172.55 302.77 250.1 250.39 250.1 250.64"/><polygon class="cls-105" points="250.1 250.89 172.79 303.11 172.67 302.94 250.1 250.64 250.1 250.89"/><polygon class="cls-106" points="250.1 251.14 172.9 303.28 172.79 303.11 250.1 250.89 250.1 251.14"/><polygon class="cls-106" points="250.1 251.39 173.02 303.45 172.9 303.28 250.1 251.14 250.1 251.39"/><polygon class="cls-107" points="250.1 251.64 173.13 303.62 173.02 303.45 250.1 251.39 250.1 251.64"/><polygon class="cls-107" points="250.1 251.89 173.25 303.79 173.13 303.62 250.1 251.64 250.1 251.89"/><polygon class="cls-107" points="250.1 252.14 173.37 303.97 173.25 303.79 250.1 251.89 250.1 252.14"/><polygon class="cls-108" points="250.1 252.39 173.48 304.14 173.37 303.97 250.1 252.14 250.1 252.39"/><polygon class="cls-108" points="250.1 252.64 173.6 304.31 173.48 304.14 250.1 252.39 250.1 252.64"/><polygon class="cls-109" points="250.1 252.89 173.71 304.48 173.6 304.31 250.1 252.64 250.1 252.89"/><polygon class="cls-109" points="250.1 253.14 173.83 304.65 173.71 304.48 250.1 252.89 250.1 253.14"/><polygon class="cls-110" points="250.1 253.39 173.94 304.82 173.83 304.65 250.1 253.14 250.1 253.39"/><polygon class="cls-111" points="250.1 253.64 174.06 304.99 173.94 304.82 250.1 253.39 250.1 253.64"/><polygon class="cls-112" points="250.1 253.89 174.18 305.17 174.06 304.99 250.1 253.64 250.1 253.89"/><polygon class="cls-113" points="250.1 254.14 174.29 305.34 174.18 305.17 250.1 253.89 250.1 254.14"/><polygon class="cls-114" points="250.1 254.39 174.41 305.51 174.29 305.34 250.1 254.14 250.1 254.39"/><polygon class="cls-114" points="250.1 254.64 174.52 305.68 174.41 305.51 250.1 254.39 250.1 254.64"/><polygon class="cls-115" points="250.1 254.89 174.64 305.85 174.52 305.68 250.1 254.64 250.1 254.89"/><polygon class="cls-115" points="250.1 255.14 174.75 306.02 174.64 305.85 250.1 254.89 250.1 255.14"/><polygon class="cls-116" points="250.1 255.39 174.87 306.19 174.75 306.02 250.1 255.14 250.1 255.39"/><polygon class="cls-116" points="250.1 255.64 174.99 306.37 174.87 306.19 250.1 255.39 250.1 255.64"/><polygon class="cls-117" points="250.1 255.89 175.1 306.54 174.99 306.37 250.1 255.64 250.1 255.89"/><polygon class="cls-118" points="250.1 256.13 175.22 306.71 175.1 306.54 250.1 255.89 250.1 256.13"/><polygon class="cls-118" points="250.1 256.38 175.33 306.88 175.22 306.71 250.1 256.13 250.1 256.38"/><polygon class="cls-119" points="250.1 256.63 175.45 307.05 175.33 306.88 250.1 256.38 250.1 256.63"/><polygon class="cls-119" points="250.1 256.88 175.56 307.22 175.45 307.05 250.1 256.63 250.1 256.88"/><polygon class="cls-120" points="250.1 257.13 175.68 307.39 175.56 307.22 250.1 256.88 250.1 257.13"/><polygon class="cls-120" points="250.1 257.38 175.8 307.57 175.68 307.39 250.1 257.13 250.1 257.38"/><polygon class="cls-121" points="250.1 257.63 175.91 307.74 175.8 307.57 250.1 257.38 250.1 257.63"/><polygon class="cls-121" points="250.1 257.88 176.03 307.91 175.91 307.74 250.1 257.63 250.1 257.88"/><polygon class="cls-122" points="250.1 258.13 176.14 308.08 176.03 307.91 250.1 257.88 250.1 258.13"/><polygon class="cls-123" points="250.1 258.38 176.26 308.25 176.14 308.08 250.1 258.13 250.1 258.38"/><polygon class="cls-124" points="250.1 258.63 176.38 308.42 176.26 308.25 250.1 258.38 250.1 258.63"/><polygon class="cls-125" points="250.1 258.88 176.49 308.59 176.38 308.42 250.1 258.63 250.1 258.88"/><polygon class="cls-126" points="250.1 259.13 176.61 308.77 176.49 308.59 250.1 258.88 250.1 259.13"/><polygon class="cls-127" points="250.1 259.38 176.72 308.94 176.61 308.77 250.1 259.13 250.1 259.38"/><polygon class="cls-128" points="250.1 259.63 176.84 309.11 176.72 308.94 250.1 259.38 250.1 259.63"/><polygon class="cls-128" points="250.1 259.88 176.95 309.28 176.84 309.11 250.1 259.63 250.1 259.88"/><polygon class="cls-129" points="250.1 260.13 177.07 309.45 176.95 309.28 250.1 259.88 250.1 260.13"/><polygon class="cls-129" points="250.1 260.38 177.19 309.62 177.07 309.45 250.1 260.13 250.1 260.38"/><polygon class="cls-130" points="250.1 260.63 177.3 309.8 177.19 309.62 250.1 260.38 250.1 260.63"/><polygon class="cls-131" points="250.1 260.88 177.42 309.97 177.3 309.8 250.1 260.63 250.1 260.88"/><polygon class="cls-132" points="250.1 261.13 177.53 310.14 177.42 309.97 250.1 260.88 250.1 261.13"/><polygon class="cls-133" points="250.1 261.38 177.65 310.31 177.53 310.14 250.1 261.13 250.1 261.38"/><polygon class="cls-134" points="250.1 261.63 177.76 310.48 177.65 310.31 250.1 261.38 250.1 261.63"/><polygon class="cls-135" points="250.1 261.88 177.88 310.65 177.76 310.48 250.1 261.63 250.1 261.88"/><polygon class="cls-135" points="250.1 262.13 178 310.82 177.88 310.65 250.1 261.88 250.1 262.13"/><polygon class="cls-136" points="250.1 262.38 178.11 311 178 310.82 250.1 262.13 250.1 262.38"/><polygon class="cls-136" points="250.1 262.63 178.23 311.17 178.11 311 250.1 262.38 250.1 262.63"/><polygon class="cls-137" points="250.1 262.88 178.34 311.34 178.23 311.17 250.1 262.63 250.1 262.88"/><polygon class="cls-137" points="250.1 263.13 178.46 311.51 178.34 311.34 250.1 262.88 250.1 263.13"/><polygon class="cls-138" points="250.1 263.37 178.57 311.68 178.46 311.51 250.1 263.13 250.1 263.37"/><polygon class="cls-138" points="250.1 263.62 178.69 311.85 178.57 311.68 250.1 263.37 250.1 263.62"/><polygon class="cls-138" points="250.1 263.87 178.81 312.02 178.69 311.85 250.1 263.62 250.1 263.87"/><polygon class="cls-139" points="250.1 264.12 178.92 312.19 178.81 312.02 250.1 263.87 250.1 264.12"/><polygon class="cls-139" points="250.1 264.37 179.04 312.37 178.92 312.19 250.1 264.12 250.1 264.37"/><polygon class="cls-140" points="250.1 264.62 179.15 312.54 179.04 312.37 250.1 264.37 250.1 264.62"/><polygon class="cls-140" points="250.1 264.87 179.27 312.71 179.15 312.54 250.1 264.62 250.1 264.87"/><polygon class="cls-141" points="250.1 265.12 179.38 312.88 179.27 312.71 250.1 264.87 250.1 265.12"/><polygon class="cls-141" points="250.1 265.37 179.5 313.05 179.38 312.88 250.1 265.12 250.1 265.37"/><polygon class="cls-142" points="250.1 265.62 179.62 313.22 179.5 313.05 250.1 265.37 250.1 265.62"/><polygon class="cls-142" points="250.1 265.87 179.73 313.39 179.62 313.22 250.1 265.62 250.1 265.87"/><polygon class="cls-143" points="250.1 266.12 179.85 313.57 179.73 313.39 250.1 265.87 250.1 266.12"/><polygon class="cls-144" points="250.1 266.37 179.96 313.74 179.85 313.57 250.1 266.12 250.1 266.37"/><polygon class="cls-145" points="250.1 266.62 180.08 313.91 179.96 313.74 250.1 266.37 250.1 266.62"/><polygon class="cls-146" points="250.1 266.87 180.19 314.08 180.08 313.91 250.1 266.62 250.1 266.87"/><polygon class="cls-146" points="250.1 267.12 180.31 314.25 180.19 314.08 250.1 266.87 250.1 267.12"/><polygon class="cls-147" points="250.1 267.37 180.43 314.42 180.31 314.25 250.1 267.12 250.1 267.37"/><polygon class="cls-147" points="250.1 267.62 180.54 314.6 180.43 314.42 250.1 267.37 250.1 267.62"/><polygon class="cls-148" points="250.1 267.87 180.66 314.77 180.54 314.6 250.1 267.62 250.1 267.87"/><polygon class="cls-149" points="250.1 268.12 180.77 314.94 180.66 314.77 250.1 267.87 250.1 268.12"/><polygon class="cls-150" points="250.1 268.37 180.89 315.11 180.77 314.94 250.1 268.12 250.1 268.37"/><polygon class="cls-151" points="250.1 268.62 181.01 315.28 180.89 315.11 250.1 268.37 250.1 268.62"/><polygon class="cls-152" points="250.1 268.87 181.12 315.45 181.01 315.28 250.1 268.62 250.1 268.87"/><polygon class="cls-153" points="250.1 269.12 181.24 315.62 181.12 315.45 250.1 268.87 250.1 269.12"/><polygon class="cls-154" points="250.1 269.37 181.35 315.8 181.24 315.62 250.1 269.12 250.1 269.37"/><polygon class="cls-155" points="250.1 269.62 181.47 315.97 181.35 315.8 250.1 269.37 250.1 269.62"/><polygon class="cls-155" points="250.1 269.86 181.59 316.14 181.47 315.97 250.1 269.62 250.1 269.86"/><polygon class="cls-156" points="250.1 270.11 181.7 316.31 181.59 316.14 250.1 269.86 250.1 270.11"/><polygon class="cls-156" points="250.1 270.36 181.82 316.48 181.7 316.31 250.1 270.11 250.1 270.36"/><polygon class="cls-157" points="250.1 270.61 181.93 316.65 181.82 316.48 250.1 270.36 250.1 270.61"/><polygon class="cls-158" points="250.1 270.86 182.05 316.82 181.93 316.65 250.1 270.61 250.1 270.86"/><polygon class="cls-159" points="250.1 271.11 182.16 317 182.05 316.82 250.1 270.86 250.1 271.11"/><polygon class="cls-160" points="250.1 271.36 182.28 317.17 182.16 317 250.1 271.11 250.1 271.36"/><polygon class="cls-161" points="250.1 271.61 182.4 317.34 182.28 317.17 250.1 271.36 250.1 271.61"/><polygon class="cls-162" points="250.1 271.86 182.51 317.51 182.4 317.34 250.1 271.61 250.1 271.86"/><polygon class="cls-163" points="250.1 272.11 182.63 317.68 182.51 317.51 250.1 271.86 250.1 272.11"/><polygon class="cls-164" points="250.1 272.36 182.74 317.85 182.63 317.68 250.1 272.11 250.1 272.36"/><polygon class="cls-165" points="250.1 272.61 182.86 318.02 182.74 317.85 250.1 272.36 250.1 272.61"/><polygon class="cls-166" points="250.1 272.86 182.97 318.19 182.86 318.02 250.1 272.61 250.1 272.86"/><polygon class="cls-166" points="250.1 273.11 183.09 318.37 182.97 318.19 250.1 272.86 250.1 273.11"/><polygon class="cls-167" points="250.1 273.36 183.21 318.54 183.09 318.37 250.1 273.11 250.1 273.36"/><polygon class="cls-168" points="250.1 273.61 183.32 318.71 183.21 318.54 250.1 273.36 250.1 273.61"/><polygon class="cls-169" points="250.1 273.86 183.44 318.88 183.32 318.71 250.1 273.61 250.1 273.86"/><polygon class="cls-170" points="250.1 274.11 183.55 319.05 183.44 318.88 250.1 273.86 250.1 274.11"/><polygon class="cls-171" points="250.1 274.36 183.67 319.22 183.55 319.05 250.1 274.11 250.1 274.36"/><polygon class="cls-172" points="250.1 274.61 183.78 319.39 183.67 319.22 250.1 274.36 250.1 274.61"/><polygon class="cls-173" points="250.1 274.86 183.9 319.57 183.78 319.39 250.1 274.61 250.1 274.86"/><polygon class="cls-174" points="250.1 275.11 184.02 319.74 183.9 319.57 250.1 274.86 250.1 275.11"/><polygon class="cls-175" points="250.1 275.36 184.13 319.91 184.02 319.74 250.1 275.11 250.1 275.36"/><polygon class="cls-176" points="250.1 275.61 184.25 320.08 184.13 319.91 250.1 275.36 250.1 275.61"/><polygon class="cls-176" points="250.1 275.86 184.36 320.25 184.25 320.08 250.1 275.61 250.1 275.86"/><polygon class="cls-177" points="250.1 276.11 184.48 320.42 184.36 320.25 250.1 275.86 250.1 276.11"/><polygon class="cls-177" points="250.1 276.35 184.59 320.6 184.48 320.42 250.1 276.11 250.1 276.35"/><polygon class="cls-178" points="250.1 276.6 184.71 320.77 184.59 320.6 250.1 276.35 250.1 276.6"/><polygon class="cls-179" points="250.1 276.85 184.83 320.94 184.71 320.77 250.1 276.6 250.1 276.85"/><polygon class="cls-180" points="250.1 277.1 184.94 321.11 184.83 320.94 250.1 276.85 250.1 277.1"/><polygon class="cls-181" points="250.1 277.35 185.06 321.28 184.94 321.11 250.1 277.1 250.1 277.35"/><polygon class="cls-182" points="250.1 277.6 185.17 321.45 185.06 321.28 250.1 277.35 250.1 277.6"/><polygon class="cls-3" points="250.1 277.85 185.29 321.62 185.17 321.45 250.1 277.6 250.1 277.85"/><polygon class="cls-3" points="191.95 331.49 185.29 321.62 250.1 277.85 250.1 331.49 191.95 331.49"/></g><path class="cls-185" d="M515.35,163l.52,178.43H453l3.26-52.68A401.88,401.88,0,0,1,462.54,239l-2.49-.4q-3.92,16.08-5.09,19.74-3,10.59-10.72,28.89l-22.62,54.12H381l-7.06-56.47A258,258,0,0,1,371.82,252q0-5.62.53-13.34h-2.1A466.52,466.52,0,0,1,362,284.91L349,341.38H283.46L335.35,163h68.5l7.06,55.68a154.18,154.18,0,0,1,1.17,19.74,130.31,130.31,0,0,1-1.44,19.48h2.62q4.44-23,15.95-51L446.85,163Z"/><path class="cls-185" d="M823,163,737.34,341.38H682.83l-8.24-57.52a216.86,216.86,0,0,1-2.09-29.28q0-3.39.39-7.58l-2.61-.26q-1.69,8.37-3.27,14.12-2.88,10.84-10.59,31.5l-18.17,49h-57.9L544.53,163h66.93l5.88,69.28q1,11.51,1,23.4,0,6.4-.4,14.38h2.62q1.56-11.5,2.61-16.47A203.1,203.1,0,0,1,632.76,221l21.57-58h53.2l7.45,68.1a273,273,0,0,1,2,30.46c0,1.83,0,4.7-.13,8.63h2.62q1.3-11.5,2.48-19a196.63,196.63,0,0,1,8.37-31.5L749.49,163Z"/></svg>