<svg id="Layer_1" data-name="Layer 1" xmlns="http://www.w3.org/2000/svg" viewBox="0 0 481.89 481.86"><defs><style>.cls-1{fill:#fff;stroke:#d2d2d1;stroke-miterlimit:10;}.cls-2{fill:#233d7c;}</style></defs><title>Artboard 8 copy</title><ellipse class="cls-1" cx="240.94" cy="240.93" rx="240.94" ry="240.93"/><g id="Group_5" data-name="Group 5"><path id="Path_4" data-name="Path 4" class="cls-2" d="M127.37,102.62a122.12,122.12,0,0,1,11.27,10.79c2.85,2.75,5.72,5.52,8.3,8.49a5.3,5.3,0,0,1-.13,7.52l0,0a5.26,5.26,0,0,1-7.44.47l-.11-.09a105.29,105.29,0,0,1-7.07-7.87,3.75,3.75,0,0,0-1,3.33V347.82c0,1.83,0,2.86,2.49,2.86q111.8-.1,223.6-.06h1.82l.6-.81c-2.42-2.21-5-4.25-7.23-6.66a5.62,5.62,0,0,1,2.87-9.63,5.48,5.48,0,0,1,5.16,1.71c5.73,5.62,11.45,11.26,17,17a5.51,5.51,0,0,1,.44,7.77c-.14.15-.29.3-.44.44q-8.2,8.4-16.61,16.63a5.77,5.77,0,0,1-8.12.89,5.65,5.65,0,0,1-.46-8.44l.26-.23c2.23-2.29,4.71-4.34,7.35-6.74a7.34,7.34,0,0,0-3.95-.59H125.31a5.53,5.53,0,0,1-5.45-5.56c-.06-1,0-2,0-3v-231a36.89,36.89,0,0,0-5.82,5.42c-4.73,4.63-7.4,4.57-11.45-.37v-3.79a232.66,232.66,0,0,1,21.07-21.06Z"/><path id="Path_5" data-name="Path 5" class="cls-2" d="M183.23,236.62V182.36a5.64,5.64,0,0,0-1.86-4.48c-4.4-4.24-8.68-8.62-13-12.95a6.21,6.21,0,0,1-2.18-5.72,5.48,5.48,0,0,1,8-4,13,13,0,0,1,2.91,2.37q73.52,73.47,147,147a16.23,16.23,0,0,1,2.29,2.68,5.57,5.57,0,0,1-.73,7,5.73,5.73,0,0,1-6.94.69,22.42,22.42,0,0,1-4-3.62c-3.58-3.55-7.2-7.07-10.66-10.72a5.84,5.84,0,0,0-4.7-2q-53.85.09-107.71,0c-6.63,0-8.43-1.83-8.43-8.54Zm11.64-44.46a5.42,5.42,0,0,0-.13.79v63.2c0,1.75.64,2.07,2.21,2.06,6.66-.07,13.33,0,20,0a5.85,5.85,0,0,1,6.67,4.89,6.53,6.53,0,0,1,0,1.71c0,6.47.13,13,0,19.45-.07,2.45.69,3,3,3,20.25-.09,40.5,0,60.77-.06.83,0,1.78.36,2.28-.26Zm17.35,86.33v-7.27c0-1.26-.35-1.74-1.67-1.73-4.76.06-9.53,0-14.29,0-1.15,0-1.58.46-1.57,1.58v14.29c0,1.23.44,1.78,1.72,1.77h14c1.46,0,1.85-.57,1.8-1.92-.08-2.19,0-4.44,0-6.68Z"/></g></svg>