<svg id="Layer_1" data-name="Layer 1" xmlns="http://www.w3.org/2000/svg" viewBox="0 0 481.89 481.86"><defs><style>.cls-1{fill:#edb569;}</style></defs><title>Artboard 8 copy 5</title><g id="Group_37" data-name="Group 37"><path id="Path_32" data-name="Path 32" class="cls-1" d="M73.72,241V108.6A33.24,33.24,0,0,1,105.3,73.77c1.07,0,2.13,0,3.2,0H328.61a14.27,14.27,0,0,1,10.81,4.55q32.06,32.21,64.28,64.28a14.22,14.22,0,0,1,4.48,10.81q-.1,110.06,0,220.11a33.22,33.22,0,0,1-31.8,34.58c-.94,0-1.89,0-2.84,0H108.16a33.22,33.22,0,0,1-34.4-32q0-1.23,0-2.46Q73.68,307.29,73.72,241ZM96,241V373a11.49,11.49,0,0,0,12.64,12.82c5.8,0,11.61-.12,17.41,0,2.68.09,3.49-.61,3.48-3.4-.12-24.5-.07-49,0-73.49a33.24,33.24,0,0,1,31.8-34.62c.93,0,1.87,0,2.8,0H317.73a33.22,33.22,0,0,1,34.67,31.71c0,.94.05,1.88,0,2.81v73.85c0,2.35.49,3.23,3,3.14,5.7-.2,11.4,0,17.1,0A11.69,11.69,0,0,0,386,376.19a11.24,11.24,0,0,0,0-3.75V159.62a7,7,0,0,0-2.22-5.47c-16.16-16-32.67-31.73-48.11-48.45a26.16,26.16,0,0,0-24.42-9.81c-2.68.35-3.41.85-3.39,3.53q.15,31.35,0,62.7a22.07,22.07,0,0,1-21.05,23c-.63,0-1.25,0-1.88,0H197.1a22.09,22.09,0,0,1-23-21.08c0-.62,0-1.24,0-1.86,0-20.9-.07-41.79,0-62.7,0-3-.86-3.57-3.68-3.56-20.2.13-40.4,0-60.6,0-9.72,0-13.84,4.08-13.84,13.68Q96,175.38,96,241ZM241,385.85h85.3c2.85,0,3.93-.4,3.92-3.68-.17-24.13-.09-48.27-.09-72.41a11.57,11.57,0,0,0-13-13.15H164.62a11.5,11.5,0,0,0-12.83,12.91q0,36.33-.07,72.77c0,2.95.81,3.59,3.66,3.57q42.69-.08,85.56,0ZM240.79,163h41.78c2.18,0,3-.47,3-2.85q-.15-30.63,0-61.27c0-2.32-.72-2.85-2.94-2.85q-41.61.09-83.22,0c-2.35,0-3.14.5-3.14,3q.15,30.46,0,60.93c0,2.49.71,3.06,3.12,3.05C213.16,162.87,227,163,240.79,163Z"/></g></svg>