<svg id="Layer_1" data-name="Layer 1" xmlns="http://www.w3.org/2000/svg" viewBox="0 0 481.89 481.86"><defs><style>.cls-1{fill:#b1c88f;}</style></defs><title>Artboard 8 copy 8</title><g id="Group_36" data-name="Group 36"><path id="Path_30" data-name="Path 30" class="cls-1" d="M111.92,258.42V148.12a34.91,34.91,0,0,1,33-36.12c1.74-.16,2.14-.67,2.28-2.35A34.91,34.91,0,0,1,183,76.74H295.85a33.86,33.86,0,0,1,28.86,14.61c13.06,18.06,25.93,36.36,38.83,54.6A34.89,34.89,0,0,1,370,166.59V334.05a34.9,34.9,0,0,1-32.87,35.84c-2,.16-2.26.91-2.39,2.58a35,35,0,0,1-35,32.62q-76.4.07-152.8,0A34.9,34.9,0,0,1,112,370.25v-.08Q111.84,314.3,111.92,258.42Zm58.61-35V332.22c0,9.85,4.45,14.28,14.33,14.29H332.19c9.89,0,14.3-4.41,14.31-14.3V251.58q0-38.84.07-77.69c0-2.77-.74-3.49-3.46-3.41-6.83.19-13.68.1-20.52,0a35,35,0,0,1-34.73-34.83c0-10.63-.14-21.26.07-31.88,0-3.14-.89-3.77-3.87-3.75-33.11.11-66.21.06-99.34.07-9.85,0-14.19,4.41-14.19,14.37V223.38Zm-35.19,35.19V367.42c0,9.86,4.45,14.28,14.35,14.28H291.52c2.69,0,5.38.12,8.07,0a11.59,11.59,0,0,0,10.82-7.44c1.63-3.87,1.29-4.27-2.88-4.27H184a39.28,39.28,0,0,1-6.94-.34,35,35,0,0,1-30-35.94V140.57a18.51,18.51,0,0,1,0-2.58c.33-2.67-.9-2.68-3-2.09a12,12,0,0,0-8.79,12.77q0,54.93,0,109.89ZM312,114l-.71.33c0,7.06-.14,14.19,0,21.2A11,11,0,0,0,318.48,146a57.45,57.45,0,0,0,17,1.18Z"/><path id="Path_31" data-name="Path 31" class="cls-1" d="M311.28,205.93a10.93,10.93,0,0,1-3.5,8.16Q276.92,242.74,246,271.32a11,11,0,0,1-15.56,0c-.27-.28-.53-.56-.77-.86q-10-10.69-19.77-21.62a11.62,11.62,0,0,1,.22-16.42l.38-.35a11.86,11.86,0,0,1,16.75.81l0,0c3.37,3.53,6.75,7.08,9.85,10.85,1.72,2.1,2.71,1.74,4.47.09,16.26-15.15,32.6-30.2,48.89-45.31a12.37,12.37,0,0,1,12.25-3.87A11.18,11.18,0,0,1,311.28,205.93Z"/></g></svg>