<svg id="Layer_1" data-name="Layer 1" xmlns="http://www.w3.org/2000/svg" viewBox="0 0 481.89 481.86"><defs><style>.cls-1{fill:#edb569;}</style></defs><title>Artboard 8 copy 7</title><g id="Group_33" data-name="Group 33"><path id="Path_22" data-name="Path 22" class="cls-1" d="M187.58,65.39l62,32a11.72,11.72,0,0,1,6,18.48q-15.45,29.94-30.93,59.88a11.71,11.71,0,0,1-12.32,7.32,11.18,11.18,0,0,1-9.53-12.61,11,11,0,0,1,1-3.23c2.26-5,4.93-9.77,7.44-14.64,6.28-12.16,12.51-24.34,18.92-36.44,1.22-2.26.81-3.13-1.44-4.27-16-8.11-31.85-16.36-47.74-24.61A11.46,11.46,0,0,1,174,73.57a12.83,12.83,0,0,1,8.11-8.18Z"/><path id="Path_23" data-name="Path 23" class="cls-1" d="M199.35,112.1a11.42,11.42,0,0,1,11.2,9.4,11,11,0,0,1-6.79,12.19,140.17,140.17,0,0,0-21,10A110.36,110.36,0,0,0,129.27,223a110.5,110.5,0,0,0,36.11,102.33,105.91,105.91,0,0,0,36.39,22,12.14,12.14,0,0,1,8.62,8.88,11.09,11.09,0,0,1-12.86,13.25A95.61,95.61,0,0,1,170.27,357a130.93,130.93,0,0,1-60.91-82.7,132.88,132.88,0,0,1,39.83-133.48,127.18,127.18,0,0,1,45.6-27.72A10.9,10.9,0,0,1,199.35,112.1Z"/><path id="Path_24" data-name="Path 24" class="cls-1" d="M377.05,239.41a136.62,136.62,0,0,1-84.47,127.22,43.06,43.06,0,0,1-7.36,2.72,11.16,11.16,0,0,1-7.63-20.82c1.31-.68,2.7-1.21,4.07-1.77a109.73,109.73,0,0,0,71.45-89.82,109.44,109.44,0,0,0-41.6-104.77A114.09,114.09,0,0,0,279.13,134a11.1,11.1,0,0,1-7.56-12.35,11.31,11.31,0,0,1,12.93-9.42,11.18,11.18,0,0,1,2.67.76,133.3,133.3,0,0,1,41.3,23.82,135.06,135.06,0,0,1,46.72,81.45A105,105,0,0,1,377.05,239.41Z"/><path id="Path_25" data-name="Path 25" class="cls-1" d="M297.17,416.47a12.1,12.1,0,0,1-6.3-1.84q-29.61-15.28-59.23-30.54a11.45,11.45,0,0,1-5.56-17.1q15.71-30.56,31.5-61.09A11.57,11.57,0,0,1,269,298.74a11.17,11.17,0,0,1,10,8.11,12.17,12.17,0,0,1-1.38,9.53c-8.44,16.29-16.76,32.64-25.3,48.89-1.42,2.68-1.07,3.64,1.61,5,15.84,8,31.68,16.24,47.43,24.38a11.61,11.61,0,0,1,7.1,9.71A11.31,11.31,0,0,1,298,416.44C297.7,416.46,297.44,416.47,297.17,416.47Z"/></g></svg>